{
.formatVersion = 3;
axes = (
{
name = Weight;
tag = wght;
}
);
classes = (
{
code = "eight five four nine one seven six three two zero Imacron imacron Scedilla scedilla Tcedilla tcedilla eight.prop eight.oldstyle eight.taboldstyle five.prop five.oldstyle five.taboldstyle four.prop four.oldstyle four.taboldstyle nine.prop nine.oldstyle nine.taboldstyle one.prop one.oldstyle one.taboldstyle seven.prop seven.oldstyle seven.taboldstyle six.prop six.oldstyle six.taboldstyle three.prop three.oldstyle three.taboldstyle two.prop two.oldstyle two.taboldstyle zero.prop zero.oldstyle zero.taboldstyle";
name = aalt1;
},
{

glyphs = (
{
glyphname = acute.dup;
layers = (
{
layerId = "913D8FE6-1CE1-42B9-B98D-9294EEB74CA2";
shapes = (
{
closed = 1;
nodes = (
(468,763,l),
(290,763,l),
(201,606,l),
(321,606,l)
);
}
);
width = 333;
},
{
layerId = "302A00D6-A4BF-4816-9BF8-9304575F20B5";
shapes = (
{
closed = 1;
nodes = (
(462,752,l),
(306,752,l),
(204,598,l),
(304,598,l)
);
}
);
width = 333;
},
{
layerId = "294D04AE-F7F3-48C8-8CA3-B1C092BC12BA";
shapes = (
{
closed = 1;
nodes = (
(450,729,l),
(338,729,l),
(210,581,l),
(270,581,l)
);
}
);
width = 333;
},
{
layerId = "9C58397D-E5DA-4355-9ABE-2EAD22125FE9";
shapes = (
{
closed = 1;
nodes = (
(445,720,l),
(351,720,l),
(212,574,l),
(256,574,l)
);
}
);
width = 333;
}
);
},
{
glyphname = AE.dup;
layers = (
{
layerId = "913D8FE6-1CE1-42B9-B98D-9294EEB74CA2";
shapes = (
{
closed = 1;
nodes = (
(955,141,l),
(585,141,l),
(618,293,l),
(937,293,l),
(965,434,l),
(646,434,l),
(675,559,l),
(1025,559,l),
(1054,700,l),
(370,700,l),
(-17,0,l),
(162,0,l),
(222,117,l),
(408,117,l),
(384,0,l),
(924,0,l)
);
},
{
closed = 1;
nodes = (
(504,559,l),
(439,257,l),
(292,257,l),
(457,559,l)
);
}
);
width = 1000;
},
{
layerId = "302A00D6-A4BF-4816-9BF8-9304575F20B5";
shapes = (
{
closed = 1;
nodes = (
(937,120,l),
(566,120,l),
(605,301,l),
(930,301,l),
(955,421,l),
(630,421,l),
(664,580,l),
(1016,580,l),
(1041,700,l),
(386,700,l),
(-17,0,l),
(135,0,l),
(217,146,l),
(427,146,l),
(396,0,l),
(911,0,l)
);
},
{
closed = 1;
nodes = (
(520,580,l),
(453,266,l),
(279,266,l),
(457,580,l)
);
}
);
width = 1000;
},
{
layerId = "294D04AE-F7F3-48C8-8CA3-B1C092BC12BA";
shapes = (
{
closed = 1;
nodes = (
(900,79,l),
(528,79,l),
(579,319,l),
(916,319,l),
(933,397,l),
(596,397,l),
(643,621,l),
(999,621,l),
(1016,700,l),
(418,700,l),
(-17,0,l),
(81,0,l),
(206,205,l),
(464,205,l),
(421,0,l),
(884,0,l)
);
},
{
closed = 1;
nodes = (
(553,621,l),
(482,283,l),
(253,283,l),
(457,621,l)
);
}
);
width = 1000;
},
{
layerId = "9C58397D-E5DA-4355-9ABE-2EAD22125FE9";
shapes = (
{
closed = 1;
nodes = (
(885,62,l),
(512,62,l),
(568,326,l),
(910,326,l),
(924,388,l),
(583,388,l),
(634,638,l),
(992,638,l),
(1005,700,l),
(432,700,l),
(-17,0,l),
(59,0,l),
(202,230,l),
(481,230,l),
(432,0,l),
(873,0,l)
);
},
{
closed = 1;
nodes = (
(566,638,l),
(494,291,l),
(243,291,l),
(457,638,l)
);
}
);
width = 1000;
}
);
},
{
glyphname = ae.dup;
layers = (
{
layerId = "913D8FE6-1CE1-42B9-B98D-9294EEB74CA2";
shapes = (
{
closed = 1;
nodes = (
(880,222,l),
(894,262,o),
(899,301,o),
(899,341,cs),
(899,458,o),
(821,553,o),
(678,553,cs),
(624,553,o),
(568,539,o),
(522,512,c),
(482,543,o),
(439,553,o),
(360,553,cs),
(201,553,o),
(108,498,o),
(81,358,c),
(236,358,l),
(250,408,o),
(276,424,o),
(333,424,cs),
(378,424,o),
(391,415,o),
(391,388,cs),
(391,362,o),
(371,347,o),
(340,339,c),
(334,339,o),
(316,336,o),
(238,325,cs),
(100,305,o),
(18,223,o),
(18,117,cs),
(18,34,o),
(80,-6,o),
(182,-6,cs),
(276,-6,o),
(314,13,o),
(385,93,c),
(408,32,o),
(478,-6,o),
(570,-6,cs),
(689,-6,o),
(802,60,o),
(862,149,c),
(697,149,l),
(688,143,o),
(648,124,o),
(607,124,cs),
(562,124,o),
(525,147,o),
(522,181,c),
(522,184,o),
(523,194,o),
(530,222,c)
);
},
{
closed = 1;
nodes = (
(361,246,l),
(349,169,o),
(314,126,o),
(252,126,cs),
(212,126,o),
(188,132,o),
(188,159,cs),
(188,215,o),
(246,230,o),
(316,240,c),
(352,242,o),
(347,244,o),
(363,252,c)
);
},
{
closed = 1;
nodes = (
(552,325,l),
(568,392,o),
(604,424,o),
(658,424,cs),
(704,424,o),
(728,399,o),
(728,349,cs),
(728,341,o),
(729,331,o),
(729,325,c)
);
}
);
width = 889;
},
{
layerId = "302A00D6-A4BF-4816-9BF8-9304575F20B5";
shapes = (
{
closed = 1;
nodes = (
(869,226,l),
(881,271,o),
(887,314,o),
(887,351,cs),
(887,460,o),
(807,549,o),
(678,549,cs),
(619,549,o),
(559,531,o),
(513,500,c),
(481,533,o),
(429,549,o),
(352,549,cs),
(200,549,o),
(114,499,o),
(84,362,c),
(215,362,l),
(232,417,o),
(263,437,o),
(327,437,cs),
(378,437,o),
(400,424,o),
(400,394,cs),
(400,352,o),
(362,335,o),
(327,328,cs),
(308,325,o),
(277,320,o),
(216,311,cs),
(92,291,o),
(15,213,o),
(15,113,cs),
(15,32,o),
(75,-9,o),
(172,-9,cs),
(264,-9,o),
(318,16,o),
(388,91,c),
(416,27,o),
(481,-9,o),
(569,-9,cs),
(689,-9,o),
(798,59,o),
(848,152,c),
(710,152,l),
(693,128,o),
(648,103,o),
(599,103,cs),
(542,103,o),
(503,138,o),
(500,175,c),
(500,189,o),
(501,200,o),
(507,226,c)
);
},
{
closed = 1;
nodes = (
(367,230,ls),
(350,148,o),
(300,103,o),
(231,103,cs),
(185,103,o),
(158,113,o),
(158,146,cs),
(158,214,o),
(220,222,o),
(325,241,c),
(355,244,o),
(355,246,o),
(372,254,c)
);
},
{
closed = 1;
nodes = (
(528,319,l),
(549,396,o),
(595,437,o),
(659,437,cs),
(713,437,o),
(744,404,o),
(744,346,cs),
(744,337,o),
(744,328,o),
(744,319,c)
);
}
);
width = 889;
},
{
layerId = "294D04AE-F7F3-48C8-8CA3-B1C092BC12BA";
shapes = (
{
closed = 1;
nodes = (
(848,234,l),
(857,289,o),
(865,338,o),
(865,370,cs),
(865,462,o),
(780,539,o),
(678,539,cs),
(610,539,o),
(541,514,o),
(496,474,c),
(480,511,o),
(410,539,o),
(337,539,cs),
(198,539,o),
(127,500,o),
(91,369,c),
(175,369,l),
(196,435,o),
(237,462,o),
(316,462,cs),
(380,462,o),
(420,440,o),
(420,405,cs),
(420,326,o),
(373,316,o),
(301,304,cs),
(252,296,o),
(199,288,o),
(172,282,cs),
(77,262,o),
(9,192,o),
(9,105,cs),
(9,27,o),
(66,-15,o),
(153,-15,cs),
(240,-15,o),
(327,22,o),
(394,87,c),
(433,17,o),
(488,-15,o),
(568,-15,cs),
(689,-15,o),
(791,58,o),
(821,159,c),
(737,159,l),
(703,98,o),
(650,62,o),
(584,62,cs),
(503,62,o),
(459,120,o),
(457,163,c),
(457,198,o),
(457,212,o),
(462,234,c)
);
},
{
closed = 1;
nodes = (
(373,172,ls),
(360,112,o),
(273,57,o),
(189,57,cs),
(131,57,o),
(98,76,o),
(98,119,cs),
(98,212,o),
(168,206,o),
(343,243,c),
(361,247,o),
(372,250,o),
(391,257,c)
);
},
{
closed = 1;
nodes = (
(480,306,l),
(511,404,o),
(579,462,o),
(662,462,cs),
(733,462,o),
(777,413,o),
(777,339,cs),
(777,328,o),
(776,321,o),
(774,306,c)
);
}
);
width = 889;
},
{
layerId = "9C58397D-E5DA-4355-9ABE-2EAD22125FE9";
shapes = (
{
closed = 1;
nodes = (
(840,237,l),
(854,296,o),
(857,349,o),
(857,378,cs),
(857,464,o),
(769,536,o),
(679,536,cs),
(607,536,o),
(534,508,o),
(489,464,c),
(480,503,o),
(402,536,o),
(331,536,cs),
(198,536,o),
(133,501,o),
(94,372,c),
(159,372,l),
(182,443,o),
(227,473,o),
(312,473,cs),
(382,473,o),
(429,448,o),
(429,410,cs),
(429,314,o),
(388,301,o),
(290,286,cs),
(228,276,o),
(167,262,o),
(155,259,cs),
(71,238,o),
(7,184,o),
(7,102,cs),
(7,26,o),
(63,-17,o),
(145,-17,cs),
(263,-17,o),
(361,22,o),
(397,85,c),
(440,13,o),
(491,-17,o),
(568,-17,cs),
(690,-17,o),
(788,58,o),
(810,162,c),
(749,162,l),
(708,86,o),
(652,46,o),
(578,46,cs),
(487,46,o),
(442,113,o),
(440,158,c),
(440,202,o),
(440,217,o),
(444,237,c)
);
},
{
closed = 1;
nodes = (
(376,148,ls),
(362,83,o),
(288,44,o),
(172,44,cs),
(109,44,o),
(74,65,o),
(74,108,cs),
(74,211,o),
(147,199,o),
(351,244,c),
(364,248,o),
(379,251,o),
(399,258,c)
);
},
{
closed = 1;
nodes = (
(461,301,l),
(496,408,o),
(573,473,o),
(664,473,cs),
(742,473,o),
(791,417,o),
(791,337,cs),
(791,325,o),
(790,319,o),
(787,301,c)
);
}
);
width = 889;
}
);
},
{
glyphname = cedilla.dup;
layers = (
{
layerId = "913D8FE6-1CE1-42B9-B98D-9294EEB74CA2";
shapes = (
{
closed = 1;
nodes = (
(179,-230,o),
(238,-187,o),
(238,-123,cs),
(238,-86,o),
(217,-56,o),
(176,-56,cs),
(137,-56,l),
(175,1,l),
(111,1,l),
(55,-84,l),
(73,-104,l),
(78,-101,o),
(89,-98,o),
(96,-98,cs),
(127,-98,o),
(147,-119,o),
(147,-138,cs),
(147,-158,o),
(115,-169,o),
(77,-169,cs),
(49,-169,o),
(27,-170,o),
(-23,-146,c),
(-54,-203,l),
(4,-224,o),
(38,-230,o),
(86,-230,cs)
);
}
);
width = 333;
},
{
layerId = "302A00D6-A4BF-4816-9BF8-9304575F20B5";
shapes = (
{
closed = 1;
nodes = (
(170,-230,o),
(230,-188,o),
(230,-123,cs),
(230,-87,o),
(206,-56,o),
(166,-56,cs),
(133,-56,l),
(169,2,l),
(109,2,l),
(55,-87,l),
(74,-102,l),
(81,-99,o),
(92,-97,o),
(99,-97,cs),
(125,-97,o),
(143,-116,o),
(143,-136,cs),
(143,-160,o),
(113,-175,o),
(75,-175,cs),
(47,-175,o),
(24,-173,o),
(-23,-150,c),
(-53,-201,l),
(3,-223,o),
(35,-230,o),
(80,-230,cs)
);
}
);
width = 333;
},
{
layerId = "294D04AE-F7F3-48C8-8CA3-B1C092BC12BA";
shapes = (
{
closed = 1;
nodes = (
(153,-230,o),
(214,-190,o),
(214,-121,cs),
(214,-87,o),
(184,-54,o),
(147,-54,cs),
(126,-54,l),
(157,5,l),
(106,5,l),
(55,-92,l),
(78,-98,l),
(87,-95,o),
(98,-94,o),
(105,-94,cs),
(122,-94,o),
(136,-109,o),
(136,-132,cs),
(136,-164,o),
(110,-187,o),
(73,-187,cs),
(45,-187,o),
(20,-179,o),
(-21,-158,c),
(-49,-196,l),
(2,-222,o),
(31,-230,o),
(69,-230,cs)
);
}
);
width = 333;
},
{
layerId = "9C58397D-E5DA-4355-9ABE-2EAD22125FE9";
shapes = (
{
closed = 1;
nodes = (
(143,-230,o),
(205,-191,o),
(205,-120,cs),
(205,-87,o),
(172,-53,o),
(136,-53,cs),
(122,-53,l),
(151,7,l),
(104,7,l),
(55,-94,l),
(80,-95,l),
(90,-92,o),
(101,-92,o),
(108,-92,cs),
(120,-92,o),
(132,-105,o),
(132,-129,cs),
(132,-167,o),
(108,-194,o),
(71,-194,cs),
(43,-194,o),
(18,-183,o),
(-20,-162,c),
(-47,-194,l),
(1,-221,o),
(29,-230,o),
(63,-230,cs)
);
}
);
width = 333;
}
);
},
{
glyphname = circumflex.dup;
layers = (
{
layerId = "913D8FE6-1CE1-42B9-B98D-9294EEB74CA2";
shapes = (
{
closed = 1;
nodes = (
(443,607,l),
(368,763,l),
(226,763,l),
(80,607,l),
(176,607,l),
(271,673,l),
(342,607,l)
);
}
);
width = 333;
},
{
layerId = "302A00D6-A4BF-4816-9BF8-9304575F20B5";
shapes = (
{
closed = 1;
nodes = (
(423,598,l),
(352,752,l),
(225,752,l),
(85,598,l),
(171,598,l),
(269,675,l),
(335,598,l)
);
}
);
width = 333;
},
{
layerId = "294D04AE-F7F3-48C8-8CA3-B1C092BC12BA";
shapes = (
{
closed = 1;
nodes = (
(383,580,l),
(319,730,l),
(224,730,l),
(96,580,l),
(160,580,l),
(264,679,l),
(320,580,l)
);
}
);
width = 333;
},
{
layerId = "9C58397D-E5DA-4355-9ABE-2EAD22125FE9";
shapes = (
{
closed = 1;
nodes = (
(366,573,l),
(306,721,l),
(224,721,l),
(101,573,l),
(156,573,l),
(262,681,l),
(314,573,l)
);
}
);
width = 333;
}
);
},
{
glyphname = dieresis.dup;
layers = (
{
layerId = "913D8FE6-1CE1-42B9-B98D-9294EEB74CA2";
shapes = (
{
closed = 1;
nodes = (
(230,625,l),
(256,747,l),
(113,747,l),
(87,625,l)
);
},
{
closed = 1;
nodes = (
(441,625,l),
(468,747,l),
(324,747,l),
(298,625,l)
);
}
);
width = 333;
},
{
layerId = "302A00D6-A4BF-4816-9BF8-9304575F20B5";
shapes = (
{
closed = 1;
nodes = (
(223,618,l),
(248,733,l),
(122,733,l),
(97,618,l)
);
},
{
closed = 1;
nodes = (
(418,618,l),
(443,733,l),
(317,733,l),
(292,618,l)
);
}
);
width = 333;
},
{
layerId = "294D04AE-F7F3-48C8-8CA3-B1C092BC12BA";
shapes = (
{
closed = 1;
nodes = (
(209,604,l),
(231,706,l),
(140,706,l),
(118,604,l)
);
},
{
closed = 1;
nodes = (
(371,604,l),
(393,706,l),
(302,706,l),
(280,604,l)
);
}
);
width = 333;
},
{
layerId = "9C58397D-E5DA-4355-9ABE-2EAD22125FE9";
shapes = (
{
closed = 1;
nodes = (
(203,598,l),
(224,695,l),
(147,695,l),
(127,598,l)
);
},
{
closed = 1;
nodes = (
(352,598,l),
(372,695,l),
(296,695,l),
(275,598,l)
);
}
);
width = 333;
}
);
},
{
glyphname = l.script.dup;
layers = (
{
layerId = "913D8FE6-1CE1-42B9-B98D-9294EEB74CA2";
shapes = (
{
closed = 1;
nodes = (
(420,146,l),
(405,126,o),
(375,113,o),
(360,113,cs),
(326,113,o),
(304,122,o),
(308,142,cs),
(338,280,l),
(450,369,o),
(543,460,o),
(572,585,cs),
(574,593,o),
(574,602,o),
(574,608,cs),
(574,680,o),
(516,729,o),
(439,729,cs),
(352,729,o),
(261,667,o),
(243,583,cs),
(180,282,l),
(133,248,o),
(86,217,o),
(41,182,c),
(100,100,l),
(147,133,l),
(145,122,ls),
(143,113,o),
(142,104,o),
(142,96,cs),
(142,24,o),
(208,-23,o),
(291,-23,cs),
(361,-23,o),
(434,13,o),
(485,73,c)
);
},
{
closed = 1;
nodes = (
(435,522,o),
(403,470,o),
(360,423,c),
(390,563,l),
(396,587,o),
(402,621,o),
(429,621,cs),
(451,621,o),
(449,598,o),
(448,583,c)
);
}
);
width = 544;
},
{
layerId = "302A00D6-A4BF-4816-9BF8-9304575F20B5";
shapes = (
{
closed = 1;
nodes = (
(387,130,l),
(369,107,o),
(337,90,o),
(318,90,cs),
(280,90,o),
(261,109,o),
(265,135,c),
(296,281,l),
(404,367,o),
(503,460,o),
(529,582,cs),
(531,592,o),
(532,603,o),
(532,611,cs),
(532,680,o),
(481,729,o),
(409,729,cs),
(327,729,o),
(244,665,o),
(227,583,cs),
(163,280,l),
(119,247,o),
(75,216,o),
(34,182,c),
(85,115,l),
(136,155,l),
(129,122,ls),
(127,112,o),
(126,103,o),
(126,94,cs),
(126,25,o),
(184,-23,o),
(261,-23,cs),
(328,-23,o),
(398,14,o),
(443,73,c)
);
},
{
closed = 1;
nodes = (
(409,513,o),
(369,456,o),
(317,403,c),
(353,569,l),
(360,597,o),
(371,634,o),
(401,634,cs),
(428,634,o),
(426,601,o),
(424,583,c)
);
}
);
width = 503;
},
{
layerId = "294D04AE-F7F3-48C8-8CA3-B1C092BC12BA";
shapes = (
{
closed = 1;
nodes = (
(320,100,l),
(296,68,o),
(260,44,o),
(234,44,cs),
(188,44,o),
(171,83,o),
(179,122,cs),
(213,282,l),
(312,364,o),
(421,462,o),
(442,579,cs),
(444,592,o),
(446,606,o),
(446,619,cs),
(446,680,o),
(410,729,o),
(349,729,cs),
(277,729,o),
(210,660,o),
(194,583,cs),
(129,277,l),
(91,246,o),
(53,215,o),
(19,182,c),
(54,146,l),
(113,199,l),
(96,122,ls),
(94,111,o),
(93,100,o),
(93,90,cs),
(93,26,o),
(134,-23,o),
(201,-23,cs),
(262,-23,o),
(324,15,o),
(357,73,c)
);
},
{
closed = 1;
nodes = (
(357,497,o),
(300,428,o),
(231,364,c),
(277,583,l),
(286,620,o),
(307,662,o),
(343,662,cs),
(382,662,o),
(380,610,o),
(375,583,c)
);
}
);
width = 421;
},
{
layerId = "9C58397D-E5DA-4355-9ABE-2EAD22125FE9";
shapes = (
{
closed = 1;
nodes = (
(296,90,l),
(275,59,o),
(235,25,o),
(200,25,cs),
(145,25,o),
(134,81,o),
(143,122,cs),
(177,283,l),
(272,363,o),
(388,463,o),
(407,577,cs),
(409,592,o),
(412,608,o),
(412,622,cs),
(412,680,o),
(381,729,o),
(325,729,cs),
(258,729,o),
(197,658,o),
(181,583,cs),
(116,276,l),
(80,246,o),
(45,215,o),
(13,182,c),
(42,159,l),
(104,217,l),
(83,122,ls),
(81,111,o),
(80,99,o),
(80,88,cs),
(80,27,o),
(114,-23,o),
(177,-23,cs),
(236,-23,o),
(295,16,o),
(323,73,c)
);
},
{
closed = 1;
nodes = (
(339,485,o),
(271,409,o),
(189,338,c),
(243,592,ls),
(253,636,o),
(281,681,o),
(321,681,cs),
(368,681,o),
(366,616,o),
(359,583,cs)
);
}
);
width = 387;
}
);
},
{
glyphname = Gcedilla;
layers = (
{
layerId = "913D8FE6-1CE1-42B9-B98D-9294EEB74CA2";
shapes = (
{
closed = 1;
nodes = (
(746,380,l),
(471,380,l),
(441,239,l),
(574,239,l),
(541,157,o),
(457,136,o),
(401,136,cs),
(326,136,o),
(253,200,o),
(253,282,cs),
(253,447,o),
(341,563,o),
(471,563,cs),
(559,563,o),
(605,529,o),
(615,470,c),
(769,470,l),
(769,485,o),
(773,498,o),
(773,510,cs),
(773,627,o),
(662,708,o),
(503,708,cs),
(271,708,o),
(85,500,o),
(85,258,cs),
(85,94,o),
(195,-9,o),
(372,-9,cs),
(456,-9,o),
(515,18,o),
(577,93,c),
(563,0,l),
(664,0,l)
);
},
{
closed = 1;
nodes = (
(401,-58,l),
(274,-58,l),
(249,-172,l),
(319,-172,l),
(316,-208,o),
(277,-246,o),
(232,-258,c),
(222,-305,l),
(301,-297,o),
(374,-224,o),
(380,-152,c)
);
}
);
width = 778;
},
{
layerId = "302A00D6-A4BF-4816-9BF8-9304575F20B5";
shapes = (
{
closed = 1;
nodes = (
(741,376,l),
(460,376,l),
(435,256,l),
(594,256,l),
(562,156,o),
(473,111,o),
(388,111,cs),
(294,111,o),
(224,180,o),
(224,278,cs),
(224,452,o),
(328,588,o),
(476,588,cs),
(567,588,o),
(622,548,o),
(629,476,c),
(762,476,l),
(762,488,o),
(764,498,o),
(764,508,cs),
(764,629,o),
(659,711,o),
(503,711,cs),
(264,711,o),
(81,493,o),
(81,257,cs),
(81,90,o),
(190,-12,o),
(359,-12,cs),
(448,-12,o),
(510,14,o),
(581,90,c),
(574,0,l),
(660,0,l)
);
},
{
closed = 1;
nodes = (
(396,-58,l),
(279,-58,l),
(256,-165,l),
(320,-165,l),
(315,-208,o),
(281,-243,o),
(239,-251,c),
(229,-295,l),
(302,-289,o),
(366,-225,o),
(376,-150,c)
);
}
);
width = 778;
},
{
layerId = "294D04AE-F7F3-48C8-8CA3-B1C092BC12BA";
shapes = (
{
closed = 1;
nodes = (
(729,370,l),
(437,370,l),
(420,291,l),
(633,291,l),
(603,153,o),
(504,60,o),
(364,60,cs),
(230,60,o),
(166,138,o),
(166,271,cs),
(166,463,o),
(301,639,o),
(484,639,cs),
(582,639,o),
(655,586,o),
(657,488,c),
(745,488,l),
(745,493,o),
(745,498,o),
(745,504,cs),
(745,632,o),
(652,717,o),
(502,717,cs),
(246,717,o),
(74,480,o),
(74,255,cs),
(74,81,o),
(180,-17,o),
(332,-17,cs),
(431,-17,o),
(499,7,o),
(589,83,c),
(594,0,l),
(651,0,l)
);
},
{
closed = 1;
nodes = (
(385,-58,l),
(289,-58,l),
(268,-152,l),
(321,-152,l),
(311,-208,o),
(288,-236,o),
(250,-236,c),
(243,-273,l),
(303,-273,o),
(349,-226,o),
(366,-147,c)
);
}
);
width = 778;
},
{
layerId = "9C58397D-E5DA-4355-9ABE-2EAD22125FE9";
shapes = (
{
closed = 1;
nodes = (
(725,367,l),
(429,367,l),
(414,305,l),
(650,305,l),
(620,152,o),
(517,41,o),
(354,41,cs),
(204,41,o),
(142,122,o),
(142,268,cs),
(142,467,o),
(291,661,o),
(488,661,cs),
(589,661,o),
(670,602,o),
(669,493,c),
(738,493,l),
(738,496,o),
(738,499,o),
(738,503,cs),
(738,634,o),
(650,721,o),
(502,721,cs),
(240,721,o),
(71,475,o),
(71,254,cs),
(71,78,o),
(177,-19,o),
(321,-19,cs),
(424,-19,o),
(495,4,o),
(593,80,c),
(602,1,l),
(648,1,l)
);
},
{
closed = 1;
nodes = (
(381,-58,l),
(293,-58,l),
(274,-146,l),
(322,-146,l),
(310,-208,o),
(291,-234,o),
(256,-230,c),
(249,-264,l),
(304,-266,o),
(342,-227,o),
(364,-146,c)
);
}
);
width = 778;
}
);
unicode = 290;
},
{
glyphname = gcedilla;
layers = (
{
layerId = "913D8FE6-1CE1-42B9-B98D-9294EEB74CA2";
shapes = (
{
closed = 1;
nodes = (
(505,713,l),
(432,713,l),
(435,751,o),
(476,790,o),
(522,802,c),
(533,852,l),
(451,843,o),
(374,767,o),
(368,692,c),
(346,594,l),
(479,594,l)
);
},
{
closed = 1;
nodes = (
(649,547,l),
(488,547,l),
(469,462,l),
(443,522,o),
(407,553,o),
(348,553,cs),
(181,553,o),
(48,373,o),
(48,177,cs),
(48,66,o),
(126,-6,o),
(228,-6,cs),
(289,-6,o),
(320,9,o),
(388,61,c),
(376,11,l),
(354,-62,o),
(341,-119,o),
(240,-119,cs),
(200,-119,o),
(164,-99,o),
(164,-78,cs),
(164,-75,o),
(166,-71,o),
(166,-67,c),
(-8,-67,l),
(-12,-81,o),
(-12,-89,o),
(-12,-98,cs),
(-12,-174,o),
(70,-218,o),
(214,-218,cs),
(411,-218,o),
(501,-144,o),
(543,51,cs)
);
},
{
closed = 1;
nodes = (
(438,194,o),
(368,126,o),
(294,126,cs),
(249,126,o),
(219,155,o),
(219,219,cs),
(219,334,o),
(289,424,o),
(353,424,cs),
(405,424,o),
(438,376,o),
(438,303,cs)
);
}
);
width = 639;
},
{
layerId = "302A00D6-A4BF-4816-9BF8-9304575F20B5";
shapes = (
{
closed = 1;
nodes = (
(477,701,l),
(410,701,l),
(416,746,o),
(451,782,o),
(495,790,c),
(505,836,l),
(429,830,o),
(362,763,o),
(352,685,c),
(331,589,l),
(453,589,l)
);
},
{
closed = 1;
nodes = (
(616,540,l),
(483,540,l),
(465,457,l),
(438,519,o),
(397,549,o),
(338,549,cs),
(168,549,o),
(40,369,o),
(40,174,cs),
(40,64,o),
(116,-9,o),
(217,-9,cs),
(279,-9,o),
(319,10,o),
(381,62,c),
(372,22,ls),
(352,-64,o),
(324,-128,o),
(218,-128,cs),
(169,-128,o),
(132,-106,o),
(132,-77,cs),
(132,-73,o),
(133,-69,o),
(133,-65,c),
(-11,-65,l),
(-13,-77,o),
(-14,-88,o),
(-14,-96,cs),
(-14,-172,o),
(64,-218,o),
(195,-218,cs),
(384,-218,o),
(470,-145,o),
(514,62,cs)
);
},
{
closed = 1;
nodes = (
(431,193,o),
(358,103,o),
(269,103,cs),
(217,103,o),
(183,139,o),
(183,208,cs),
(183,331,o),
(257,437,o),
(339,437,cs),
(395,437,o),
(431,389,o),
(431,315,cs)
);
}
);
width = 611;
},
{
layerId = "294D04AE-F7F3-48C8-8CA3-B1C092BC12BA";
shapes = (
{
closed = 1;
nodes = (
(423,677,l),
(368,677,l),
(379,736,o),
(403,765,o),
(442,765,c),
(450,803,l),
(387,803,o),
(339,754,o),
(321,672,c),
(302,579,l),
(402,579,l)
);
},
{
closed = 1;
nodes = (
(551,524,l),
(475,524,l),
(458,446,l),
(428,511,o),
(379,539,o),
(319,539,cs),
(144,539,o),
(24,360,o),
(24,169,cs),
(24,60,o),
(95,-15,o),
(197,-15,cs),
(260,-15,o),
(319,12,o),
(369,64,c),
(365,44,ls),
(341,-62,o),
(303,-146,o),
(176,-146,cs),
(108,-146,o),
(68,-119,o),
(68,-74,cs),
(68,-69,o),
(68,-65,o),
(68,-60,c),
(-16,-60,l),
(-16,-70,o),
(-18,-85,o),
(-18,-91,cs),
(-18,-168,o),
(52,-218,o),
(159,-218,cs),
(367,-218,o),
(420,-88,o),
(458,85,cs)
);
},
{
closed = 1;
nodes = (
(419,191,o),
(340,57,o),
(221,57,cs),
(154,57,o),
(112,106,o),
(112,185,cs),
(112,325,o),
(195,462,o),
(313,462,cs),
(377,462,o),
(419,414,o),
(419,339,cs)
);
}
);
width = 556;
},
{
layerId = "9C58397D-E5DA-4355-9ABE-2EAD22125FE9";
shapes = (
{
closed = 1;
nodes = (
(401,667,l),
(351,667,l),
(364,732,o),
(383,759,o),
(420,755,c),
(428,790,l),
(370,792,o),
(330,751,o),
(309,667,c),
(290,575,l),
(381,575,l)
);
},
{
closed = 1;
nodes = (
(524,518,l),
(471,518,l),
(455,442,l),
(423,509,o),
(371,536,o),
(311,536,cs),
(134,536,o),
(17,357,o),
(17,167,cs),
(17,58,o),
(86,-17,o),
(188,-17,cs),
(252,-17,o),
(318,13,o),
(364,65,c),
(362,53,l),
(336,-61,o),
(295,-153,o),
(158,-153,cs),
(83,-153,o),
(41,-124,o),
(41,-73,cs),
(41,-67,o),
(41,-63,o),
(41,-58,c),
(-19,-58,l),
(-18,-67,o),
(-20,-84,o),
(-20,-89,cs),
(-20,-166,o),
(47,-218,o),
(144,-218,cs),
(341,-218,o),
(400,-69,o),
(434,95,cs)
);
},
{
closed = 1;
nodes = (
(414,190,o),
(332,38,o),
(201,38,cs),
(128,38,o),
(83,93,o),
(83,176,cs),
(83,323,o),
(169,473,o),
(302,473,cs),
(369,473,o),
(414,425,o),
(414,349,cs)
);
}
);
width = 534;
}
);
unicode = 291;
},
{
glyphname = germandbls.dup;
layers = (
{
layerId = "913D8FE6-1CE1-42B9-B98D-9294EEB74CA2";
shapes = (
{
closed = 1;
nodes = (
(602,359,o),
(568,405,o),
(507,416,c),
(580,442,o),
(624,506,o),
(624,584,cs),
(624,669,o),
(550,729,o),
(421,729,cs),
(271,729,o),
(174,669,o),
(152,568,cs),
(30,0,l),
(199,0,l),
(313,536,ls),
(322,582,o),
(336,600,o),
(382,600,cs),
(432,600,o),
(454,580,o),
(454,548,cs),
(454,499,o),
(430,451,o),
(342,451,c),
(320,349,l),
(398,349,o),
(431,320,o),
(431,250,cs),
(431,186,o),
(403,109,o),
(307,109,cs),
(299,109,o),
(294,109,o),
(286,111,c),
(259,-16,l),
(294,-21,o),
(304,-24,o),
(320,-24,cs),
(490,-24,o),
(602,97,o),
(602,287,cs)
);
}
);
width = 611;
},
{
layerId = "302A00D6-A4BF-4816-9BF8-9304575F20B5";
shapes = (
{
closed = 1;
nodes = (
(590,348,o),
(554,397,o),
(492,411,c),
(566,437,o),
(614,504,o),
(614,582,cs),
(614,670,o),
(534,729,o),
(412,729,cs),
(272,729,o),
(168,662,o),
(146,558,cs),
(27,0,l),
(167,0,l),
(281,537,ls),
(292,590,o),
(327,617,o),
(382,617,cs),
(437,617,o),
(471,593,o),
(471,552,cs),
(471,493,o),
(424,444,o),
(339,444,c),
(319,349,l),
(404,349,o),
(447,323,o),
(447,251,cs),
(447,172,o),
(390,96,o),
(279,96,cs),
(274,96,o),
(270,96,o),
(265,96,c),
(241,-16,l),
(273,-21,o),
(289,-23,o),
(309,-23,cs),
(453,-23,o),
(590,115,o),
(590,277,c)
);
}
);
width = 611;
},
{
layerId = "294D04AE-F7F3-48C8-8CA3-B1C092BC12BA";
shapes = (
{
closed = 1;
nodes = (
(566,326,o),
(527,382,o),
(461,401,c),
(537,428,o),
(594,501,o),
(594,578,cs),
(594,671,o),
(503,729,o),
(395,729,cs),
(274,729,o),
(157,649,o),
(134,538,cs),
(20,0,l),
(103,0,l),
(217,538,ls),
(231,606,o),
(308,651,o),
(381,651,cs),
(447,651,o),
(505,618,o),
(505,561,cs),
(505,481,o),
(412,431,o),
(333,431,c),
(316,349,l),
(417,349,o),
(479,329,o),
(479,253,cs),
(479,144,o),
(393,62,o),
(297,62,cs),
(272,62,o),
(246,64,o),
(222,67,c),
(204,-16,l),
(231,-19,o),
(259,-20,o),
(287,-20,cs),
(436,-20,o),
(566,108,o),
(566,258,c)
);
}
);
width = 611;
},
{
layerId = "9C58397D-E5DA-4355-9ABE-2EAD22125FE9";
shapes = (
{
closed = 1;
nodes = (
(556,317,o),
(516,376,o),
(448,396,c),
(525,424,o),
(586,500,o),
(586,576,cs),
(586,672,o),
(490,729,o),
(388,729,cs),
(275,729,o),
(153,644,o),
(129,529,cs),
(17,0,l),
(76,0,l),
(190,538,ls),
(206,612,o),
(300,665,o),
(381,665,cs),
(451,665,o),
(519,629,o),
(519,565,cs),
(519,477,o),
(428,417,o),
(325,417,c),
(313,357,l),
(421,357,o),
(492,331,o),
(492,254,cs),
(492,132,o),
(394,48,o),
(304,48,cs),
(271,48,o),
(236,51,o),
(204,55,c),
(189,-16,l),
(213,-18,o),
(246,-19,o),
(278,-19,cs),
(429,-19,o),
(556,98,o),
(556,250,cs)
);
}
);
width = 611;
}
);
},
{
glyphname = hyphen.dup;
layers = (
{
layerId = "913D8FE6-1CE1-42B9-B98D-9294EEB74CA2";
shapes = (
{
closed = 1;
nodes = (
(346,357,l),
(58,357,l),
(22,191,l),
(310,191,l)
);
}
);
width = 333;
},
{
layerId = "302A00D6-A4BF-4816-9BF8-9304575F20B5";
shapes = (
{
closed = 1;
nodes = (
(331,342,l),
(59,342,l),
(30,207,l),
(302,207,l)
);
}
);
width = 333;
},
{
layerId = "294D04AE-F7F3-48C8-8CA3-B1C092BC12BA";
shapes = (
{
closed = 1;
nodes = (
(301,312,l),
(62,312,l),
(47,240,l),
(286,240,l)
);
}
);
width = 333;
},
{
layerId = "9C58397D-E5DA-4355-9ABE-2EAD22125FE9";
shapes = (
{
closed = 1;
nodes = (
(289,300,l),
(64,300,l),
(54,254,l),
(279,254,l)
);
}
);
width = 333;
}
);
},
{
glyphname = Kcedilla;
layers = (
{
layerId = "913D8FE6-1CE1-42B9-B98D-9294EEB74CA2";
shapes = (
{
closed = 1;
nodes = (
(698,0,l),
(458,384,l),
(805,700,l),
(606,700,l),
(309,418,l),
(370,700,l),
(198,700,l),
(50,0,l),
(221,0,l),
(267,218,l),
(325,272,l),
(493,0,l)
);
},
{
closed = 1;
nodes = (
(357,-58,l),
(229,-58,l),
(205,-172,l),
(275,-172,l),
(271,-208,o),
(233,-246,o),
(188,-258,c),
(177,-305,l),
(257,-297,o),
(330,-224,o),
(336,-152,c)
);
}
);
width = 750;
},
{
layerId = "302A00D6-A4BF-4816-9BF8-9304575F20B5";
shapes = (
{
closed = 1;
nodes = (
(664,0,l),
(438,394,l),
(785,700,l),
(614,700,l),
(274,393,l),
(339,700,l),
(195,700,l),
(47,0,l),
(191,0,l),
(239,225,l),
(326,301,l),
(492,0,l)
);
},
{
closed = 1;
nodes = (
(353,-58,l),
(236,-58,l),
(213,-165,l),
(277,-165,l),
(271,-208,o),
(238,-243,o),
(195,-251,c),
(186,-295,l),
(259,-289,o),
(323,-225,o),
(333,-150,c)
);
}
);
width = 722;
},
{
layerId = "294D04AE-F7F3-48C8-8CA3-B1C092BC12BA";
shapes = (
{
closed = 1;
nodes = (
(597,0,l),
(399,414,l),
(745,700,l),
(630,700,l),
(204,342,l),
(280,700,l),
(190,700,l),
(41,0,l),
(131,0,l),
(182,239,l),
(330,361,l),
(491,0,l)
);
},
{
closed = 1;
nodes = (
(345,-58,l),
(249,-58,l),
(229,-152,l),
(282,-152,l),
(271,-208,o),
(248,-236,o),
(211,-236,c),
(203,-273,l),
(264,-273,o),
(310,-226,o),
(327,-147,c)
);
}
);
width = 667;
},
{
layerId = "9C58397D-E5DA-4355-9ABE-2EAD22125FE9";
shapes = (
{
closed = 1;
nodes = (
(570,0,l),
(383,422,l),
(729,700,l),
(637,700,l),
(175,321,l),
(256,700,l),
(188,700,l),
(39,0,l),
(107,0,l),
(159,246,l),
(332,386,l),
(491,0,l)
);
},
{
closed = 1;
nodes = (
(343,-58,l),
(256,-58,l),
(236,-146,l),
(284,-146,l),
(272,-208,o),
(253,-234,o),
(218,-230,c),
(211,-264,l),
(266,-266,o),
(305,-227,o),
(325,-146,c)
);
}
);
width = 645;
}
);
unicode = 310;
},
{
glyphname = kcedilla;
layers = (
{
layerId = "913D8FE6-1CE1-42B9-B98D-9294EEB74CA2";
shapes = (
{
closed = 1;
nodes = (
(536,0,l),
(413,329,l),
(649,548,l),
(465,548,l),
(265,342,l),
(348,729,l),
(179,729,l),
(24,0,l),
(193,0,l),
(228,164,l),
(276,213,l),
(338,0,l)
);
},
{
closed = 1;
nodes = (
(308,-60,l),
(175,-60,l),
(149,-179,l),
(222,-179,l),
(219,-217,o),
(178,-256,o),
(132,-268,c),
(121,-318,l),
(203,-309,o),
(280,-233,o),
(286,-158,c)
);
}
);
width = 584;
},
{
layerId = "302A00D6-A4BF-4816-9BF8-9304575F20B5";
shapes = (
{
closed = 1;
nodes = (
(508,0,l),
(379,334,l),
(611,540,l),
(452,540,l),
(229,330,l),
(314,729,l),
(174,729,l),
(19,0,l),
(159,0,l),
(197,177,l),
(265,239,l),
(344,0,l)
);
},
{
closed = 1;
nodes = (
(284,-60,l),
(162,-60,l),
(138,-172,l),
(205,-172,l),
(199,-217,o),
(164,-253,o),
(120,-261,c),
(110,-307,l),
(186,-301,o),
(253,-234,o),
(263,-156,c)
);
}
);
width = 556;
},
{
layerId = "294D04AE-F7F3-48C8-8CA3-B1C092BC12BA";
shapes = (
{
closed = 1;
nodes = (
(452,0,l),
(312,343,l),
(534,524,l),
(426,524,l),
(157,306,l),
(247,729,l),
(163,729,l),
(8,0,l),
(92,0,l),
(135,203,l),
(242,291,l),
(356,0,l)
);
},
{
closed = 1;
nodes = (
(236,-60,l),
(136,-60,l),
(115,-158,l),
(170,-158,l),
(159,-217,o),
(135,-246,o),
(96,-246,c),
(88,-284,l),
(151,-284,o),
(199,-235,o),
(217,-153,c)
);
}
);
width = 500;
},
{
layerId = "9C58397D-E5DA-4355-9ABE-2EAD22125FE9";
shapes = (
{
closed = 1;
nodes = (
(429,0,l),
(285,347,l),
(503,517,l),
(415,517,l),
(127,296,l),
(220,729,l),
(159,729,l),
(4,0,l),
(65,0,l),
(109,214,l),
(233,312,l),
(361,0,l)
);
},
{
closed = 1;
nodes = (
(216,-60,l),
(125,-60,l),
(106,-152,l),
(156,-152,l),
(142,-217,o),
(123,-244,o),
(86,-240,c),
(79,-275,l),
(137,-277,o),
(177,-236,o),
(198,-152,c)
);
}
);
width = 477;
}
);
unicode = 311;
},
{
glyphname = Lcedilla;
layers = (
{
layerId = "913D8FE6-1CE1-42B9-B98D-9294EEB74CA2";
shapes = (
{
closed = 1;
nodes = (
(587,141,l),
(257,141,l),
(375,700,l),
(205,700,l),
(56,0,l),
(557,0,l)
);
},
{
closed = 1;
nodes = (
(356,-58,l),
(228,-58,l),
(204,-172,l),
(274,-172,l),
(270,-208,o),
(232,-246,o),
(187,-258,c),
(176,-305,l),
(256,-297,o),
(329,-224,o),
(334,-152,c)
);
}
);
width = 639;
},
{
layerId = "302A00D6-A4BF-4816-9BF8-9304575F20B5";
shapes = (
{
closed = 1;
nodes = (
(555,120,l),
(220,120,l),
(343,700,l),
(199,700,l),
(50,0,l),
(529,0,l)
);
},
{
closed = 1;
nodes = (
(335,-58,l),
(217,-58,l),
(194,-165,l),
(259,-165,l),
(253,-208,o),
(219,-243,o),
(177,-251,c),
(168,-295,l),
(240,-289,o),
(305,-225,o),
(314,-150,c)
);
}
);
width = 611;
},
{
layerId = "294D04AE-F7F3-48C8-8CA3-B1C092BC12BA";
shapes = (
{
closed = 1;
nodes = (
(492,79,l),
(146,79,l),
(279,700,l),
(189,700,l),
(40,0,l),
(476,0,l)
);
},
{
closed = 1;
nodes = (
(292,-58,l),
(196,-58,l),
(176,-152,l),
(229,-152,l),
(218,-208,o),
(195,-236,o),
(158,-236,c),
(150,-273,l),
(211,-273,o),
(257,-226,o),
(274,-147,c)
);
}
);
width = 556;
},
{
layerId = "9C58397D-E5DA-4355-9ABE-2EAD22125FE9";
shapes = (
{
closed = 1;
nodes = (
(466,62,l),
(116,62,l),
(253,700,l),
(185,700,l),
(36,0,l),
(454,0,l)
);
},
{
closed = 1;
nodes = (
(275,-58,l),
(189,-58,l),
(169,-146,l),
(217,-146,l),
(205,-208,o),
(186,-234,o),
(151,-230,c),
(144,-264,l),
(199,-266,o),
(238,-227,o),
(258,-146,c)
);
}
);
width = 534;
}
);
unicode = 315;
},
{
glyphname = lcedilla;
layers = (
{
layerId = "913D8FE6-1CE1-42B9-B98D-9294EEB74CA2";
shapes = (
{
closed = 1;
nodes = (
(354,729,l),
(186,729,l),
(31,0,l),
(199,0,l)
);
},
{
closed = 1;
nodes = (
(169,-60,l),
(36,-60,l),
(10,-179,l),
(83,-179,l),
(80,-217,o),
(39,-256,o),
(-7,-268,c),
(-18,-318,l),
(64,-309,o),
(141,-233,o),
(147,-158,c)
);
}
);
width = 306;
},
{
layerId = "302A00D6-A4BF-4816-9BF8-9304575F20B5";
shapes = (
{
closed = 1;
nodes = (
(322,729,l),
(182,729,l),
(27,0,l),
(167,0,l)
);
},
{
closed = 1;
nodes = (
(145,-60,l),
(23,-60,l),
(-1,-172,l),
(66,-172,l),
(60,-217,o),
(25,-253,o),
(-19,-261,c),
(-29,-307,l),
(47,-301,o),
(114,-234,o),
(124,-156,c)
);
}
);
width = 278;
},
{
layerId = "294D04AE-F7F3-48C8-8CA3-B1C092BC12BA";
shapes = (
{
closed = 1;
nodes = (
(257,729,l),
(173,729,l),
(18,0,l),
(102,0,l)
);
},
{
closed = 1;
nodes = (
(97,-60,l),
(-3,-60,l),
(-24,-158,l),
(31,-158,l),
(20,-217,o),
(-4,-246,o),
(-43,-246,c),
(-51,-284,l),
(12,-284,o),
(60,-235,o),
(78,-153,c)
);
}
);
width = 222;
},
{
layerId = "9C58397D-E5DA-4355-9ABE-2EAD22125FE9";
shapes = (
{
closed = 1;
nodes = (
(231,729,l),
(170,729,l),
(15,0,l),
(76,0,l)
);
},
{
closed = 1;
nodes = (
(77,-60,l),
(-14,-60,l),
(-34,-152,l),
(17,-152,l),
(3,-217,o),
(-16,-244,o),
(-53,-240,c),
(-60,-275,l),
(-3,-277,o),
(38,-236,o),
(59,-152,c)
);
}
);
width = 199;
}
);
unicode = 316;
},
{
glyphname = macron.dup;
layers = (
{
layerId = "913D8FE6-1CE1-42B9-B98D-9294EEB74CA2";
shapes = (
{
closed = 1;
nodes = (
(422,642,l),
(439,727,l),
(127,727,l),
(109,642,l)
);
}
);
width = 333;
},
{
layerId = "302A00D6-A4BF-4816-9BF8-9304575F20B5";
shapes = (
{
closed = 1;
nodes = (
(409,635,l),
(426,715,l),
(126,715,l),
(109,635,l)
);
}
);
width = 333;
},
{
layerId = "294D04AE-F7F3-48C8-8CA3-B1C092BC12BA";
shapes = (
{
closed = 1;
nodes = (
(384,621,l),
(399,690,l),
(124,690,l),
(109,621,l)
);
}
);
width = 333;
},
{
layerId = "9C58397D-E5DA-4355-9ABE-2EAD22125FE9";
shapes = (
{
closed = 1;
nodes = (
(374,615,l),
(388,680,l),
(123,680,l),
(109,615,l)
);
}
);
width = 333;
}
);
},
{
glyphname = Ncedilla;
layers = (
{
layerId = "913D8FE6-1CE1-42B9-B98D-9294EEB74CA2";
shapes = (
{
closed = 1;
nodes = (
(771,700,l),
(609,700,l),
(513,244,l),
(356,700,l),
(191,700,l),
(42,0,l),
(204,0,l),
(303,470,l),
(461,0,l),
(622,0,l)
);
},
{
closed = 1;
nodes = (
(382,-58,l),
(254,-58,l),
(229,-172,l),
(299,-172,l),
(296,-208,o),
(257,-246,o),
(213,-258,c),
(202,-305,l),
(281,-297,o),
(355,-224,o),
(360,-152,c)
);
}
);
width = 722;
},
{
layerId = "302A00D6-A4BF-4816-9BF8-9304575F20B5";
shapes = (
{
closed = 1;
nodes = (
(759,700,l),
(623,700,l),
(518,205,l),
(334,700,l),
(190,700,l),
(41,0,l),
(177,0,l),
(284,502,l),
(468,0,l),
(610,0,l)
);
},
{
closed = 1;
nodes = (
(370,-58,l),
(253,-58,l),
(230,-165,l),
(294,-165,l),
(289,-208,o),
(255,-243,o),
(213,-251,c),
(203,-295,l),
(276,-289,o),
(340,-225,o),
(350,-150,c)
);
}
);
width = 722;
},
{
layerId = "294D04AE-F7F3-48C8-8CA3-B1C092BC12BA";
shapes = (
{
closed = 1;
nodes = (
(735,700,l),
(650,700,l),
(528,126,l),
(288,700,l),
(188,700,l),
(39,0,l),
(124,0,l),
(245,567,l),
(484,0,l),
(586,0,l)
);
},
{
closed = 1;
nodes = (
(347,-58,l),
(251,-58,l),
(231,-152,l),
(284,-152,l),
(273,-208,o),
(250,-236,o),
(213,-236,c),
(205,-273,l),
(266,-273,o),
(312,-226,o),
(329,-147,c)
);
}
);
width = 722;
},
{
layerId = "9C58397D-E5DA-4355-9ABE-2EAD22125FE9";
shapes = (
{
closed = 1;
nodes = (
(725,700,l),
(661,700,l),
(531,93,l),
(269,700,l),
(187,700,l),
(38,0,l),
(102,0,l),
(229,594,l),
(491,0,l),
(577,0,l)
);
},
{
closed = 1;
nodes = (
(338,-58,l),
(250,-58,l),
(232,-146,l),
(280,-146,l),
(267,-208,o),
(248,-234,o),
(213,-230,c),
(206,-264,l),
(262,-266,o),
(300,-227,o),
(320,-146,c)
);
}
);
width = 722;
}
);
unicode = 325;
},
{
glyphname = ncedilla;
layers = (
{
layerId = "913D8FE6-1CE1-42B9-B98D-9294EEB74CA2";
shapes = (
{
closed = 1;
nodes = (
(614,355,l),
(618,377,o),
(621,398,o),
(621,418,cs),
(621,501,o),
(561,554,o),
(468,554,cs),
(395,554,o),
(347,527,o),
(292,457,c),
(313,548,l),
(141,548,l),
(24,0,l),
(192,0,l),
(259,311,ls),
(273,379,o),
(314,422,o),
(373,422,cs),
(419,422,o),
(440,399,o),
(440,350,cs),
(440,333,o),
(440,320,o),
(434,295,cs),
(371,0,l),
(539,0,l)
);
},
{
closed = 1;
nodes = (
(335,-60,l),
(202,-60,l),
(177,-179,l),
(250,-179,l),
(247,-217,o),
(206,-256,o),
(159,-268,c),
(149,-318,l),
(231,-309,o),
(307,-233,o),
(314,-158,c)
);
}
);
width = 639;
},
{
layerId = "302A00D6-A4BF-4816-9BF8-9304575F20B5";
shapes = (
{
closed = 1;
nodes = (
(583,362,ls),
(587,381,o),
(589,399,o),
(589,417,cs),
(589,497,o),
(531,549,o),
(442,549,cs),
(368,549,o),
(314,522,o),
(260,458,c),
(278,540,l),
(138,540,l),
(23,0,l),
(163,0,l),
(228,304,ls),
(245,386,o),
(296,437,o),
(365,437,cs),
(413,437,o),
(439,410,o),
(439,362,cs),
(439,349,o),
(438,335,o),
(433,313,cs),
(366,0,l),
(506,0,l)
);
},
{
closed = 1;
nodes = (
(312,-60,l),
(190,-60,l),
(166,-172,l),
(233,-172,l),
(227,-217,o),
(192,-253,o),
(148,-261,c),
(138,-307,l),
(214,-301,o),
(281,-234,o),
(291,-156,c)
);
}
);
width = 611;
},
{
layerId = "294D04AE-F7F3-48C8-8CA3-B1C092BC12BA";
shapes = (
{
closed = 1;
nodes = (
(520,376,ls),
(523,389,o),
(524,401,o),
(524,414,cs),
(524,490,o),
(471,539,o),
(388,539,cs),
(312,539,o),
(246,512,o),
(194,459,c),
(207,524,l),
(131,524,l),
(20,0,l),
(104,0,l),
(165,289,ls),
(188,399,o),
(259,467,o),
(349,467,cs),
(399,467,o),
(436,432,o),
(436,386,cs),
(436,380,o),
(433,365,o),
(430,349,cs),
(356,0,l),
(440,0,l)
);
},
{
closed = 1;
nodes = (
(264,-60,l),
(164,-60,l),
(143,-158,l),
(198,-158,l),
(187,-217,o),
(163,-246,o),
(124,-246,c),
(116,-284,l),
(179,-284,o),
(227,-235,o),
(245,-153,c)
);
}
);
width = 556;
},
{
layerId = "9C58397D-E5DA-4355-9ABE-2EAD22125FE9";
shapes = (
{
closed = 1;
nodes = (
(494,381,l),
(497,392,o),
(497,401,o),
(497,413,cs),
(497,487,o),
(447,534,o),
(366,534,cs),
(289,534,o),
(219,507,o),
(167,459,c),
(178,517,l),
(128,517,l),
(19,0,l),
(80,0,l),
(139,283,ls),
(165,404,o),
(244,479,o),
(343,479,cs),
(394,479,o),
(435,441,o),
(435,396,cs),
(435,393,o),
(431,377,o),
(429,364,c),
(353,0,l),
(413,0,l)
);
},
{
closed = 1;
nodes = (
(245,-60,l),
(154,-60,l),
(134,-152,l),
(184,-152,l),
(171,-217,o),
(151,-244,o),
(115,-240,c),
(108,-275,l),
(165,-277,o),
(205,-236,o),
(227,-152,c)
);
}
);
width = 534;
}
);
unicode = 326;
},
{
glyphname = OE.dup;
layers = (
{
layerId = "913D8FE6-1CE1-42B9-B98D-9294EEB74CA2";
shapes = (
{
closed = 1;
nodes = (
(924,0,l),
(953,141,l),
(620,141,l),
(652,295,l),
(925,295,l),
(955,436,l),
(683,436,l),
(708,559,l),
(1017,559,l),
(1047,700,l),
(576,700,l),
(567,661,l),
(529,698,o),
(496,711,o),
(441,711,cs),
(242,711,o),
(67,476,o),
(67,248,cs),
(67,86,o),
(162,-6,o),
(299,-6,cs),
(353,-6,o),
(387,12,o),
(440,64,c),
(427,0,l)
);
},
{
closed = 1;
nodes = (
(458,185,l),
(429,151,o),
(408,139,o),
(371,139,cs),
(287,139,o),
(235,184,o),
(235,288,cs),
(235,425,o),
(338,566,o),
(449,566,cs),
(488,566,o),
(511,553,o),
(529,518,c)
);
}
);
width = 1000;
},
{
layerId = "302A00D6-A4BF-4816-9BF8-9304575F20B5";
shapes = (
{
closed = 1;
nodes = (
(914,0,l),
(939,120,l),
(608,120,l),
(646,301,l),
(932,301,l),
(958,421,l),
(672,421,l),
(705,580,l),
(1018,580,l),
(1044,700,l),
(592,700,l),
(582,650,l),
(546,694,o),
(508,711,o),
(444,711,cs),
(242,711,o),
(68,480,o),
(68,235,cs),
(68,81,o),
(162,-9,o),
(297,-9,cs),
(362,-9,o),
(404,12,o),
(458,70,c),
(443,0,l)
);
},
{
closed = 1;
nodes = (
(477,184,l),
(440,134,o),
(403,114,o),
(352,114,cs),
(265,114,o),
(211,161,o),
(211,263,cs),
(211,432,o),
(317,588,o),
(444,588,cs),
(498,588,o),
(530,567,o),
(548,518,c)
);
}
);
width = 1000;
},
{
layerId = "294D04AE-F7F3-48C8-8CA3-B1C092BC12BA";
shapes = (
{
closed = 1;
nodes = (
(891,0,l),
(907,79,l),
(581,79,l),
(632,314,l),
(944,314,l),
(962,393,l),
(648,393,l),
(697,621,l),
(1019,621,l),
(1036,700,l),
(623,700,l),
(608,627,l),
(578,685,o),
(528,711,o),
(448,711,cs),
(239,711,o),
(69,489,o),
(69,210,cs),
(69,70,o),
(159,-14,o),
(293,-14,cs),
(376,-14,o),
(437,14,o),
(491,82,c),
(474,0,l)
);
},
{
closed = 1;
nodes = (
(513,182,l),
(459,103,o),
(392,63,o),
(312,63,cs),
(220,63,o),
(161,115,o),
(161,213,cs),
(161,444,o),
(272,634,o),
(433,634,cs),
(517,634,o),
(566,596,o),
(584,517,c)
);
}
);
width = 1000;
},
{
layerId = "9C58397D-E5DA-4355-9ABE-2EAD22125FE9";
shapes = (
{
closed = 1;
nodes = (
(882,0,l),
(895,62,l),
(570,62,l),
(627,320,l),
(950,320,l),
(964,382,l),
(639,382,l),
(694,638,l),
(1021,638,l),
(1033,700,l),
(636,700,l),
(619,618,l),
(592,682,o),
(537,712,o),
(450,712,cs),
(239,712,o),
(70,492,o),
(70,201,cs),
(70,65,o),
(159,-16,o),
(292,-16,cs),
(383,-16,o),
(451,15,o),
(507,87,c),
(487,0,l)
);
},
{
closed = 1;
nodes = (
(529,182,l),
(467,89,o),
(389,43,o),
(296,43,cs),
(202,43,o),
(141,96,o),
(141,193,cs),
(141,450,o),
(254,653,o),
(429,653,cs),
(526,653,o),
(582,609,o),
(600,517,c)
);
}
);
width = 1000;
}
);
},
{
glyphname = oe.dup;
layers = (
{
layerId = "913D8FE6-1CE1-42B9-B98D-9294EEB74CA2";
shapes = (
{
closed = 1;
nodes = (
(942,222,l),
(957,271,o),
(963,323,o),
(963,368,c),
(961,390,o),
(956,412,o),
(947,435,c),
(909,505,o),
(843,553,o),
(744,553,cs),
(672,553,o),
(608,534,o),
(560,497,c),
(524,530,o),
(453,553,o),
(376,553,cs),
(181,553,o),
(33,402,o),
(33,199,cs),
(33,65,o),
(124,-6,o),
(263,-6,cs),
(341,-6,o),
(417,14,o),
(470,50,c),
(496,21,o),
(559,-6,o),
(633,-6,cs),
(751,-6,o),
(864,60,o),
(924,148,c),
(759,148,l),
(750,143,o),
(710,123,o),
(669,123,cs),
(622,123,o),
(589,152,o),
(585,173,c),
(585,184,o),
(585,196,o),
(592,222,c)
);
},
{
closed = 1;
nodes = (
(441,210,o),
(376,123,o),
(296,123,cs),
(241,123,o),
(203,167,o),
(204,234,cs),
(205,349,o),
(270,424,o),
(350,424,cs),
(404,424,o),
(441,379,o),
(441,313,cs)
);
},
{
closed = 1;
nodes = (
(614,325,l),
(633,395,o),
(664,424,o),
(719,424,cs),
(766,424,o),
(790,398,o),
(790,351,cs),
(790,343,o),
(791,332,o),
(791,325,c)
);
}
);
width = 944;
},
{
layerId = "302A00D6-A4BF-4816-9BF8-9304575F20B5";
shapes = (
{
closed = 1;
nodes = (
(928,226,l),
(940,269,o),
(946,313,o),
(946,351,cs),
(946,373,o),
(943,393,o),
(937,413,cs),
(912,492,o),
(840,549,o),
(738,549,cs),
(663,549,o),
(589,522,o),
(543,477,c),
(509,522,o),
(442,549,o),
(363,549,cs),
(168,549,o),
(34,386,o),
(34,190,cs),
(34,67,o),
(117,-9,o),
(251,-9,cs),
(332,-9,o),
(409,18,o),
(461,64,c),
(489,20,o),
(555,-9,o),
(629,-9,cs),
(748,-9,o),
(857,59,o),
(907,152,c),
(769,152,l),
(752,128,o),
(707,103,o),
(658,103,cs),
(601,103,o),
(562,138,o),
(559,174,c),
(559,188,o),
(560,200,o),
(566,226,c)
);
},
{
closed = 1;
nodes = (
(440,200,o),
(369,103,o),
(276,103,cs),
(216,103,o),
(177,149,o),
(177,219,cs),
(177,346,o),
(250,437,o),
(340,437,cs),
(401,437,o),
(440,391,o),
(440,320,cs)
);
},
{
closed = 1;
nodes = (
(587,319,l),
(608,396,o),
(654,437,o),
(718,437,cs),
(772,437,o),
(803,404,o),
(803,347,cs),
(803,338,o),
(803,328,o),
(803,319,c)
);
}
);
width = 944;
},
{
layerId = "294D04AE-F7F3-48C8-8CA3-B1C092BC12BA";
shapes = (
{
closed = 1;
nodes = (
(899,234,l),
(904,264,o),
(910,292,o),
(912,317,cs),
(914,337,o),
(916,354,o),
(916,368,cs),
(916,464,o),
(833,539,o),
(725,539,cs),
(643,539,o),
(551,495,o),
(508,436,c),
(479,503,o),
(420,539,o),
(336,539,cs),
(144,539,o),
(37,353,o),
(37,173,cs),
(37,69,o),
(104,-15,o),
(227,-15,cs),
(314,-15,o),
(393,25,o),
(443,92,c),
(474,17,o),
(547,-15,o),
(619,-15,cs),
(740,-15,o),
(842,58,o),
(872,159,c),
(788,159,l),
(754,98,o),
(701,62,o),
(635,62,cs),
(557,62,o),
(508,110,o),
(506,176,c),
(506,196,o),
(508,208,o),
(513,234,c)
);
},
{
closed = 1;
nodes = (
(437,180,o),
(354,62,o),
(237,62,cs),
(168,62,o),
(126,111,o),
(125,189,cs),
(124,338,o),
(211,462,o),
(321,462,cs),
(393,462,o),
(437,414,o),
(437,334,cs)
);
},
{
closed = 1;
nodes = (
(531,306,l),
(557,398,o),
(632,462,o),
(714,462,cs),
(783,462,o),
(828,414,o),
(828,338,cs),
(828,328,o),
(827,320,o),
(825,306,c)
);
}
);
width = 944;
},
{
layerId = "9C58397D-E5DA-4355-9ABE-2EAD22125FE9";
shapes = (
{
closed = 1;
nodes = (
(888,237,l),
(890,262,o),
(896,284,o),
(899,304,cs),
(902,323,o),
(906,338,o),
(908,350,c),
(919,453,o),
(831,536,o),
(720,536,cs),
(635,536,o),
(536,484,o),
(493,420,c),
(467,496,o),
(412,536,o),
(325,536,cs),
(136,536,o),
(39,340,o),
(39,166,cs),
(39,70,o),
(100,-17,o),
(218,-17,cs),
(308,-17,o),
(387,29,o),
(436,104,c),
(468,17,o),
(544,-17,o),
(615,-17,cs),
(738,-17,o),
(836,59,o),
(858,162,c),
(796,162,l),
(756,86,o),
(699,46,o),
(626,46,cs),
(539,46,o),
(486,99,o),
(484,177,c),
(484,199,o),
(487,211,o),
(491,237,c)
);
},
{
closed = 1;
nodes = (
(436,172,o),
(348,46,o),
(222,46,cs),
(150,46,o),
(106,96,o),
(105,177,cs),
(103,336,o),
(196,473,o),
(314,473,cs),
(390,473,o),
(436,424,o),
(436,341,cs)
);
},
{
closed = 1;
nodes = (
(508,301,l),
(536,400,o),
(624,473,o),
(713,473,cs),
(788,473,o),
(839,419,o),
(839,335,cs),
(839,325,o),
(838,318,o),
(835,301,c)
);
}
);
width = 944;
}
);
},
{
glyphname = Oslash.dup;
layers = (
{
layerId = "913D8FE6-1CE1-42B9-B98D-9294EEB74CA2";
shapes = (
{
closed = 1;
nodes = (
(833,627,l),
(760,708,l),
(691,647,l),
(645,686,o),
(579,708,o),
(499,708,cs),
(372,708,o),
(277,661,o),
(194,556,cs),
(125,466,o),
(86,357,o),
(86,255,cs),
(86,211,o),
(95,172,o),
(109,137,c),
(34,72,l),
(106,-9,l),
(173,51,l),
(220,12,o),
(287,-9,o),
(366,-9,cs),
(492,-9,o),
(580,25,o),
(669,134,c),
(737,222,o),
(777,325,o),
(777,429,cs),
(777,478,o),
(770,521,o),
(755,558,c)
);
},
{
closed = 1;
nodes = (
(609,250,o),
(511,136,o),
(394,136,cs),
(357,136,o),
(326,147,o),
(302,164,c),
(611,433,l),
(610,425,o),
(609,419,o),
(609,412,cs)
);
},
{
closed = 1;
nodes = (
(251,263,l),
(254,270,o),
(254,276,o),
(254,282,cs),
(254,435,o),
(354,563,o),
(477,563,cs),
(512,563,o),
(540,553,o),
(562,536,c)
);
}
);
width = 778;
},
{
layerId = "302A00D6-A4BF-4816-9BF8-9304575F20B5";
shapes = (
{
closed = 1;
nodes = (
(830,644,l),
(771,711,l),
(694,644,l),
(647,687,o),
(579,711,o),
(494,711,cs),
(374,711,o),
(279,665,o),
(199,570,cs),
(124,481,o),
(80,367,o),
(80,256,cs),
(80,207,o),
(90,164,o),
(107,128,c),
(25,56,l),
(84,-12,l),
(160,56,l),
(208,12,o),
(276,-12,o),
(359,-12,cs),
(482,-12,o),
(572,27,o),
(655,125,cs),
(729,212,o),
(772,324,o),
(772,437,cs),
(772,488,o),
(764,533,o),
(747,570,c)
);
},
{
closed = 1;
nodes = (
(629,248,o),
(521,111,o),
(382,111,cs),
(336,111,o),
(297,126,o),
(269,152,c),
(626,465,l),
(628,450,o),
(629,436,o),
(629,420,cs)
);
},
{
closed = 1;
nodes = (
(227,233,l),
(225,247,o),
(223,261,o),
(223,276,cs),
(223,443,o),
(333,588,o),
(476,588,cs),
(522,588,o),
(558,574,o),
(584,548,c)
);
}
);
width = 778;
},
{
layerId = "294D04AE-F7F3-48C8-8CA3-B1C092BC12BA";
shapes = (
{
closed = 1;
nodes = (
(826,678,l),
(792,717,l),
(700,636,l),
(652,688,o),
(579,717,o),
(484,717,cs),
(379,717,o),
(283,671,o),
(210,598,cs),
(123,511,o),
(69,386,o),
(69,257,cs),
(69,198,o),
(80,148,o),
(102,108,c),
(6,22,l),
(41,-17,l),
(133,64,l),
(181,11,o),
(254,-17,o),
(344,-17,cs),
(460,-17,o),
(556,30,o),
(628,104,cs),
(715,192,o),
(764,320,o),
(764,451,cs),
(764,507,o),
(752,555,o),
(731,593,c)
);
},
{
closed = 1;
nodes = (
(672,243,o),
(541,60,o),
(357,60,cs),
(292,60,o),
(239,84,o),
(203,127,c),
(655,527,l),
(666,500,o),
(672,469,o),
(672,434,cs)
);
},
{
closed = 1;
nodes = (
(177,173,l),
(167,200,o),
(161,230,o),
(161,265,cs),
(161,457,o),
(291,639,o),
(473,639,cs),
(541,639,o),
(595,616,o),
(629,573,c)
);
}
);
width = 778;
},
{
layerId = "9C58397D-E5DA-4355-9ABE-2EAD22125FE9";
shapes = (
{
closed = 1;
nodes = (
(824,693,l),
(800,721,l),
(703,635,l),
(653,689,o),
(579,721,o),
(480,721,cs),
(381,721,o),
(284,675,o),
(215,610,cs),
(122,524,o),
(64,395,o),
(64,259,cs),
(64,195,o),
(77,142,o),
(100,101,c),
(-1,9,l),
(24,-19,l),
(122,69,l),
(170,12,o),
(245,-19,o),
(339,-19,cs),
(451,-19,o),
(550,32,o),
(617,97,cs),
(709,184,o),
(760,320,o),
(760,458,cs),
(760,516,o),
(747,565,o),
(725,604,c)
);
},
{
closed = 1;
nodes = (
(689,242,o),
(550,41,o),
(346,41,cs),
(273,41,o),
(215,67,o),
(176,118,c),
(668,554,l),
(681,522,o),
(689,484,o),
(689,441,cs)
);
},
{
closed = 1;
nodes = (
(156,149,l),
(143,182,o),
(135,219,o),
(135,262,cs),
(135,464,o),
(272,661,o),
(472,661,cs),
(549,661,o),
(610,635,o),
(648,585,c)
);
}
);
width = 778;
}
);
},
{
glyphname = oslash.dup;
layers = (
{
layerId = "913D8FE6-1CE1-42B9-B98D-9294EEB74CA2";
shapes = (
{
closed = 1;
nodes = (
(665,472,l),
(599,550,l),
(552,512,l),
(512,539,o),
(458,553,o),
(393,553,cs),
(194,553,o),
(49,404,o),
(49,191,cs),
(49,162,o),
(54,136,o),
(64,112,c),
(16,75,l),
(81,-3,l),
(127,34,l),
(166,8,o),
(219,-6,o),
(283,-6,cs),
(489,-6,o),
(629,135,o),
(629,347,cs),
(629,378,o),
(624,407,o),
(613,433,c)
);
},
{
closed = 1;
nodes = (
(458,207,o),
(394,123,o),
(313,123,cs),
(290,123,o),
(271,128,o),
(255,139,c),
(460,303,l),
(459,307,o),
(458,308,o),
(458,313,c)
);
},
{
closed = 1;
nodes = (
(217,241,l),
(220,260,o),
(221,277,o),
(224,292,c),
(248,376,o),
(306,424,o),
(366,424,cs),
(388,424,o),
(407,416,o),
(422,404,c)
);
}
);
width = 611;
},
{
layerId = "302A00D6-A4BF-4816-9BF8-9304575F20B5";
shapes = (
{
closed = 1;
nodes = (
(632,482,l),
(577,546,l),
(527,503,l),
(489,533,o),
(437,549,o),
(373,549,cs),
(178,549,o),
(43,392,o),
(43,184,cs),
(43,153,o),
(49,126,o),
(59,102,c),
(7,58,l),
(62,-6,l),
(111,36,l),
(148,7,o),
(200,-9,o),
(262,-9,cs),
(460,-9,o),
(594,138,o),
(594,349,cs),
(594,381,o),
(588,410,o),
(577,436,c)
);
},
{
closed = 1;
nodes = (
(451,200,o),
(380,103,o),
(287,103,cs),
(259,103,o),
(235,111,o),
(218,127,c),
(451,327,l),
(451,325,o),
(451,322,o),
(451,320,cs)
);
},
{
closed = 1;
nodes = (
(186,211,l),
(186,227,o),
(187,243,o),
(189,258,cs),
(205,362,o),
(272,437,o),
(351,437,cs),
(379,437,o),
(402,427,o),
(419,410,c)
);
}
);
width = 611;
},
{
layerId = "294D04AE-F7F3-48C8-8CA3-B1C092BC12BA";
shapes = (
{
closed = 1;
nodes = (
(569,501,l),
(535,536,l),
(478,482,l),
(445,518,o),
(396,539,o),
(334,539,cs),
(146,539,o),
(31,366,o),
(31,168,cs),
(31,135,o),
(38,106,o),
(50,81,c),
(-11,23,l),
(23,-12,l),
(79,40,l),
(112,5,o),
(162,-15,o),
(221,-15,cs),
(403,-15,o),
(526,144,o),
(526,352,cs),
(526,385,o),
(519,415,o),
(506,442,c)
);
},
{
closed = 1;
nodes = (
(438,184,o),
(354,62,o),
(235,62,cs),
(196,62,o),
(164,76,o),
(144,102,c),
(434,374,l),
(437,361,o),
(438,348,o),
(438,333,cs)
);
},
{
closed = 1;
nodes = (
(123,149,l),
(119,160,o),
(119,174,o),
(119,188,cs),
(119,333,o),
(203,462,o),
(321,462,cs),
(361,462,o),
(393,448,o),
(413,421,c)
);
}
);
width = 611;
},
{
layerId = "9C58397D-E5DA-4355-9ABE-2EAD22125FE9";
shapes = (
{
closed = 1;
nodes = (
(544,510,l),
(519,533,l),
(458,474,l),
(427,512,o),
(379,536,o),
(318,536,cs),
(133,536,o),
(26,356,o),
(26,163,cs),
(26,129,o),
(34,99,o),
(47,73,c),
(-18,9,l),
(7,-14,l),
(66,43,l),
(97,5,o),
(146,-17,o),
(204,-17,cs),
(380,-17,o),
(499,148,o),
(499,354,cs),
(499,388,o),
(491,418,o),
(477,446,c)
);
},
{
closed = 1;
nodes = (
(433,179,o),
(343,46,o),
(213,46,cs),
(170,46,o),
(135,62,o),
(113,93,c),
(427,394,l),
(431,377,o),
(433,360,o),
(433,339,cs)
);
},
{
closed = 1;
nodes = (
(97,125,l),
(92,133,o),
(91,146,o),
(90,160,cs),
(83,322,o),
(175,473,o),
(309,473,cs),
(354,473,o),
(390,457,o),
(410,426,c)
);
}
);
width = 611;
}
);
},
{
glyphname = quoteleft.dup;
layers = (
{
layerId = "913D8FE6-1CE1-42B9-B98D-9294EEB74CA2";
shapes = (
{
closed = 1;
nodes = (
(320,601,l),
(221,601,l),
(230,646,o),
(268,677,o),
(335,690,c),
(346,739,l),
(244,730,o),
(171,669,o),
(158,578,c),
(134,465,l),
(290,465,l)
);
}
);
width = 306;
},
{
layerId = "302A00D6-A4BF-4816-9BF8-9304575F20B5";
shapes = (
{
closed = 1;
nodes = (
(289,594,l),
(208,594,l),
(217,644,o),
(249,673,o),
(307,683,c),
(317,729,l),
(228,722,o),
(164,665,o),
(150,578,c),
(127,469,l),
(262,469,l)
);
}
);
width = 278;
},
{
layerId = "294D04AE-F7F3-48C8-8CA3-B1C092BC12BA";
shapes = (
{
closed = 1;
nodes = (
(228,580,l),
(181,580,l),
(192,640,o),
(212,666,o),
(250,670,c),
(258,709,l),
(197,705,o),
(151,658,o),
(134,577,c),
(113,477,l),
(206,477,l)
);
}
);
width = 222;
},
{
layerId = "9C58397D-E5DA-4355-9ABE-2EAD22125FE9";
shapes = (
{
closed = 1;
nodes = (
(203,574,l),
(170,574,l),
(182,638,o),
(197,664,o),
(227,665,c),
(234,701,l),
(185,699,o),
(146,656,o),
(127,577,c),
(107,480,l),
(183,480,l)
);
}
);
width = 199;
}
);
},
{
glyphname = quoteright.dup;
layers = (
{
layerId = "913D8FE6-1CE1-42B9-B98D-9294EEB74CA2";
shapes = (
{
closed = 1;
nodes = (
(344,739,l),
(187,739,l),
(158,603,l),
(256,603,l),
(247,557,o),
(209,527,o),
(140,515,c),
(129,465,l),
(240,473,o),
(311,533,o),
(321,626,c)
);
}
);
width = 306;
},
{
layerId = "302A00D6-A4BF-4816-9BF8-9304575F20B5";
shapes = (
{
closed = 1;
nodes = (
(316,729,l),
(180,729,l),
(153,604,l),
(234,604,l),
(225,554,o),
(193,525,o),
(135,515,c),
(125,469,l),
(219,476,o),
(281,532,o),
(293,620,c)
);
}
);
width = 278;
},
{
layerId = "294D04AE-F7F3-48C8-8CA3-B1C092BC12BA";
shapes = (
{
closed = 1;
nodes = (
(259,708,l),
(165,708,l),
(143,605,l),
(191,605,l),
(181,548,o),
(160,520,o),
(124,515,c),
(116,477,l),
(177,481,o),
(221,529,o),
(238,608,c)
);
}
);
width = 222;
},
{
layerId = "9C58397D-E5DA-4355-9ABE-2EAD22125FE9";
shapes = (
{
closed = 1;
nodes = (
(236,700,l),
(159,700,l),
(139,606,l),
(174,606,l),
(163,545,o),
(147,518,o),
(120,515,c),
(113,480,l),
(160,483,o),
(196,528,o),
(216,603,c)
);
}
);
width = 199;
}
);
},
{
glyphname = Rcedilla;
layers = (
{
layerId = "913D8FE6-1CE1-42B9-B98D-9294EEB74CA2";
shapes = (
{
closed = 1;
nodes = (
(636,28,l),
(624,36,o),
(620,41,o),
(620,52,cs),
(620,54,o),
(620,61,o),
(622,65,c),
(648,209,o),
(652,234,o),
(652,262,cs),
(652,296,o),
(621,324,o),
(568,334,c),
(695,393,o),
(741,465,o),
(741,557,cs),
(741,630,o),
(673,700,o),
(581,700,cs),
(200,700,l),
(51,0,l),
(221,0,l),
(277,265,l),
(411,265,ls),
(462,265,o),
(485,252,o),
(485,222,cs),
(485,213,o),
(482,204,o),
(471,163,cs),
(456,112,o),
(442,59,o),
(445,37,c),
(445,27,o),
(448,17,o),
(455,0,c),
(629,0,l)
);
},
{
closed = 1;
nodes = (
(573,441,o),
(521,406,o),
(458,406,cs),
(308,406,l),
(340,559,l),
(471,559,ls),
(546,559,o),
(573,534,o),
(573,501,cs)
);
},
{
closed = 1;
nodes = (
(358,-58,l),
(230,-58,l),
(205,-172,l),
(275,-172,l),
(271,-208,o),
(233,-246,o),
(189,-258,c),
(177,-305,l),
(257,-297,o),
(331,-224,o),
(336,-152,c)
);
}
);
width = 722;
},
{
layerId = "302A00D6-A4BF-4816-9BF8-9304575F20B5";
shapes = (
{
closed = 1;
nodes = (
(631,26,l),
(619,36,o),
(614,45,o),
(614,59,cs),
(614,64,o),
(615,74,o),
(617,84,cs),
(639,202,o),
(644,235,o),
(644,259,cs),
(644,296,o),
(619,322,o),
(569,338,c),
(683,394,o),
(729,461,o),
(729,556,cs),
(729,638,o),
(665,700,o),
(563,700,cs),
(201,700,l),
(52,0,l),
(196,0,l),
(255,277,l),
(420,277,ls),
(475,277,o),
(502,260,o),
(502,225,cs),
(502,213,o),
(499,201,o),
(490,166,cs),
(472,100,o),
(463,64,o),
(465,39,c),
(465,28,o),
(467,18,o),
(473,0,c),
(626,0,l)
);
},
{
closed = 1;
nodes = (
(586,444,o),
(533,397,o),
(455,397,cs),
(281,397,l),
(319,580,l),
(481,580,ls),
(558,580,o),
(586,553,o),
(586,513,cs)
);
},
{
closed = 1;
nodes = (
(348,-58,l),
(231,-58,l),
(208,-165,l),
(272,-165,l),
(266,-208,o),
(233,-243,o),
(191,-251,c),
(181,-295,l),
(254,-289,o),
(318,-225,o),
(328,-150,c)
);
}
);
width = 722;
},
{
layerId = "294D04AE-F7F3-48C8-8CA3-B1C092BC12BA";
shapes = (
{
closed = 1;
nodes = (
(623,22,l),
(610,34,o),
(602,52,o),
(602,73,cs),
(602,84,o),
(604,101,o),
(608,121,cs),
(621,186,o),
(628,236,o),
(628,253,cs),
(628,296,o),
(616,316,o),
(571,346,c),
(660,396,o),
(705,454,o),
(705,552,cs),
(705,654,o),
(650,700,o),
(527,700,cs),
(204,700,l),
(55,0,l),
(146,0,l),
(210,301,l),
(439,301,ls),
(501,301,o),
(536,276,o),
(536,229,cs),
(536,213,o),
(533,193,o),
(529,172,cs),
(506,76,o),
(506,76,o),
(506,45,c),
(506,31,o),
(506,20,o),
(509,0,c),
(618,0,l)
);
},
{
closed = 1;
nodes = (
(613,449,o),
(559,380,o),
(448,380,cs),
(226,380,l),
(278,621,l),
(499,621,ls),
(584,621,o),
(613,591,o),
(613,536,cs)
);
},
{
closed = 1;
nodes = (
(330,-58,l),
(234,-58,l),
(214,-152,l),
(266,-152,l),
(256,-208,o),
(233,-236,o),
(195,-236,c),
(188,-273,l),
(248,-273,o),
(294,-226,o),
(312,-147,c)
);
}
);
width = 722;
},
{
layerId = "9C58397D-E5DA-4355-9ABE-2EAD22125FE9";
shapes = (
{
closed = 1;
nodes = (
(620,20,l),
(607,33,o),
(598,55,o),
(598,80,cs),
(598,93,o),
(601,112,o),
(605,137,cs),
(613,180,o),
(622,237,o),
(622,252,cs),
(622,296,o),
(615,314,o),
(572,350,c),
(651,397,o),
(696,452,o),
(696,551,cs),
(696,660,o),
(644,700,o),
(512,700,cs),
(206,700,l),
(57,0,l),
(126,0,l),
(192,312,l),
(448,312,ls),
(512,312,o),
(551,284,o),
(551,232,cs),
(551,213,o),
(548,190,o),
(545,175,cs),
(521,66,o),
(524,81,o),
(523,48,c),
(523,33,o),
(524,21,o),
(525,0,c),
(615,0,l)
);
},
{
closed = 1;
nodes = (
(624,453,o),
(571,374,o),
(446,374,cs),
(204,374,l),
(262,638,l),
(507,638,ls),
(596,638,o),
(624,608,o),
(624,546,cs)
);
},
{
closed = 1;
nodes = (
(323,-58,l),
(236,-58,l),
(217,-146,l),
(265,-146,l),
(252,-208,o),
(233,-234,o),
(198,-230,c),
(192,-264,l),
(246,-266,o),
(285,-227,o),
(306,-146,c)
);
}
);
width = 722;
}
);
},
{
glyphname = rcedilla;
layers = (
{
layerId = "913D8FE6-1CE1-42B9-B98D-9294EEB74CA2";
shapes = (
{
closed = 1;
nodes = (
(478,555,l),
(472,556,o),
(468,555,o),
(468,555,c),
(401,555,o),
(327,505,o),
(288,431,c),
(314,549,l),
(142,549,l),
(25,0,l),
(193,0,l),
(255,295,ls),
(269,360,o),
(311,390,o),
(382,390,cs),
(403,390,o),
(416,389,o),
(442,384,c)
);
},
{
closed = 1;
nodes = (
(160,-60,l),
(27,-60,l),
(1,-179,l),
(74,-179,l),
(71,-217,o),
(30,-256,o),
(-16,-268,c),
(-27,-318,l),
(55,-309,o),
(132,-233,o),
(138,-158,c)
);
}
);
width = 417;
},
{
layerId = "302A00D6-A4BF-4816-9BF8-9304575F20B5";
shapes = (
{
closed = 1;
nodes = (
(447,548,l),
(439,549,o),
(434,549,o),
(430,549,cs),
(366,549,o),
(302,507,o),
(255,434,c),
(278,540,l),
(138,540,l),
(23,0,l),
(163,0,l),
(224,287,ls),
(241,369,o),
(292,410,o),
(374,410,cs),
(389,410,o),
(399,409,o),
(417,406,c)
);
},
{
closed = 1;
nodes = (
(139,-60,l),
(17,-60,l),
(-7,-172,l),
(60,-172,l),
(54,-217,o),
(19,-253,o),
(-25,-261,c),
(-35,-307,l),
(41,-301,o),
(108,-234,o),
(118,-156,c)
);
}
);
width = 389;
},
{
layerId = "294D04AE-F7F3-48C8-8CA3-B1C092BC12BA";
shapes = (
{
closed = 1;
nodes = (
(386,536,l),
(373,538,o),
(365,539,o),
(354,539,cs),
(296,539,o),
(251,513,o),
(189,442,c),
(206,524,l),
(130,524,l),
(19,0,l),
(103,0,l),
(161,272,ls),
(186,389,o),
(253,451,o),
(358,451,cs),
(361,451,o),
(365,451,o),
(368,451,c)
);
},
{
closed = 1;
nodes = (
(97,-60,l),
(-3,-60,l),
(-24,-158,l),
(31,-158,l),
(20,-217,o),
(-4,-246,o),
(-43,-246,c),
(-51,-284,l),
(12,-284,o),
(60,-235,o),
(78,-153,c)
);
}
);
width = 333;
},
{
layerId = "9C58397D-E5DA-4355-9ABE-2EAD22125FE9";
shapes = (
{
closed = 1;
nodes = (
(361,532,l),
(346,534,o),
(337,536,o),
(323,536,cs),
(267,536,o),
(230,517,o),
(162,445,c),
(176,518,l),
(127,518,l),
(17,0,l),
(78,0,l),
(135,266,ls),
(164,397,o),
(237,468,o),
(351,468,c),
(349,468,o),
(351,468,o),
(348,470,c)
);
},
{
closed = 1;
nodes = (
(80,-60,l),
(-11,-60,l),
(-31,-152,l),
(19,-152,l),
(6,-217,o),
(-14,-244,o),
(-50,-240,c),
(-58,-275,l),
(0,-277,o),
(40,-236,o),
(61,-152,c)
);
}
);
width = 310;
}
);
},
{
glyphname = tilde.dup;
layers = (
{
layerId = "913D8FE6-1CE1-42B9-B98D-9294EEB74CA2";
shapes = (
{
closed = 1;
nodes = (
(423,749,l),
(411,713,o),
(390,691,o),
(366,691,cs),
(313,691,o),
(280,747,o),
(203,747,cs),
(146,747,o),
(96,699,o),
(74,623,c),
(128,623,l),
(147,664,o),
(168,680,o),
(190,680,c),
(238,679,o),
(281,620,o),
(332,620,cs),
(395,620,o),
(452,653,o),
(477,749,c)
);
}
);
width = 333;
},
{
layerId = "302A00D6-A4BF-4816-9BF8-9304575F20B5";
shapes = (
{
closed = 1;
nodes = (
(404,736,l),
(390,702,o),
(373,685,o),
(350,685,c),
(324,683,o),
(255,733,o),
(196,733,cs),
(142,733,o),
(98,691,o),
(75,616,c),
(129,616,l),
(146,649,o),
(162,664,o),
(180,664,cs),
(219,664,o),
(264,614,o),
(325,614,cs),
(382,614,o),
(434,650,o),
(458,736,c)
);
}
);
width = 333;
},
{
layerId = "294D04AE-F7F3-48C8-8CA3-B1C092BC12BA";
shapes = (
{
closed = 1;
nodes = (
(366,709,l),
(348,680,o),
(338,672,o),
(318,672,c),
(279,672,o),
(241,704,o),
(182,704,cs),
(133,704,o),
(103,675,o),
(78,601,c),
(131,601,l),
(147,622,o),
(153,634,o),
(181,634,cs),
(248,634,o),
(243,602,o),
(311,602,cs),
(356,602,o),
(398,644,o),
(419,709,c)
);
}
);
width = 333;
},
{
layerId = "9C58397D-E5DA-4355-9ABE-2EAD22125FE9";
shapes = (
{
closed = 1;
nodes = (
(350,698,l),
(331,672,o),
(324,667,o),
(305,667,cs),
(262,667,o),
(229,692,o),
(176,692,cs),
(130,692,o),
(105,669,o),
(80,595,c),
(132,595,l),
(139,612,o),
(144,623,o),
(174,623,cs),
(250,623,o),
(233,597,o),
(305,597,cs),
(345,597,o),
(383,641,o),
(403,698,c)
);
}
);
width = 333;
}
);
},
{
glyphname = A;
layers = (
{
hints = (
{
horizontal = 1;
origin = (0,0);
target = up;
type = BottomGhost;
},
{
horizontal = 1;
origin = (0,5);
target = (1,1);
type = Stem;
},
{
horizontal = 1;
origin = (0,1);
target = down;
type = TopGhost;
}
);
layerId = "913D8FE6-1CE1-42B9-B98D-9294EEB74CA2";
shapes = (
{
closed = 1;
nodes = (
(680,0,l),
(589,700,l),
(397,700,l),
(11,0,l),
(183,0,l),
(241,107,l),
(496,107,l),
(508,0,l)
);
},
{
closed = 1;
nodes = (
(480,249,l),
(319,249,l),
(449,497,l)
);
}
);
width = 750;
},
{
hints = (
{
horizontal = 1;
origin = (0,0);
target = up;
type = BottomGhost;
},
{
horizontal = 1;
origin = (0,5);
target = (1,1);
type = Stem;
},
{
horizontal = 1;
origin = (0,1);
target = down;
type = TopGhost;
}
);
layerId = "302A00D6-A4BF-4816-9BF8-9304575F20B5";
shapes = (
{
closed = 1;
nodes = (
(650,0,l),
(557,700,l),
(391,700,l),
(1,0,l),
(147,0,l),
(225,141,l),
(486,141,l),
(504,0,l)
);
},
{
closed = 1;
nodes = (
(473,261,l),
(291,261,l),
(439,533,l)
);
}
);
width = 722;
},
{
hints = (
{
horizontal = 1;
origin = (0,0);
target = up;
type = BottomGhost;
},
{
horizontal = 1;
origin = (0,5);
target = (1,1);
type = Stem;
},
{
horizontal = 1;
origin = (0,1);
target = down;
type = TopGhost;
}
);
layerId = "294D04AE-F7F3-48C8-8CA3-B1C092BC12BA";
shapes = (
{
closed = 1;
nodes = (
(592,0,l),
(495,700,l),
(380,700,l),
(-19,0,l),
(76,0,l),
(194,210,l),
(468,210,l),
(494,0,l)
);
},
{
closed = 1;
nodes = (
(458,285,l),
(237,285,l),
(420,605,l)
);
}
);
width = 667;
},
{
hints = (
{
horizontal = 1;
origin = (0,0);
target = up;
type = BottomGhost;
},
{
horizontal = 1;
origin = (0,5);
target = (1,1);
type = Stem;
},
{
horizontal = 1;
origin = (0,1);
target = down;
type = TopGhost;
}
);
layerId = "9C58397D-E5DA-4355-9ABE-2EAD22125FE9";
shapes = (
{
closed = 1;
nodes = (
(568,0,l),
(469,700,l),
(376,700,l),
(-26,0,l),
(48,0,l),
(182,239,l),
(461,239,l),
(491,0,l)
);
},
{
closed = 1;
nodes = (
(453,296,l),
(215,296,l),
(413,635,l)
);
}
);
width = 645;
}
);
unicode = 65;
},
{
glyphname = a;
layers = (
{
anchors = (
{
name = bottom;
position = "{244, 0}";
},
{
name = ogonek;
position = "{494, 0}";
},
{
name = top;
position = "{359, 548}";
}
);
hints = (
{
horizontal = 1;
place = (-7,129);
type = Stem;
},
{
horizontal = 1;
place = (426,126);
type = Stem;
},
{
place = (10,159);
type = Stem;
}
);
layerId = "913D8FE6-1CE1-42B9-B98D-9294EEB74CA2";
shapes = (
{
closed = 1;
nodes = (
(198,-7,o),
(255,18,o),
(316,70,c),
(311,47,o),
(305,22,o),
(317,0,c),
(491,0,l),
(494,18,l),
(475,41,o),
(469,54,o),
(476,83,c),
(539,378,ls),
(568,514,o),
(478,552,o),
(351,552,cs),
(196,552,o),
(106,488,o),
(66,359,c),
(221,359,l),
(238,412,o),
(260,426,o),
(326,426,cs),
(373,426,o),
(388,412,o),
(384,387,c),
(383,387,l),
(375,350,o),
(363,340,o),
(267,325,cs),
(251,323,o),
(233,320,o),
(216,317,cs),
(99,299,o),
(10,234,o),
(10,109,cs),
(10,35,o),
(61,-7,o),
(144,-7,cs)
);
},
{
closed = 1;
nodes = (
(189,122,o),
(169,136,o),
(169,158,cs),
(169,198,o),
(202,219,o),
(237,227,cs),
(349,252,o),
(338,247,o),
(362,257,c),
(359,272,l),
(355,252,ls),
(338,163,o),
(294,122,o),
(230,122,cs)
);
}
);
width = 556;
},
{
anchors = (
{
name = bottom;
position = "{237, 0}";
},
{
name = ogonek;
position = "{483, 0}";
},
{
name = top;
position = "{351, 540}";
}
);
layerId = "302A00D6-A4BF-4816-9BF8-9304575F20B5";
shapes = (
{
closed = 1;
nodes = (
(209,-9,o),
(269,17,o),
(329,68,c),
(324,45,o),
(320,22,o),
(331,0,c),
(483,0,l),
(486,17,l),
(467,40,o),
(461,54,o),
(468,83,cs),
(532,383,ls),
(558,514,o),
(463,549,o),
(346,549,cs),
(200,549,o),
(111,487,o),
(76,362,c),
(211,362,l),
(229,418,o),
(257,436,o),
(325,436,cs),
(379,436,o),
(402,418,o),
(395,383,cs),
(394,378,ls),
(386,341,o),
(373,331,o),
(275,318,cs),
(263,316,o),
(250,315,o),
(235,313,cs),
(113,298,o),
(13,241,o),
(13,108,cs),
(13,34,o),
(63,-9,o),
(149,-9,cs)
);
},
{
closed = 1;
nodes = (
(176,104,o),
(152,119,o),
(152,148,cs),
(152,205,o),
(204,220,o),
(251,229,cs),
(348,246,o),
(350,246,o),
(376,259,c),
(370,265,l),
(363,231,ls),
(344,150,o),
(294,104,o),
(220,104,cs)
);
}
);
width = 556;
},
{
anchors = (
{
name = bottom;
position = "{222, 0}";
},
{
name = ogonek;
position = "{461, 0}";
},
{
name = top;
position = "{334, 524}";
}
);
hints = (
{
horizontal = 1;
place = (-15,72);
type = Stem;
},
{
horizontal = 1;
place = (462,77);
type = Stem;
},
{
place = (16,88);
type = Stem;
},
{
place = (428,90);
type = Stem;
}
);
layerId = "294D04AE-F7F3-48C8-8CA3-B1C092BC12BA";
shapes = (
{
closed = 1;
nodes = (
(236,-15,o),
(306,13,o),
(362,62,c),
(361,49,o),
(360,14,o),
(368,0,c),
(461,0,l),
(464,15,l),
(444,38,o),
(441,55,o),
(447,83,cs),
(514,396,ls),
(535,494,o),
(445,539,o),
(333,539,cs),
(209,539,o),
(124,483,o),
(101,369,c),
(185,369,l),
(205,434,o),
(250,462,o),
(322,462,cs),
(394,462,o),
(437,434,o),
(425,371,cs),
(422,355,ls),
(416,321,o),
(401,311,o),
(323,302,cs),
(274,296,o),
(221,293,o),
(177,282,cs),
(87,259,o),
(16,203,o),
(16,110,cs),
(16,33,o),
(65,-15,o),
(162,-15,cs)
);
},
{
closed = 1;
nodes = (
(145,57,o),
(104,70,o),
(104,124,cs),
(104,182,o),
(147,218,o),
(288,234,cs),
(343,240,o),
(380,247,o),
(412,263,c),
(404,273,l),
(385,181,ls),
(370,111,o),
(298,57,o),
(195,57,cs)
);
}
);
width = 556;
},
{
anchors = (
{
name = bottom;
position = "{214, 0}";
},
{
name = ogonek;
position = "{449, 0}";
},
{
name = top;
position = "{325, 515}";
}
);
hints = (
{
horizontal = 1;
place = (-17,55);
type = Stem;
},
{
horizontal = 1;
place = (473,62);
type = Stem;
},
{
place = (14,69);
type = Stem;
}
);
layerId = "9C58397D-E5DA-4355-9ABE-2EAD22125FE9";
shapes = (
{
closed = 1;
nodes = (
(247,-17,o),
(321,12,o),
(376,60,c),
(377,56,o),
(375,15,o),
(383,1,c),
(452,1,l),
(455,15,l),
(435,37,o),
(431,56,o),
(438,84,c),
(506,402,l),
(531,502,o),
(405,535,o),
(327,535,cs),
(213,535,o),
(129,482,o),
(111,373,c),
(174,373,l),
(195,441,o),
(246,473,o),
(320,473,cs),
(392,473,o),
(454,446,o),
(437,366,cs),
(433,345,l),
(428,313,o),
(412,303,o),
(343,296,cs),
(279,288,o),
(207,287,o),
(153,269,c),
(83,248,o),
(14,194,o),
(14,111,cs),
(14,21,o),
(81,-17,o),
(167,-17,cs)
);
},
{
closed = 1;
nodes = (
(128,38,o),
(83,53,o),
(83,116,cs),
(83,178,o),
(137,223,o),
(303,237,cs),
(341,240,o),
(392,246,o),
(427,267,c),
(418,275,l),
(394,161,ls),
(380,95,o),
(299,38,o),
(184,38,cs)
);
}
);
width = 556;
}
);
unicode = 97;
},
{
glyphname = ampersand;
layers = (
{
layerId = "913D8FE6-1CE1-42B9-B98D-9294EEB74CA2";
shapes = (
{
closed = 1;
nodes = (
(692,0,l),
(596,164,l),
(660,218,o),
(712,313,o),
(723,392,c),
(593,392,l),
(583,331,o),
(568,303,o),
(533,275,c),
(459,399,l),
(577,477,o),
(607,533,o),
(607,614,cs),
(607,683,o),
(540,730,o),
(444,730,cs),
(319,730,o),
(210,635,o),
(210,523,cs),
(210,499,o),
(225,457,o),
(270,406,c),
(130,349,o),
(57,280,o),
(57,170,cs),
(57,48,o),
(135,-23,o),
(269,-23,cs),
(345,-23,o),
(380,-11,o),
(472,51,c),
(505,0,l)
);
},
{
closed = 1;
nodes = (
(410,159,l),
(347,122,o),
(324,112,o),
(298,112,cs),
(258,112,o),
(219,155,o),
(219,201,cs),
(219,265,o),
(248,266,o),
(321,311,c)
);
},
{
closed = 1;
nodes = (
(461,540,o),
(437,505,o),
(405,488,c),
(391,519,o),
(380,536,o),
(376,542,c),
(374,542,o),
(374,542,o),
(372,544,c),
(365,579,o),
(386,603,o),
(419,603,cs),
(446,603,o),
(461,591,o),
(461,574,cs)
);
}
);
width = 750;
},
{
layerId = "302A00D6-A4BF-4816-9BF8-9304575F20B5";
shapes = (
{
closed = 1;
nodes = (
(656,0,l),
(562,160,l),
(621,213,o),
(669,300,o),
(680,373,c),
(567,373,l),
(556,316,o),
(541,286,o),
(507,255,c),
(425,392,l),
(545,463,o),
(584,522,o),
(584,605,cs),
(584,676,o),
(522,723,o),
(431,723,cs),
(311,723,o),
(206,630,o),
(206,523,cs),
(206,491,o),
(223,450,o),
(259,401,c),
(120,337,o),
(49,268,o),
(49,156,cs),
(49,44,o),
(123,-23,o),
(247,-23,cs),
(324,-23,o),
(367,-6,o),
(459,60,c),
(496,0,l)
);
},
{
closed = 1;
nodes = (
(406,152,l),
(340,107,o),
(309,93,o),
(275,93,cs),
(226,93,o),
(186,135,o),
(186,187,cs),
(186,252,o),
(221,269,o),
(307,319,c)
);
},
{
closed = 1;
nodes = (
(459,533,o),
(431,497,o),
(379,470,c),
(356,510,o),
(347,526,o),
(344,539,cs),
(343,543,o),
(343,547,o),
(343,552,cs),
(343,589,o),
(370,615,o),
(408,615,cs),
(440,615,o),
(459,599,o),
(459,574,cs)
);
}
);
width = 722;
},
{
layerId = "294D04AE-F7F3-48C8-8CA3-B1C092BC12BA";
shapes = (
{
closed = 1;
nodes = (
(584,0,l),
(494,151,l),
(543,202,o),
(582,273,o),
(594,334,c),
(515,334,l),
(503,285,o),
(487,252,o),
(455,215,c),
(357,378,l),
(481,434,o),
(538,500,o),
(538,587,cs),
(538,662,o),
(486,709,o),
(405,709,cs),
(296,709,o),
(197,620,o),
(197,523,cs),
(197,475,o),
(221,437,o),
(238,390,c),
(99,311,o),
(33,243,o),
(33,128,cs),
(33,35,o),
(98,-23,o),
(203,-23,cs),
(283,-23,o),
(341,3,o),
(432,78,c),
(478,0,l)
);
},
{
closed = 1;
nodes = (
(398,137,l),
(325,76,o),
(279,54,o),
(230,54,cs),
(163,54,o),
(121,94,o),
(121,159,cs),
(121,225,o),
(168,275,o),
(279,336,c)
);
},
{
closed = 1;
nodes = (
(455,519,o),
(419,480,o),
(327,434,c),
(286,492,o),
(280,505,o),
(280,533,cs),
(280,545,o),
(282,556,o),
(285,567,cs),
(299,609,o),
(339,639,o),
(386,639,cs),
(429,639,o),
(455,614,o),
(455,574,cs)
);
}
);
width = 667;
},
{
layerId = "9C58397D-E5DA-4355-9ABE-2EAD22125FE9";
shapes = (
{
closed = 1;
nodes = (
(554,0,l),
(466,147,l),
(511,198,o),
(546,262,o),
(558,318,c),
(493,318,l),
(481,272,o),
(464,238,o),
(433,198,c),
(330,372,l),
(454,422,o),
(519,491,o),
(519,580,cs),
(519,656,o),
(471,703,o),
(394,703,cs),
(291,703,o),
(194,616,o),
(194,523,cs),
(194,468,o),
(221,432,o),
(230,386,c),
(90,300,o),
(26,233,o),
(26,116,cs),
(26,31,o),
(88,-23,o),
(186,-23,cs),
(267,-23,o),
(331,7,o),
(421,85,c),
(470,0,l)
);
},
{
closed = 1;
nodes = (
(395,131,l),
(320,63,o),
(268,38,o),
(212,38,cs),
(137,38,o),
(94,77,o),
(94,147,cs),
(94,214,o),
(146,277,o),
(269,343,c)
);
},
{
closed = 1;
nodes = (
(453,513,o),
(414,473,o),
(307,419,c),
(258,485,o),
(253,497,o),
(255,531,c),
(255,546,o),
(258,560,o),
(262,574,c),
(282,617,o),
(327,649,o),
(377,649,cs),
(425,649,o),
(453,621,o),
(453,574,cs)
);
}
);
width = 645;
}
);
unicode = 38;
},
{
glyphname = asciicircum;
layers = (
{
layerId = "913D8FE6-1CE1-42B9-B98D-9294EEB74CA2";
shapes = (
{
closed = 1;
nodes = (
(587,241,l),
(502,688,l),
(351,688,l),
(86,241,l),
(218,241,l),
(394,542,l),
(452,241,l)
);
}
);
width = 641;
},
{
layerId = "302A00D6-A4BF-4816-9BF8-9304575F20B5";
shapes = (
{
closed = 1;
nodes = (
(540,270,l),
(459,695,l),
(334,695,l),
(79,270,l),
(191,270,l),
(369,570,l),
(427,270,l)
);
}
);
width = 584;
},
{
layerId = "294D04AE-F7F3-48C8-8CA3-B1C092BC12BA";
shapes = (
{
closed = 1;
nodes = (
(446,329,l),
(372,709,l),
(299,709,l),
(65,329,l),
(137,329,l),
(319,628,l),
(377,329,l)
);
}
);
width = 469;
},
{
layerId = "9C58397D-E5DA-4355-9ABE-2EAD22125FE9";
shapes = (
{
closed = 1;
nodes = (
(407,354,l),
(336,715,l),
(285,715,l),
(59,354,l),
(115,354,l),
(298,652,l),
(356,354,l)
);
}
);
width = 422;
}
);
unicode = 94;
},
{
glyphname = asciitilde;
layers = (
{
layerId = "913D8FE6-1CE1-42B9-B98D-9294EEB74CA2";
shapes = (
{
closed = 1;
nodes = (
(450,227,l),
(434,175,o),
(422,165,o),
(383,165,c),
(356,163,o),
(345,172,o),
(322,194,c),
(300,222,l),
(277,243,o),
(250,252,o),
(212,252,cs),
(123,252,o),
(69,205,o),
(42,107,c),
(133,107,l),
(144,156,o),
(157,165,o),
(198,165,cs),
(223,165,o),
(238,158,o),
(262,137,c),
(292,105,l),
(312,86,o),
(333,79,o),
(370,79,cs),
(458,79,o),
(513,130,o),
(540,227,c)
);
}
);
width = 584;
},
{
layerId = "302A00D6-A4BF-4816-9BF8-9304575F20B5";
shapes = (
{
closed = 1;
nodes = (
(464,288,l),
(450,237,o),
(435,222,o),
(397,222,c),
(374,221,o),
(362,228,o),
(341,247,c),
(292,289,ls),
(272,306,o),
(248,314,o),
(216,314,cs),
(136,314,o),
(83,266,o),
(57,169,c),
(135,169,l),
(148,219,o),
(164,234,o),
(202,234,cs),
(222,234,o),
(238,227,o),
(258,210,cs),
(306,168,ls),
(326,150,o),
(350,142,o),
(383,142,cs),
(463,142,o),
(518,193,o),
(541,288,c)
);
}
);
width = 584;
},
{
layerId = "294D04AE-F7F3-48C8-8CA3-B1C092BC12BA";
shapes = (
{
closed = 1;
nodes = (
(492,411,l),
(481,360,o),
(460,336,o),
(425,336,cs),
(410,336,o),
(396,341,o),
(378,353,cs),
(276,422,ls),
(261,432,o),
(243,438,o),
(225,438,cs),
(161,438,o),
(112,387,o),
(87,293,c),
(139,293,l),
(155,345,o),
(179,372,o),
(210,372,cs),
(220,372,o),
(238,365,o),
(249,357,cs),
(334,294,ls),
(355,278,o),
(384,268,o),
(408,268,cs),
(473,268,o),
(528,319,o),
(544,411,c)
);
}
);
width = 584;
},
{
layerId = "9C58397D-E5DA-4355-9ABE-2EAD22125FE9";
shapes = (
{
closed = 1;
nodes = (
(504,462,l),
(494,411,o),
(471,383,o),
(437,383,c),
(425,384,o),
(410,388,o),
(394,397,c),
(269,477,ls),
(257,484,o),
(241,489,o),
(229,489,cs),
(172,489,o),
(124,437,o),
(99,344,c),
(141,344,l),
(158,397,o),
(186,429,o),
(213,429,cs),
(219,429,o),
(238,422,o),
(246,418,c),
(346,346,ls),
(367,331,o),
(398,320,o),
(419,320,cs),
(477,320,o),
(532,371,o),
(546,462,c)
);
}
);
width = 584;
}
);
unicode = 126;
},
{
glyphname = asterisk;
layers = (
{
layerId = "913D8FE6-1CE1-42B9-B98D-9294EEB74CA2";
shapes = (
{
closed = 1;
nodes = (
(446,572,l),
(441,646,l),
(320,611,l),
(343,729,l),
(266,729,l),
(240,611,l),
(138,645,l),
(98,571,l),
(198,532,l),
(113,435,l),
(163,390,l),
(253,484,l),
(301,391,l),
(373,437,l),
(329,533,l)
);
}
);
width = 389;
},
{
layerId = "302A00D6-A4BF-4816-9BF8-9304575F20B5";
shapes = (
{
closed = 1;
nodes = (
(438,579,l),
(431,649,l),
(314,613,l),
(339,729,l),
(267,729,l),
(243,613,l),
(142,649,l),
(105,580,l),
(206,544,l),
(119,450,l),
(168,407,l),
(255,501,l),
(302,407,l),
(369,450,l),
(322,544,l)
);
}
);
width = 389;
},
{
layerId = "294D04AE-F7F3-48C8-8CA3-B1C092BC12BA";
shapes = (
{
closed = 1;
nodes = (
(421,593,l),
(412,655,l),
(302,617,l),
(331,729,l),
(269,729,l),
(249,617,l),
(149,657,l),
(119,598,l),
(223,567,l),
(131,479,l),
(178,439,l),
(259,534,l),
(303,438,l),
(361,475,l),
(308,566,l)
);
}
);
width = 389;
},
{
layerId = "9C58397D-E5DA-4355-9ABE-2EAD22125FE9";
shapes = (
{
closed = 1;
nodes = (
(414,599,l),
(405,657,l),
(297,619,l),
(328,729,l),
(270,729,l),
(251,619,l),
(152,660,l),
(125,605,l),
(230,577,l),
(136,491,l),
(182,452,l),
(261,548,l),
(304,451,l),
(358,486,l),
(302,575,l)
);
}
);
width = 389;
}
);
unicode = 42;
},
{
glyphname = at;
layers = (
{
layerId = "913D8FE6-1CE1-42B9-B98D-9294EEB74CA2";
shapes = (
{
closed = 1;
nodes = (
(995,617,o),
(827,747,o),
(629,747,cs),
(318,747,o),
(34,477,o),
(34,180,cs),
(34,3,o),
(160,-135,o),
(422,-135,cs),
(523,-135,o),
(592,-122,o),
(669,-88,c),
(657,-3,l),
(560,-37,o),
(506,-49,o),
(441,-49,cs),
(266,-49,o),
(140,56,o),
(140,196,cs),
(140,427,o),
(372,661,o),
(596,661,cs),
(765,661,o),
(897,552,o),
(897,431,cs),
(897,300,o),
(769,145,o),
(690,145,cs),
(667,145,o),
(652,158,o),
(652,179,cs),
(652,196,o),
(652,196,o),
(669,232,cs),
(798,512,l),
(704,512,l),
(682,456,l),
(657,501,o),
(636,515,o),
(591,515,cs),
(405,515,o),
(262,372,o),
(262,183,cs),
(262,105,o),
(319,49,o),
(400,49,cs),
(454,49,o),
(524,75,o),
(562,122,c),
(584,85,o),
(619,56,o),
(674,56,cs),
(803,56,o),
(995,239,o),
(995,442,cs)
);
},
{
closed = 1;
nodes = (
(630,272,o),
(508,142,o),
(428,142,cs),
(391,142,o),
(366,172,o),
(366,217,cs),
(366,342,o),
(452,442,o),
(559,442,cs),
(600,442,o),
(630,410,o),
(630,370,cs)
);
}
);
width = 955;
},
{
layerId = "302A00D6-A4BF-4816-9BF8-9304575F20B5";
shapes = (
{
closed = 1;
nodes = (
(992,615,o),
(830,745,o),
(630,745,cs),
(313,745,o),
(33,471,o),
(33,181,cs),
(33,-3,o),
(175,-137,o),
(413,-137,cs),
(508,-137,o),
(584,-123,o),
(660,-92,c),
(648,-13,l),
(554,-43,o),
(499,-54,o),
(436,-54,cs),
(258,-54,o),
(133,50,o),
(133,196,cs),
(133,447,o),
(351,662,o),
(601,662,cs),
(770,662,o),
(899,554,o),
(899,425,cs),
(899,293,o),
(773,139,o),
(684,139,cs),
(661,139,o),
(645,153,o),
(645,174,cs),
(645,188,o),
(647,194,o),
(664,228,cs),
(800,508,l),
(710,508,l),
(683,449,l),
(663,499,o),
(636,518,o),
(586,518,cs),
(443,518,o),
(261,334,o),
(261,189,cs),
(261,109,o),
(317,53,o),
(398,53,c),
(453,53,o),
(508,78,o),
(557,126,c),
(572,80,o),
(609,56,o),
(665,56,cs),
(810,56,o),
(992,232,o),
(992,439,cs)
);
},
{
closed = 1;
nodes = (
(631,282,o),
(514,136,o),
(428,136,cs),
(388,136,o),
(361,168,o),
(361,215,cs),
(361,315,o),
(476,446,o),
(561,446,cs),
(603,446,o),
(631,417,o),
(631,376,cs)
);
}
);
width = 975;
},
{
layerId = "294D04AE-F7F3-48C8-8CA3-B1C092BC12BA";
shapes = (
{
closed = 1;
nodes = (
(986,611,o),
(836,741,o),
(631,741,cs),
(304,741,o),
(30,459,o),
(30,182,cs),
(30,-15,o),
(205,-142,o),
(397,-142,cs),
(478,-142,o),
(568,-127,o),
(642,-100,c),
(629,-33,l),
(541,-56,o),
(486,-65,o),
(425,-65,cs),
(242,-65,o),
(118,40,o),
(118,196,cs),
(118,439,o),
(374,664,o),
(610,664,cs),
(779,664,o),
(903,558,o),
(903,414,cs),
(903,280,o),
(780,127,o),
(671,127,cs),
(649,127,o),
(630,144,o),
(630,163,cs),
(630,172,o),
(637,189,o),
(654,221,cs),
(803,501,l),
(721,501,l),
(685,435,l),
(673,494,o),
(635,524,o),
(576,524,cs),
(427,524,o),
(260,353,o),
(260,201,cs),
(260,117,o),
(314,62,o),
(395,62,cs),
(452,62,o),
(477,84,o),
(547,134,c),
(547,71,o),
(588,57,o),
(646,57,cs),
(824,57,o),
(986,219,o),
(986,434,cs)
);
},
{
closed = 1;
nodes = (
(632,303,o),
(526,124,o),
(428,124,cs),
(384,124,o),
(352,161,o),
(352,210,cs),
(352,315,o),
(464,455,o),
(564,455,cs),
(608,455,o),
(632,432,o),
(632,390,cs)
);
}
);
width = 1015;
},
{
layerId = "9C58397D-E5DA-4355-9ABE-2EAD22125FE9";
shapes = (
{
closed = 1;
nodes = (
(984,609,o),
(839,740,o),
(632,740,cs),
(301,740,o),
(29,455,o),
(29,183,cs),
(29,-19,o),
(218,-144,o),
(391,-144,cs),
(466,-144,o),
(561,-129,o),
(634,-103,c),
(621,-41,l),
(536,-61,o),
(481,-69,o),
(421,-69,cs),
(236,-69,o),
(112,36,o),
(112,197,cs),
(112,437,o),
(385,665,o),
(614,665,cs),
(783,665,o),
(905,560,o),
(905,410,cs),
(905,275,o),
(783,123,o),
(666,123,cs),
(644,123,o),
(624,141,o),
(624,159,cs),
(624,166,o),
(633,187,o),
(650,219,cs),
(805,498,l),
(726,498,l),
(686,430,l),
(677,492,o),
(635,527,o),
(572,527,cs),
(421,527,o),
(260,361,o),
(260,207,cs),
(260,121,o),
(313,66,o),
(394,66,cs),
(471,66,o),
(488,90,o),
(543,121,c),
(537,80,o),
(572,58,o),
(638,58,cs),
(830,58,o),
(984,214,o),
(984,432,cs)
);
},
{
closed = 1;
nodes = (
(633,312,o),
(531,120,o),
(428,120,cs),
(383,120,o),
(349,159,o),
(349,208,cs),
(349,316,o),
(459,459,o),
(566,459,cs),
(610,459,o),
(633,439,o),
(633,397,cs)
);
}
);
width = 1032;
}
);
unicode = 64;
},
{
glyphname = B;
layers = (
{
layerId = "913D8FE6-1CE1-42B9-B98D-9294EEB74CA2";
shapes = (
{
closed = 1;
nodes = (
(689,293,o),
(673,331,o),
(633,374,c),
(701,428,o),
(736,486,o),
(736,542,cs),
(736,637,o),
(667,700,o),
(535,700,cs),
(209,700,l),
(60,0,l),
(374,0,ls),
(491,0,o),
(565,26,o),
(625,89,c),
(663,137,o),
(689,201,o),
(689,244,cs)
);
},
{
closed = 1;
nodes = (
(568,472,o),
(544,433,o),
(473,433,cs),
(323,433,l),
(350,559,l),
(499,559,ls),
(548,559,o),
(568,545,o),
(568,511,cs)
);
},
{
closed = 1;
nodes = (
(522,180,o),
(491,141,o),
(409,141,cs),
(262,141,l),
(294,292,l),
(442,292,ls),
(498,292,o),
(522,276,o),
(522,237,cs)
);
}
);
width = 750;
},
{
layerId = "302A00D6-A4BF-4816-9BF8-9304575F20B5";
shapes = (
{
closed = 1;
nodes = (
(663,298,o),
(644,334,o),
(595,372,c),
(668,420,o),
(707,482,o),
(707,548,cs),
(707,639,o),
(639,700,o),
(515,700,cs),
(203,700,l),
(54,0,l),
(369,0,ls),
(465,0,o),
(531,23,o),
(585,75,cs),
(632,121,o),
(663,188,o),
(663,245,cs)
);
},
{
closed = 1;
nodes = (
(564,468,o),
(530,421,o),
(445,421,cs),
(288,421,l),
(321,580,l),
(479,580,ls),
(538,580,o),
(564,562,o),
(564,520,cs)
);
},
{
closed = 1;
nodes = (
(521,168,o),
(480,120,o),
(395,120,cs),
(224,120,l),
(263,301,l),
(434,301,ls),
(493,301,o),
(521,280,o),
(521,235,cs)
);
}
);
width = 722;
},
{
layerId = "294D04AE-F7F3-48C8-8CA3-B1C092BC12BA";
shapes = (
{
closed = 1;
nodes = (
(610,306,o),
(584,340,o),
(517,369,c),
(601,406,o),
(648,475,o),
(648,561,cs),
(648,645,o),
(582,700,o),
(474,700,cs),
(190,700,l),
(41,0,l),
(358,0,ls),
(412,0,o),
(463,17,o),
(505,46,cs),
(569,90,o),
(610,162,o),
(610,248,cs)
);
},
{
closed = 1;
nodes = (
(555,458,o),
(503,398,o),
(388,398,cs),
(216,398,l),
(264,621,l),
(436,621,ls),
(518,621,o),
(555,595,o),
(555,539,cs)
);
},
{
closed = 1;
nodes = (
(518,143,o),
(455,79,o),
(365,79,cs),
(147,79,l),
(199,320,l),
(416,320,ls),
(482,320,o),
(518,289,o),
(518,232,cs)
);
}
);
width = 667;
},
{
layerId = "9C58397D-E5DA-4355-9ABE-2EAD22125FE9";
shapes = (
{
closed = 1;
nodes = (
(588,310,o),
(560,343,o),
(485,368,c),
(574,399,o),
(624,472,o),
(624,565,cs),
(624,648,o),
(559,700,o),
(457,700,cs),
(185,700,l),
(36,0,l),
(354,0,ls),
(390,0,o),
(436,14,o),
(473,34,c),
(544,78,o),
(588,152,o),
(588,249,cs)
);
},
{
closed = 1;
nodes = (
(553,454,o),
(491,389,o),
(365,389,cs),
(186,389,l),
(241,638,l),
(419,638,ls),
(510,638,o),
(553,609,o),
(553,546,cs)
);
},
{
closed = 1;
nodes = (
(517,133,o),
(445,62,o),
(353,62,cs),
(116,62,l),
(174,327,l),
(410,327,ls),
(479,327,o),
(517,293,o),
(517,231,cs)
);
}
);
width = 645;
}
);
unicode = 66;
},
{
glyphname = b;
layers = (
{
hints = (
{
horizontal = 1;
origin = (0,13);
target = (1,2);
type = Stem;
},
{
horizontal = 1;
origin = (1,8);
target = (0,2);
type = Stem;
},
{
horizontal = 1;
origin = (0,6);
target = down;
type = TopGhost;
},
{
origin = (1,11);
target = (0,16);
type = Stem;
}
);
layerId = "913D8FE6-1CE1-42B9-B98D-9294EEB74CA2";
shapes = (
{
closed = 1;
nodes = (
(632,473,o),
(567,553,o),
(457,553,cs),
(392,553,o),
(331,524,o),
(297,477,c),
(350,729,l),
(182,729,l),
(27,0,l),
(200,0,l),
(210,52,l),
(231,17,o),
(272,-6,o),
(336,-6,cs),
(478,-6,o),
(632,145,o),
(632,341,cs)
);
},
{
closed = 1;
nodes = (
(461,207,o),
(398,123,o),
(325,123,cs),
(279,123,o),
(246,157,o),
(246,219,cs),
(246,329,o),
(310,424,o),
(387,424,cs),
(432,424,o),
(461,383,o),
(461,316,cs)
);
}
);
width = 639;
},
{
hints = (
{
horizontal = 1;
origin = (0,13);
target = (1,2);
type = Stem;
},
{
horizontal = 1;
origin = (1,8);
target = (0,2);
type = Stem;
},
{
horizontal = 1;
origin = (0,6);
target = down;
type = TopGhost;
},
{
origin = (1,11);
target = (0,16);
type = Stem;
}
);
layerId = "302A00D6-A4BF-4816-9BF8-9304575F20B5";
shapes = (
{
closed = 1;
nodes = (
(600,467,o),
(531,549,o),
(425,549,cs),
(357,549,o),
(304,524,o),
(259,470,c),
(314,729,l),
(174,729,l),
(19,0,l),
(159,0,l),
(172,62,l),
(196,16,o),
(239,-9,o),
(306,-9,cs),
(460,-9,o),
(600,152,o),
(600,342,cs)
);
},
{
closed = 1;
nodes = (
(457,197,o),
(384,103,o),
(299,103,cs),
(246,103,o),
(209,141,o),
(209,209,cs),
(209,334,o),
(283,437,o),
(369,437,cs),
(423,437,o),
(457,392,o),
(457,319,cs)
);
}
);
width = 611;
},
{
hints = (
{
horizontal = 1;
origin = (0,13);
target = (1,2);
type = Stem;
},
{
horizontal = 1;
origin = (1,8);
target = (0,2);
type = Stem;
},
{
horizontal = 1;
origin = (0,6);
target = down;
type = TopGhost;
},
{
origin = (1,11);
target = (0,16);
type = Stem;
}
);
layerId = "294D04AE-F7F3-48C8-8CA3-B1C092BC12BA";
shapes = (
{
closed = 1;
nodes = (
(538,455,o),
(462,539,o),
(361,539,cs),
(289,539,o),
(250,523,o),
(185,454,c),
(243,729,l),
(159,729,l),
(4,0,l),
(79,0,l),
(97,82,l),
(128,14,o),
(174,-15,o),
(246,-15,cs),
(425,-15,o),
(538,165,o),
(538,343,cs)
);
},
{
closed = 1;
nodes = (
(450,175,o),
(356,62,o),
(248,62,cs),
(180,62,o),
(136,108,o),
(136,187,cs),
(136,344,o),
(229,462,o),
(333,462,cs),
(406,462,o),
(450,410,o),
(450,324,cs)
);
}
);
width = 556;
},
{
hints = (
{
horizontal = 1;
origin = (0,13);
target = (1,2);
type = Stem;
},
{
horizontal = 1;
origin = (1,8);
target = (0,2);
type = Stem;
},
{
horizontal = 1;
origin = (0,6);
target = down;
type = TopGhost;
},
{
origin = (1,11);
target = (0,16);
type = Stem;
}
);
layerId = "9C58397D-E5DA-4355-9ABE-2EAD22125FE9";
shapes = (
{
closed = 1;
nodes = (
(514,451,o),
(434,536,o),
(336,536,cs),
(262,536,o),
(229,523,o),
(156,448,c),
(215,729,l),
(154,729,l),
(-1,1,l),
(47,1,l),
(67,92,l),
(101,14,o),
(148,-17,o),
(222,-17,cs),
(411,-17,o),
(514,171,o),
(514,344,cs)
);
},
{
closed = 1;
nodes = (
(448,167,o),
(346,46,o),
(228,46,cs),
(154,46,o),
(107,95,o),
(107,179,cs),
(107,349,o),
(208,473,o),
(319,473,cs),
(400,473,o),
(448,419,o),
(448,327,cs)
);
}
);
width = 534;
}
);
unicode = 98;
},
{
glyphname = backslash;
layers = (
{
layerId = "913D8FE6-1CE1-42B9-B98D-9294EEB74CA2";
shapes = (
{
closed = 1;
nodes = (
(252,-24,l),
(182,699,l),
(99,699,l),
(168,-24,l)
);
}
);
width = 278;
},
{
layerId = "302A00D6-A4BF-4816-9BF8-9304575F20B5";
shapes = (
{
closed = 1;
nodes = (
(245,-23,l),
(172,709,l),
(98,709,l),
(170,-23,l)
);
}
);
width = 278;
},
{
layerId = "294D04AE-F7F3-48C8-8CA3-B1C092BC12BA";
shapes = (
{
closed = 1;
nodes = (
(230,-20,l),
(152,729,l),
(97,729,l),
(175,-20,l)
);
}
);
width = 278;
},
{
layerId = "9C58397D-E5DA-4355-9ABE-2EAD22125FE9";
shapes = (
{
closed = 1;
nodes = (
(224,-19,l),
(144,737,l),
(97,737,l),
(177,-19,l)
);
}
);
width = 278;
}
);
unicode = 92;
},
{
glyphname = bar;
layers = (
{
layerId = "913D8FE6-1CE1-42B9-B98D-9294EEB74CA2";
shapes = (
{
closed = 1;
nodes = (
(224,-193,l),
(224,729,l),
(108,729,l),
(108,-193,l)
);
}
);
width = 290;
},
{
layerId = "302A00D6-A4BF-4816-9BF8-9304575F20B5";
shapes = (
{
closed = 1;
nodes = (
(204,-200,l),
(204,729,l),
(104,729,l),
(104,-200,l)
);
}
);
width = 280;
},
{
layerId = "294D04AE-F7F3-48C8-8CA3-B1C092BC12BA";
shapes = (
{
closed = 1;
nodes = (
(164,-213,l),
(164,729,l),
(96,729,l),
(96,-213,l)
);
}
);
width = 260;
},
{
layerId = "9C58397D-E5DA-4355-9ABE-2EAD22125FE9";
shapes = (
{
closed = 1;
nodes = (
(148,-219,l),
(148,729,l),
(93,729,l),
(93,-219,l)
);
}
);
width = 252;
}
);
unicode = 124;
},
{
glyphname = braceleft;
layers = (
{
layerId = "913D8FE6-1CE1-42B9-B98D-9294EEB74CA2";
shapes = (
{
closed = 1;
nodes = (
(262,-193,l),
(287,-78,l),
(242,-78,ls),
(224,-78,o),
(211,-70,o),
(211,-57,cs),
(211,-47,o),
(212,-34,o),
(217,-14,c),
(249,140,l),
(255,165,o),
(264,201,o),
(264,219,cs),
(264,260,o),
(231,273,o),
(169,274,c),
(305,264,o),
(288,333,o),
(339,561,cs),
(349,605,o),
(354,613,o),
(385,613,cs),
(433,613,l),
(458,729,l),
(404,729,ls),
(301,729,o),
(234,709,o),
(209,599,cs),
(191,525,o),
(170,450,o),
(161,371,c),
(154,327,o),
(127,321,o),
(69,326,c),
(46,222,l),
(93,227,o),
(123,222,o),
(123,200,cs),
(123,183,o),
(107,116,o),
(98,77,cs),
(68,-64,ls),
(67,-71,o),
(66,-79,o),
(68,-81,c),
(68,-146,o),
(110,-193,o),
(170,-193,cs)
);
}
);
width = 417;
},
{
layerId = "302A00D6-A4BF-4816-9BF8-9304575F20B5";
shapes = (
{
closed = 1;
nodes = (
(235,-200,l),
(256,-101,l),
(221,-101,ls),
(196,-101,o),
(182,-92,o),
(182,-76,cs),
(182,-66,o),
(183,-53,o),
(187,-36,cs),
(222,127,ls),
(227,150,o),
(234,181,o),
(234,200,cs),
(234,244,o),
(208,260,o),
(155,269,c),
(282,283,o),
(274,377,o),
(317,573,cs),
(327,620,o),
(337,630,o),
(374,630,cs),
(411,630,l),
(432,729,l),
(381,729,ls),
(287,729,o),
(228,699,o),
(203,589,cs),
(187,520,o),
(170,448,o),
(158,378,c),
(147,328,o),
(120,315,o),
(64,315,c),
(44,223,l),
(88,223,o),
(115,213,o),
(115,184,cs),
(115,167,o),
(103,115,o),
(95,80,cs),
(65,-60,ls),
(62,-74,o),
(60,-88,o),
(61,-99,c),
(61,-159,o),
(100,-200,o),
(158,-200,cs)
);
}
);
width = 389;
},
{
layerId = "294D04AE-F7F3-48C8-8CA3-B1C092BC12BA";
shapes = (
{
closed = 1;
nodes = (
(181,-213,l),
(195,-147,l),
(179,-147,ls),
(141,-147,o),
(125,-137,o),
(125,-113,cs),
(125,-103,o),
(126,-92,o),
(129,-80,cs),
(168,101,ls),
(172,120,o),
(174,140,o),
(174,162,cs),
(174,213,o),
(163,235,o),
(126,259,c),
(235,321,o),
(245,466,o),
(273,597,cs),
(284,650,o),
(302,664,o),
(351,664,cs),
(367,664,l),
(381,729,l),
(334,729,ls),
(259,729,o),
(216,679,o),
(192,569,cs),
(179,511,o),
(170,444,o),
(152,391,c),
(133,329,o),
(106,303,o),
(56,293,c),
(41,224,l),
(78,216,o),
(98,195,o),
(98,153,cs),
(98,135,o),
(95,112,o),
(89,86,cs),
(60,-52,ls),
(54,-79,o),
(48,-106,o),
(48,-134,c),
(48,-184,o),
(80,-213,o),
(134,-213,cs)
);
}
);
width = 334;
},
{
layerId = "9C58397D-E5DA-4355-9ABE-2EAD22125FE9";
shapes = (
{
closed = 1;
nodes = (
(159,-219,l),
(171,-166,l),
(162,-166,ls),
(119,-166,o),
(102,-156,o),
(102,-129,cs),
(102,-119,o),
(103,-109,o),
(106,-98,c),
(146,90,ls),
(150,108,o),
(150,123,o),
(150,146,cs),
(150,201,o),
(145,225,o),
(115,255,c),
(217,337,o),
(234,503,o),
(256,607,cs),
(267,662,o),
(289,678,o),
(343,678,cs),
(350,678,l),
(361,729,l),
(316,729,ls),
(248,729,o),
(212,671,o),
(189,561,cs),
(177,508,o),
(171,442,o),
(150,397,c),
(128,330,o),
(101,298,o),
(53,284,c),
(40,225,l),
(74,214,o),
(91,188,o),
(91,141,cs),
(91,122,o),
(92,111,o),
(87,88,cs),
(58,-49,ls),
(51,-81,o),
(44,-113,o),
(43,-149,c),
(43,-195,o),
(72,-219,o),
(125,-219,cs)
);
}
);
width = 312;
}
);
unicode = 123;
},
{
glyphname = braceright;
layers = (
{
layerId = "913D8FE6-1CE1-42B9-B98D-9294EEB74CA2";
shapes = (
{
closed = 1;
nodes = (
(431,313,l),
(377,311,o),
(346,317,o),
(351,350,c),
(352,352,o),
(352,355,o),
(354,359,c),
(360,388,o),
(372,429,o),
(378,458,cs),
(405,585,l),
(408,595,o),
(408,606,o),
(408,618,cs),
(408,684,o),
(367,729,o),
(305,729,cs),
(212,729,l),
(188,613,l),
(233,613,ls),
(252,613,o),
(265,605,o),
(265,592,c),
(263,582,o),
(264,569,o),
(259,549,c),
(228,405,l),
(222,385,o),
(216,359,o),
(213,341,c),
(211,336,o),
(211,330,o),
(210,328,c),
(207,274,o),
(239,263,o),
(306,262,c),
(230,265,o),
(194,241,o),
(178,176,c),
(133,-40,ls),
(126,-73,o),
(114,-77,o),
(90,-77,cs),
(41,-77,l),
(17,-193,l),
(109,-193,ls),
(192,-193,o),
(252,-136,o),
(270,-49,cs),
(297,80,ls),
(318,175,o),
(303,216,o),
(409,210,c)
);
}
);
width = 417;
},
{
layerId = "302A00D6-A4BF-4816-9BF8-9304575F20B5";
shapes = (
{
closed = 1;
nodes = (
(379,306,l),
(334,306,o),
(307,315,o),
(307,345,cs),
(307,348,o),
(307,353,o),
(308,359,cs),
(312,386,o),
(321,420,o),
(327,449,cs),
(357,589,ls),
(360,602,o),
(361,615,o),
(361,628,cs),
(361,688,o),
(322,729,o),
(264,729,cs),
(186,729,l),
(165,630,l),
(201,630,ls),
(226,630,o),
(240,621,o),
(240,605,c),
(239,595,o),
(239,582,o),
(235,565,cs),
(201,409,l),
(196,389,o),
(191,366,o),
(189,348,cs),
(188,341,o),
(188,334,o),
(188,329,cs),
(188,284,o),
(214,268,o),
(267,260,c),
(195,252,o),
(161,223,o),
(146,151,cs),
(105,-44,ls),
(95,-91,o),
(85,-101,o),
(48,-101,cs),
(10,-101,l),
(-11,-200,l),
(66,-200,ls),
(145,-200,o),
(200,-150,o),
(219,-60,cs),
(249,81,ls),
(268,172,o),
(268,214,o),
(359,214,c)
);
}
);
width = 389;
},
{
layerId = "294D04AE-F7F3-48C8-8CA3-B1C092BC12BA";
shapes = (
{
closed = 1;
nodes = (
(274,293,l),
(249,296,o),
(229,311,o),
(221,334,cs),
(219,341,o),
(217,350,o),
(217,359,cs),
(217,383,o),
(220,402,o),
(226,431,cs),
(261,597,ls),
(265,616,o),
(267,633,o),
(267,647,cs),
(267,696,o),
(232,729,o),
(181,729,cs),
(134,729,l),
(120,664,l),
(136,664,ls),
(174,664,o),
(190,654,o),
(190,630,c),
(190,620,o),
(189,609,o),
(186,597,cs),
(147,416,ls),
(143,397,o),
(141,380,o),
(141,362,cs),
(141,351,o),
(142,342,o),
(144,332,cs),
(150,303,o),
(164,279,o),
(189,257,c),
(125,227,o),
(95,188,o),
(81,100,c),
(48,-51,ls),
(33,-126,o),
(27,-148,o),
(-36,-148,cs),
(-52,-148,l),
(-66,-213,l),
(-19,-213,ls),
(50,-213,o),
(96,-176,o),
(117,-81,cs),
(153,85,l),
(167,167,o),
(198,211,o),
(259,223,c)
);
}
);
width = 334;
},
{
layerId = "9C58397D-E5DA-4355-9ABE-2EAD22125FE9";
shapes = (
{
closed = 1;
nodes = (
(231,287,l),
(214,292,o),
(197,309,o),
(186,329,c),
(183,338,o),
(180,348,o),
(180,359,c),
(178,381,o),
(179,394,o),
(185,423,cs),
(221,600,ls),
(226,622,o),
(228,640,o),
(228,654,cs),
(228,699,o),
(195,729,o),
(147,729,cs),
(112,729,l),
(102,678,l),
(109,678,ls),
(152,678,o),
(169,667,o),
(169,640,c),
(170,630,o),
(168,620,o),
(166,610,cs),
(125,418,ls),
(121,400,o),
(120,386,o),
(121,368,cs),
(122,355,o),
(123,345,o),
(126,333,c),
(134,310,o),
(143,283,o),
(156,255,c),
(96,216,o),
(68,173,o),
(54,78,c),
(25,-54,ls),
(7,-141,o),
(3,-168,o),
(-71,-168,cs),
(-78,-168,l),
(-89,-219,l),
(-55,-219,ls),
(11,-219,o),
(53,-188,o),
(75,-90,cs),
(113,87,l),
(125,164,o),
(169,209,o),
(218,226,c)
);
}
);
width = 312;
}
);
unicode = 125;
},
{
glyphname = bracketleft;
layers = (
{
layerId = "913D8FE6-1CE1-42B9-B98D-9294EEB74CA2";
shapes = (
{
closed = 1;
nodes = (
(261,-193,l),
(285,-79,l),
(167,-79,l),
(313,615,l),
(432,615,l),
(457,729,l),
(185,729,l),
(-10,-193,l)
);
}
);
width = 361;
},
{
layerId = "302A00D6-A4BF-4816-9BF8-9304575F20B5";
shapes = (
{
closed = 1;
nodes = (
(226,-200,l),
(247,-100,l),
(134,-100,l),
(288,629,l),
(401,629,l),
(423,729,l),
(180,729,l),
(-17,-200,l)
);
}
);
width = 333;
},
{
layerId = "294D04AE-F7F3-48C8-8CA3-B1C092BC12BA";
shapes = (
{
closed = 1;
nodes = (
(155,-213,l),
(170,-141,l),
(68,-141,l),
(238,657,l),
(340,657,l),
(355,729,l),
(169,729,l),
(-31,-213,l)
);
}
);
width = 278;
},
{
layerId = "9C58397D-E5DA-4355-9ABE-2EAD22125FE9";
shapes = (
{
closed = 1;
nodes = (
(126,-219,l),
(139,-159,l),
(41,-159,l),
(217,669,l),
(315,669,l),
(327,729,l),
(165,729,l),
(-37,-219,l)
);
}
);
width = 256;
}
);
unicode = 91;
},
{
glyphname = bracketright;
layers = (
{
layerId = "913D8FE6-1CE1-42B9-B98D-9294EEB74CA2";
shapes = (
{
closed = 1;
nodes = (
(210,-193,l),
(406,729,l),
(134,729,l),
(110,615,l),
(228,615,l),
(83,-79,l),
(-36,-79,l),
(-61,-193,l)
);
}
);
width = 361;
},
{
layerId = "302A00D6-A4BF-4816-9BF8-9304575F20B5";
shapes = (
{
closed = 1;
nodes = (
(178,-200,l),
(375,729,l),
(132,729,l),
(111,629,l),
(224,629,l),
(70,-100,l),
(-43,-100,l),
(-65,-200,l)
);
}
);
width = 333;
},
{
layerId = "294D04AE-F7F3-48C8-8CA3-B1C092BC12BA";
shapes = (
{
closed = 1;
nodes = (
(114,-213,l),
(314,729,l),
(127,729,l),
(112,657,l),
(215,657,l),
(45,-141,l),
(-58,-141,l),
(-73,-213,l)
);
}
);
width = 278;
},
{
layerId = "9C58397D-E5DA-4355-9ABE-2EAD22125FE9";
shapes = (
{
closed = 1;
nodes = (
(88,-219,l),
(289,729,l),
(125,729,l),
(113,669,l),
(212,669,l),
(35,-159,l),
(-65,-159,l),
(-76,-219,l)
);
}
);
width = 256;
}
);
unicode = 93;
},
{
glyphname = C;
layers = (
{
hints = (
{
horizontal = 1;
origin = (0,25);
target = (0,3);
type = Stem;
},
{
horizontal = 1;
origin = (0,12);
target = (0,19);
type = Stem;
},
{
origin = (0,22);
target = (0,6);
type = Stem;
}
);
layerId = "913D8FE6-1CE1-42B9-B98D-9294EEB74CA2";
shapes = (
{
closed = 1;
nodes = (
(536,230,l),
(525,166,o),
(456,136,o),
(379,136,cs),
(289,136,o),
(249,168,o),
(249,261,cs),
(249,335,o),
(271,405,o),
(311,470,cs),
(349,533,o),
(404,563,o),
(475,563,cs),
(546,563,o),
(593,533,o),
(589,452,c),
(746,452,l),
(782,621,o),
(663,708,o),
(491,708,cs),
(267,708,o),
(81,524,o),
(81,228,cs),
(81,74,o),
(186,-9,o),
(356,-9,cs),
(533,-9,o),
(672,82,o),
(695,230,c)
);
}
);
width = 722;
},
{
hints = (
{
horizontal = 1;
origin = (0,25);
target = (0,3);
type = Stem;
},
{
horizontal = 1;
origin = (0,12);
target = (0,19);
type = Stem;
},
{
origin = (0,22);
target = (0,6);
type = Stem;
}
);
layerId = "302A00D6-A4BF-4816-9BF8-9304575F20B5";
shapes = (
{
closed = 1;
nodes = (
(551,239,l),
(523,151,o),
(457,111,o),
(364,111,cs),
(271,111,o),
(222,158,o),
(222,259,cs),
(222,338,o),
(246,417,o),
(290,484,cs),
(335,555,o),
(394,588,o),
(471,588,cs),
(551,588,o),
(598,551,o),
(598,463,c),
(733,463,l),
(751,625,o),
(651,711,o),
(487,711,cs),
(260,711,o),
(79,510,o),
(79,231,cs),
(79,78,o),
(180,-12,o),
(344,-12,cs),
(519,-12,o),
(646,75,o),
(688,239,c)
);
}
);
width = 722;
},
{
hints = (
{
horizontal = 1;
origin = (0,25);
target = (0,3);
type = Stem;
},
{
horizontal = 1;
origin = (0,12);
target = (0,19);
type = Stem;
},
{
origin = (0,22);
target = (0,6);
type = Stem;
}
);
layerId = "294D04AE-F7F3-48C8-8CA3-B1C092BC12BA";
shapes = (
{
closed = 1;
nodes = (
(578,255,l),
(517,118,o),
(457,60,o),
(333,60,cs),
(233,60,o),
(167,138,o),
(167,254,cs),
(167,342,o),
(195,439,o),
(244,512,cs),
(303,598,o),
(373,639,o),
(461,639,cs),
(558,639,o),
(605,587,o),
(613,483,c),
(705,483,l),
(696,620,o),
(631,717,o),
(478,717,cs),
(243,717,o),
(74,481,o),
(74,237,cs),
(74,84,o),
(166,-17,o),
(319,-17,cs),
(488,-17,o),
(590,61,o),
(672,255,c)
);
}
);
width = 722;
},
{
hints = (
{
horizontal = 1;
origin = (0,25);
target = (0,3);
type = Stem;
},
{
horizontal = 1;
origin = (0,12);
target = (0,19);
type = Stem;
},
{
origin = (0,22);
target = (0,6);
type = Stem;
}
);
layerId = "9C58397D-E5DA-4355-9ABE-2EAD22125FE9";
shapes = (
{
closed = 1;
nodes = (
(589,263,l),
(515,106,o),
(457,41,o),
(320,41,cs),
(217,41,o),
(144,131,o),
(144,253,cs),
(144,345,o),
(174,449,o),
(226,524,cs),
(291,617,o),
(364,661,o),
(458,661,cs),
(561,661,o),
(608,602,o),
(620,492,c),
(694,492,l),
(678,621,o),
(625,721,o),
(474,721,cs),
(237,721,o),
(73,471,o),
(73,241,cs),
(73,88,o),
(160,-19,o),
(309,-19,cs),
(476,-19,o),
(567,58,o),
(666,263,c)
);
}
);
width = 722;
}
);
unicode = 67;
},
{
glyphname = c;
layers = (
{
hints = (
{
horizontal = 1;
origin = (0,22);
target = (0,9);
type = Stem;
},
{
origin = (0,19);
target = (0,12);
type = Stem;
},
{
horizontal = 1;
place = (-6,129);
type = Stem;
},
{
place = (61,153);
type = Stem;
}
);
layerId = "913D8FE6-1CE1-42B9-B98D-9294EEB74CA2";
shapes = (
{
closed = 1;
nodes = (
(389,190,l),
(360,140,o),
(339,123,o),
(294,123,cs),
(238,123,o),
(214,141,o),
(214,205,cs),
(214,313,o),
(257,424,o),
(348,424,cs),
(416,424,o),
(422,392,o),
(420,332,c),
(579,332,l),
(603,468,o),
(508,553,o),
(372,553,cs),
(277,553,o),
(204,524,o),
(152,463,cs),
(89,389,o),
(61,271,o),
(61,181,cs),
(61,70,o),
(121,-6,o),
(275,-6,cs),
(404,-6,o),
(505,60,o),
(547,190,c)
);
}
);
width = 584;
},
{
hints = (
{
horizontal = 1;
origin = (0,22);
target = (0,9);
type = Stem;
},
{
origin = (0,19);
target = (0,12);
type = Stem;
},
{
horizontal = 1;
place = (-9,112);
type = Stem;
},
{
place = (50,131);
type = Stem;
}
);
layerId = "302A00D6-A4BF-4816-9BF8-9304575F20B5";
shapes = (
{
closed = 1;
nodes = (
(387,187,l),
(358,126,o),
(326,103,o),
(272,103,cs),
(212,103,o),
(181,130,o),
(181,199,cs),
(181,318,o),
(237,437,o),
(337,437,cs),
(408,437,o),
(423,401,o),
(419,338,c),
(553,338,l),
(572,465,o),
(494,549,o),
(358,549,cs),
(264,549,o),
(190,517,o),
(138,454,cs),
(79,383,o),
(50,274,o),
(50,179,cs),
(50,69,o),
(114,-9,o),
(255,-9,cs),
(384,-9,o),
(479,53,o),
(521,187,c)
);
}
);
width = 556;
},
{
hints = (
{
horizontal = 1;
place = (-15,77);
type = Stem;
},
{
horizontal = 1;
origin = (0,22);
target = (0,9);
type = Stem;
},
{
place = (27,88);
type = Stem;
},
{
origin = (0,19);
target = (0,12);
type = Stem;
}
);
layerId = "294D04AE-F7F3-48C8-8CA3-B1C092BC12BA";
shapes = (
{
closed = 1;
nodes = (
(384,180,l),
(354,98,o),
(301,62,o),
(229,62,cs),
(160,62,o),
(115,107,o),
(115,185,cs),
(115,327,o),
(196,462,o),
(316,462,cs),
(390,462,o),
(425,417,o),
(417,348,c),
(501,348,l),
(511,459,o),
(467,539,o),
(331,539,cs),
(239,539,o),
(163,501,o),
(110,436,cs),
(57,371,o),
(27,279,o),
(27,174,cs),
(27,65,o),
(99,-15,o),
(215,-15,cs),
(344,-15,o),
(427,38,o),
(468,180,c)
);
}
);
width = 500;
},
{
hints = (
{
horizontal = 1;
origin = (0,22);
target = (0,9);
type = Stem;
},
{
origin = (0,19);
target = (0,12);
type = Stem;
},
{
horizontal = 1;
place = (-17,63);
type = Stem;
},
{
place = (23,66);
type = Stem;
}
);
layerId = "9C58397D-E5DA-4355-9ABE-2EAD22125FE9";
shapes = (
{
closed = 1;
nodes = (
(384,177,l),
(354,92,o),
(292,46,o),
(212,46,cs),
(139,46,o),
(89,98,o),
(89,180,cs),
(89,331,o),
(180,472,o),
(308,472,cs),
(384,472,o),
(429,425,o),
(417,352,c),
(480,352,l),
(488,456,o),
(457,535,o),
(321,535,cs),
(230,535,o),
(152,495,o),
(99,429,cs),
(48,367,o),
(23,281,o),
(23,172,cs),
(23,65,o),
(94,-17,o),
(199,-17,cs),
(328,-17,o),
(406,33,o),
(447,177,c)
);
}
);
width = 477;
}
);
unicode = 99;
},
{
glyphname = colon;
layers = (
{
layerId = "913D8FE6-1CE1-42B9-B98D-9294EEB74CA2";
shapes = (
{
closed = 1;
nodes = (
(229,0,l),
(265,168,l),
(92,168,l),
(56,0,l)
);
},
{
closed = 1;
nodes = (
(304,351,l),
(340,519,l),
(171,519,l),
(132,351,l)
);
}
);
width = 361;
},
{
layerId = "302A00D6-A4BF-4816-9BF8-9304575F20B5";
shapes = (
{
closed = 1;
nodes = (
(201,0,l),
(232,146,l),
(82,146,l),
(51,0,l)
);
},
{
closed = 1;
nodes = (
(281,374,l),
(312,520,l),
(162,520,l),
(131,374,l)
);
}
);
width = 333;
},
{
layerId = "294D04AE-F7F3-48C8-8CA3-B1C092BC12BA";
shapes = (
{
closed = 1;
nodes = (
(144,0,l),
(166,103,l),
(62,103,l),
(40,0,l)
);
},
{
closed = 1;
nodes = (
(234,421,l),
(256,524,l),
(144,524,l),
(130,421,l)
);
}
);
width = 278;
},
{
layerId = "9C58397D-E5DA-4355-9ABE-2EAD22125FE9";
shapes = (
{
closed = 1;
nodes = (
(121,0,l),
(139,86,l),
(54,86,l),
(36,0,l)
);
},
{
closed = 1;
nodes = (
(215,441,l),
(233,527,l),
(137,527,l),
(130,441,l)
);
}
);
width = 256;
}
);
unicode = 58;
},
{
glyphname = comma;
layers = (
{
hints = (
{
horizontal = 1;
origin = (0,7);
target = (0,6);
type = Stem;
},
{
horizontal = 1;
origin = (0,2);
target = (0,1);
type = Stem;
}
);
layerId = "913D8FE6-1CE1-42B9-B98D-9294EEB74CA2";
shapes = (
{
closed = 1;
nodes = (
(225,168,l),
(53,168,l),
(17,0,l),
(117,0,l),
(104,-61,o),
(61,-106,o),
(-8,-122,c),
(-22,-187,l),
(111,-160,o),
(175,-104,o),
(195,22,c)
);
}
);
width = 278;
},
{
hints = (
{
horizontal = 1;
origin = (0,7);
target = (0,6);
type = Stem;
},
{
horizontal = 1;
origin = (0,2);
target = (0,1);
type = Stem;
}
);
layerId = "302A00D6-A4BF-4816-9BF8-9304575F20B5";
shapes = (
{
closed = 1;
nodes = (
(205,146,l),
(55,146,l),
(24,0,l),
(110,0,l),
(97,-68,o),
(61,-107,o),
(-1,-118,c),
(-13,-174,l),
(98,-156,o),
(156,-104,o),
(176,9,c)
);
}
);
width = 278;
},
{
hints = (
{
horizontal = 1;
origin = (0,7);
target = (0,6);
type = Stem;
},
{
horizontal = 1;
origin = (0,2);
target = (0,1);
type = Stem;
}
);
layerId = "294D04AE-F7F3-48C8-8CA3-B1C092BC12BA";
shapes = (
{
closed = 1;
nodes = (
(164,103,l),
(59,103,l),
(37,0,l),
(96,0,l),
(82,-82,o),
(61,-109,o),
(13,-109,c),
(5,-147,l),
(73,-147,o),
(119,-104,o),
(138,-16,c)
);
}
);
width = 278;
},
{
hints = (
{
horizontal = 1;
origin = (0,7);
target = (0,6);
type = Stem;
},
{
horizontal = 1;
origin = (0,2);
target = (0,1);
type = Stem;
}
);
layerId = "9C58397D-E5DA-4355-9ABE-2EAD22125FE9";
shapes = (
{
closed = 1;
nodes = (
(147,86,l),
(61,86,l),
(43,0,l),
(90,0,l),
(76,-87,o),
(61,-110,o),
(19,-105,c),
(12,-136,l),
(63,-143,o),
(104,-103,o),
(122,-27,cs)
);
}
);
width = 278;
}
);
unicode = 44;
},
{
glyphname = D;
layers = (
{
layerId = "913D8FE6-1CE1-42B9-B98D-9294EEB74CA2";
shapes = (
{
closed = 1;
nodes = (
(733,641,o),
(661,700,o),
(472,700,cs),
(197,700,l),
(49,0,l),
(323,0,ls),
(488,0,o),
(568,37,o),
(640,151,cs),
(701,250,o),
(733,361,o),
(733,455,cs)
);
},
{
closed = 1;
nodes = (
(565,378,o),
(538,272,o),
(508,220,cs),
(470,155,o),
(438,141,o),
(360,141,cs),
(250,141,l),
(337,559,l),
(450,559,ls),
(531,559,o),
(565,526,o),
(565,445,cs)
);
}
);
width = 722;
},
{
layerId = "302A00D6-A4BF-4816-9BF8-9304575F20B5";
shapes = (
{
closed = 1;
nodes = (
(721,628,o),
(646,700,o),
(472,700,cs),
(198,700,l),
(50,0,l),
(323,0,ls),
(462,0,o),
(543,37,o),
(613,134,cs),
(681,228,o),
(721,347,o),
(721,460,cs)
);
},
{
closed = 1;
nodes = (
(578,374,o),
(553,276,o),
(520,219,cs),
(479,147,o),
(432,120,o),
(348,120,cs),
(219,120,l),
(316,580,l),
(446,580,ls),
(534,580,o),
(578,538,o),
(578,450,cs)
);
}
);
width = 722;
},
{
layerId = "294D04AE-F7F3-48C8-8CA3-B1C092BC12BA";
shapes = (
{
closed = 1;
nodes = (
(695,600,o),
(614,700,o),
(471,700,cs),
(200,700,l),
(51,0,l),
(322,0,ls),
(411,0,o),
(493,37,o),
(556,101,cs),
(641,185,o),
(695,318,o),
(695,468,cs)
);
},
{
closed = 1;
nodes = (
(602,367,o),
(581,283,o),
(545,218,cs),
(496,132,o),
(418,79,o),
(323,79,cs),
(158,79,l),
(274,621,l),
(438,621,ls),
(541,621,o),
(602,561,o),
(602,461,cs)
);
}
);
width = 722;
},
{
layerId = "9C58397D-E5DA-4355-9ABE-2EAD22125FE9";
shapes = (
{
closed = 1;
nodes = (
(684,589,o),
(602,700,o),
(471,700,cs),
(201,700,l),
(52,0,l),
(322,0,ls),
(391,0,o),
(473,37,o),
(534,86,c),
(625,167,o),
(684,306,o),
(684,472,cs)
);
},
{
closed = 1;
nodes = (
(613,364,o),
(594,287,o),
(555,218,cs),
(504,126,o),
(412,62,o),
(313,62,cs),
(133,62,l),
(257,638,l),
(435,638,ls),
(545,638,o),
(613,571,o),
(613,466,cs)
);
}
);
width = 722;
}
);
unicode = 68;
},
{
glyphname = d;
layers = (
{
hints = (
{
horizontal = 1;
origin = (0,11);
target = (1,2);
type = Stem;
},
{
horizontal = 1;
origin = (1,8);
target = (0,5);
type = Stem;
},
{
horizontal = 1;
origin = (0,0);
target = down;
type = TopGhost;
},
{
origin = (0,8);
target = (1,5);
type = Stem;
}
);
layerId = "913D8FE6-1CE1-42B9-B98D-9294EEB74CA2";
shapes = (
{
closed = 1;
nodes = (
(691,729,l),
(522,729,l),
(470,480,l),
(452,529,o),
(408,553,o),
(342,553,cs),
(171,553,o),
(48,358,o),
(48,201,cs),
(48,70,o),
(119,-6,o),
(224,-6,cs),
(289,-6,o),
(326,13,o),
(377,53,c),
(366,0,l),
(536,0,l)
);
},
{
closed = 1;
nodes = (
(431,202,o),
(368,123,o),
(294,123,cs),
(251,123,o),
(219,157,o),
(219,222,cs),
(219,332,o),
(288,424,o),
(358,424,cs),
(402,424,o),
(431,383,o),
(431,321,cs)
);
}
);
width = 639;
},
{
hints = (
{
horizontal = 1;
origin = (0,11);
target = (1,2);
type = Stem;
},
{
horizontal = 1;
origin = (1,8);
target = (0,5);
type = Stem;
},
{
horizontal = 1;
origin = (0,0);
target = down;
type = TopGhost;
},
{
origin = (0,8);
target = (1,5);
type = Stem;
}
);
layerId = "302A00D6-A4BF-4816-9BF8-9304575F20B5";
shapes = (
{
closed = 1;
nodes = (
(660,729,l),
(520,729,l),
(465,470,l),
(442,524,o),
(400,549,o),
(332,549,cs),
(163,549,o),
(40,367,o),
(40,192,cs),
(40,66,o),
(110,-9,o),
(214,-9,cs),
(281,-9,o),
(334,16,o),
(378,62,c),
(365,0,l),
(505,0,l)
);
},
{
closed = 1;
nodes = (
(428,197,o),
(357,103,o),
(272,103,cs),
(219,103,o),
(183,141,o),
(183,213,cs),
(183,334,o),
(257,437,o),
(340,437,cs),
(394,437,o),
(428,393,o),
(428,323,cs)
);
}
);
width = 611;
},
{
hints = (
{
horizontal = 1;
origin = (0,11);
target = (1,2);
type = Stem;
},
{
horizontal = 1;
origin = (1,8);
target = (0,5);
type = Stem;
},
{
horizontal = 1;
origin = (0,0);
target = down;
type = TopGhost;
},
{
origin = (0,8);
target = (1,5);
type = Stem;
}
);
layerId = "294D04AE-F7F3-48C8-8CA3-B1C092BC12BA";
shapes = (
{
closed = 1;
nodes = (
(600,729,l),
(516,729,l),
(456,448,l),
(424,513,o),
(384,539,o),
(313,539,cs),
(147,539,o),
(24,385,o),
(24,174,cs),
(24,57,o),
(92,-15,o),
(196,-15,cs),
(266,-15,o),
(351,22,o),
(381,80,c),
(364,0,l),
(445,0,l)
);
},
{
closed = 1;
nodes = (
(423,186,o),
(336,62,o),
(230,62,cs),
(156,62,o),
(112,108,o),
(112,194,cs),
(112,336,o),
(196,462,o),
(305,462,cs),
(379,462,o),
(423,412,o),
(423,327,cs)
);
}
);
width = 556;
},
{
hints = (
{
horizontal = 1;
origin = (0,11);
target = (1,2);
type = Stem;
},
{
horizontal = 1;
origin = (1,8);
target = (0,5);
type = Stem;
},
{
horizontal = 1;
origin = (0,0);
target = down;
type = TopGhost;
},
{
origin = (0,8);
target = (1,5);
type = Stem;
}
);
layerId = "9C58397D-E5DA-4355-9ABE-2EAD22125FE9";
shapes = (
{
closed = 1;
nodes = (
(576,729,l),
(515,729,l),
(453,440,l),
(417,509,o),
(378,536,o),
(306,536,cs),
(141,536,o),
(17,394,o),
(17,168,cs),
(17,54,o),
(85,-17,o),
(189,-17,cs),
(260,-17,o),
(358,25,o),
(383,89,c),
(364,1,l),
(421,1,l)
);
},
{
closed = 1;
nodes = (
(421,182,o),
(328,46,o),
(213,46,cs),
(130,46,o),
(83,95,o),
(83,187,cs),
(83,338,o),
(171,473,o),
(291,473,cs),
(373,473,o),
(421,421,o),
(421,330,cs)
);
}
);
width = 534;
}
);
unicode = 100;
},
{
glyphname = dollar;
layers = (
{
layerId = "913D8FE6-1CE1-42B9-B98D-9294EEB74CA2";
shapes = (
{
closed = 1;
nodes = (
(542,317,o),
(470,379,o),
(366,411,c),
(404,588,l),
(432,581,o),
(447,560,o),
(447,529,cs),
(447,515,o),
(447,510,o),
(443,487,c),
(596,487,l),
(599,510,o),
(600,523,o),
(600,538,cs),
(600,629,o),
(559,691,o),
(428,705,c),
(441,759,l),
(368,759,l),
(357,705,l),
(208,688,o),
(102,595,o),
(102,478,cs),
(102,374,o),
(176,307,o),
(270,289,c),
(230,106,l),
(200,109,o),
(183,137,o),
(183,186,cs),
(183,191,o),
(181,189,o),
(183,206,c),
(27,206,l),
(21,186,o),
(19,170,o),
(19,155,cs),
(19,55,o),
(88,-11,o),
(204,-20,c),
(181,-126,l),
(253,-126,l),
(275,-20,l),
(430,3,o),
(542,95,o),
(542,234,cs)
);
},
{
closed = 1;
nodes = (
(301,437,l),
(274,451,o),
(255,475,o),
(255,501,cs),
(255,544,o),
(278,574,o),
(332,589,c)
);
},
{
closed = 1;
nodes = (
(371,156,o),
(345,124,o),
(302,106,c),
(337,268,l),
(355,256,o),
(371,227,o),
(371,191,cs)
);
}
);
width = 556;
},
{
layerId = "302A00D6-A4BF-4816-9BF8-9304575F20B5";
shapes = (
{
closed = 1;
nodes = (
(533,317,o),
(479,369,o),
(357,407,c),
(400,608,l),
(436,602,o),
(458,576,o),
(458,538,cs),
(458,526,o),
(457,517,o),
(455,498,c),
(583,498,l),
(587,520,o),
(588,532,o),
(588,547,cs),
(588,638,o),
(541,698,o),
(421,709,c),
(433,763,l),
(365,763,l),
(354,709,l),
(203,694,o),
(102,598,o),
(102,475,cs),
(102,383,o),
(156,327,o),
(267,299,c),
(221,86,l),
(177,95,o),
(156,123,o),
(156,174,cs),
(156,181,o),
(156,188,o),
(157,207,c),
(27,207,l),
(21,182,o),
(19,166,o),
(19,148,cs),
(19,51,o),
(83,-9,o),
(199,-21,c),
(176,-126,l),
(244,-126,l),
(266,-21,l),
(424,-4,o),
(533,94,o),
(533,237,cs)
);
},
{
closed = 1;
nodes = (
(294,427,l),
(253,443,o),
(232,468,o),
(232,501,cs),
(232,555,o),
(268,596,o),
(332,608,c)
);
},
{
closed = 1;
nodes = (
(390,142,o),
(353,101,o),
(289,86,c),
(331,282,l),
(370,266,o),
(390,238,o),
(390,198,cs)
);
}
);
width = 556;
},
{
layerId = "294D04AE-F7F3-48C8-8CA3-B1C092BC12BA";
shapes = (
{
closed = 1;
nodes = (
(515,317,o),
(497,348,o),
(337,397,c),
(390,646,l),
(445,643,o),
(480,607,o),
(480,555,cs),
(480,548,o),
(478,530,o),
(478,519,c),
(557,519,l),
(562,539,o),
(563,549,o),
(563,565,cs),
(563,655,o),
(505,711,o),
(405,716,c),
(416,770,l),
(357,770,l),
(346,716,l),
(194,705,o),
(102,604,o),
(102,469,cs),
(102,401,o),
(117,368,o),
(261,318,c),
(203,46,l),
(130,67,o),
(102,95,o),
(102,150,cs),
(102,161,o),
(106,187,o),
(106,208,c),
(27,208,l),
(21,174,o),
(19,157,o),
(19,134,cs),
(19,43,o),
(72,-5,o),
(189,-23,c),
(167,-126,l),
(226,-126,l),
(248,-23,l),
(412,-19,o),
(515,93,o),
(515,243,cs)
);
},
{
closed = 1;
nodes = (
(280,405,l),
(211,426,o),
(185,452,o),
(185,501,cs),
(185,575,o),
(246,639,o),
(331,645,c)
);
},
{
closed = 1;
nodes = (
(427,114,o),
(367,54,o),
(262,46,c),
(318,309,l),
(399,285,o),
(427,259,o),
(427,211,cs)
);
}
);
width = 556;
},
{
layerId = "9C58397D-E5DA-4355-9ABE-2EAD22125FE9";
shapes = (
{
closed = 1;
nodes = (
(509,317,o),
(506,340,o),
(330,393,c),
(387,661,l),
(449,660,o),
(489,620,o),
(489,562,cs),
(489,557,o),
(487,536,o),
(488,528,c),
(547,528,l),
(552,547,o),
(553,556,o),
(553,572,cs),
(553,662,o),
(490,717,o),
(399,719,c),
(410,773,l),
(355,773,l),
(344,719,l),
(191,710,o),
(102,606,o),
(102,466,cs),
(102,408,o),
(101,385,o),
(259,326,c),
(196,29,l),
(111,55,o),
(80,83,o),
(80,140,cs),
(80,153,o),
(86,187,o),
(86,209,c),
(27,209,l),
(21,171,o),
(19,154,o),
(19,128,cs),
(19,40,o),
(68,-3,o),
(186,-24,c),
(164,-126,l),
(219,-126,l),
(241,-24,l),
(408,-25,o),
(509,93,o),
(509,245,cs)
);
},
{
closed = 1;
nodes = (
(275,396,l),
(195,419,o),
(166,445,o),
(166,501,cs),
(166,583,o),
(238,657,o),
(331,660,c)
);
},
{
closed = 1;
nodes = (
(443,102,o),
(374,35,o),
(251,29,c),
(313,320,l),
(412,293,o),
(443,268,o),
(443,217,cs)
);
}
);
width = 556;
}
);
unicode = 36;
},
{
glyphname = E;
layers = (
{
hints = (
{
horizontal = 1;
origin = (0,10);
target = (0,1);
type = Stem;
},
{
horizontal = 1;
origin = (0,2);
target = (0,5);
type = Stem;
},
{
horizontal = 1;
origin = (0,6);
target = (0,9);
type = Stem;
}
);
layerId = "913D8FE6-1CE1-42B9-B98D-9294EEB74CA2";
shapes = (
{
closed = 1;
nodes = (
(615,141,l),
(251,141,l),
(283,293,l),
(596,293,l),
(625,434,l),
(312,434,l),
(339,559,l),
(685,559,l),
(716,700,l),
(198,700,l),
(49,0,l),
(584,0,l)
);
}
);
width = 667;
},
{
hints = (
{
horizontal = 1;
origin = (0,10);
target = (0,1);
type = Stem;
},
{
horizontal = 1;
origin = (0,2);
target = (0,5);
type = Stem;
},
{
horizontal = 1;
origin = (0,6);
target = (0,9);
type = Stem;
}
);
layerId = "302A00D6-A4BF-4816-9BF8-9304575F20B5";
shapes = (
{
closed = 1;
nodes = (
(600,120,l),
(220,120,l),
(259,301,l),
(594,301,l),
(619,421,l),
(284,421,l),
(317,580,l),
(680,580,l),
(706,700,l),
(199,700,l),
(50,0,l),
(574,0,l)
);
}
);
width = 667;
},
{
hints = (
{
horizontal = 1;
origin = (0,10);
target = (0,1);
type = Stem;
},
{
horizontal = 1;
origin = (0,2);
target = (0,5);
type = Stem;
},
{
horizontal = 1;
origin = (0,6);
target = (0,9);
type = Stem;
}
);
layerId = "294D04AE-F7F3-48C8-8CA3-B1C092BC12BA";
shapes = (
{
closed = 1;
nodes = (
(570,79,l),
(158,79,l),
(210,319,l),
(589,319,l),
(606,397,l),
(226,397,l),
(274,621,l),
(670,621,l),
(686,700,l),
(200,700,l),
(51,0,l),
(553,0,l)
);
}
);
width = 667;
},
{
hints = (
{
horizontal = 1;
origin = (0,10);
target = (0,1);
type = Stem;
},
{
horizontal = 1;
origin = (0,2);
target = (0,5);
type = Stem;
},
{
horizontal = 1;
origin = (0,6);
target = (0,9);
type = Stem;
}
);
layerId = "9C58397D-E5DA-4355-9ABE-2EAD22125FE9";
shapes = (
{
closed = 1;
nodes = (
(558,62,l),
(132,62,l),
(190,326,l),
(587,326,l),
(602,388,l),
(202,388,l),
(257,638,l),
(666,638,l),
(678,700,l),
(201,700,l),
(52,0,l),
(546,0,l)
);
}
);
width = 667;
}
);
unicode = 69;
},
{
glyphname = e;
layers = (
{
hints = (
{
horizontal = 1;
origin = (0,12);
target = (0,19);
type = Stem;
},
{
horizontal = 1;
origin = (0,0);
target = (1,9);
type = Stem;
},
{
horizontal = 1;
origin = (1,3);
target = (0,6);
type = Stem;
},
{
origin = (0,9);
target = (0,22);
type = Stem;
},
{
origin = (1,6);
target = (0,3);
type = Stem;
}
);
layerId = "913D8FE6-1CE1-42B9-B98D-9294EEB74CA2";
shapes = (
{
closed = 1;
nodes = (
(544,231,l),
(556,273,o),
(562,300,o),
(562,343,cs),
(562,457,o),
(486,553,o),
(339,553,cs),
(135,553,o),
(20,388,o),
(20,200,cs),
(20,65,o),
(113,-6,o),
(240,-6,cs),
(362,-6,o),
(463,57,o),
(525,148,c),
(360,148,l),
(352,143,o),
(312,123,o),
(273,123,cs),
(227,123,o),
(193,156,o),
(193,197,c),
(194,202,o),
(190,198,o),
(192,231,c)
);
},
{
closed = 1;
nodes = (
(210,334,l),
(230,409,o),
(263,424,o),
(320,424,cs),
(368,424,o),
(393,410,o),
(393,342,cs),
(393,340,o),
(394,335,o),
(394,334,c)
);
}
);
width = 556;
},
{
hints = (
{
horizontal = 1;
origin = (0,12);
target = (0,19);
type = Stem;
},
{
horizontal = 1;
origin = (0,0);
target = (1,9);
type = Stem;
},
{
horizontal = 1;
origin = (1,3);
target = (0,6);
type = Stem;
},
{
origin = (0,9);
target = (0,22);
type = Stem;
},
{
origin = (1,6);
target = (0,3);
type = Stem;
}
);
layerId = "302A00D6-A4BF-4816-9BF8-9304575F20B5";
shapes = (
{
closed = 1;
nodes = (
(534,233,l),
(546,277,o),
(551,313,o),
(551,351,cs),
(551,460,o),
(473,549,o),
(339,549,cs),
(141,549,o),
(25,379,o),
(25,192,cs),
(25,68,o),
(113,-9,o),
(238,-9,cs),
(359,-9,o),
(460,55,o),
(512,152,c),
(374,152,l),
(357,128,o),
(313,103,o),
(265,103,cs),
(208,103,o),
(170,140,o),
(170,195,cs),
(170,204,o),
(168,205,o),
(171,233,c)
);
},
{
closed = 1;
nodes = (
(189,326,l),
(211,406,o),
(257,437,o),
(322,437,cs),
(377,437,o),
(409,412,o),
(409,341,cs),
(409,336,o),
(409,331,o),
(409,326,c)
);
}
);
width = 556;
},
{
hints = (
{
horizontal = 1;
origin = (0,12);
target = (0,19);
type = Stem;
},
{
horizontal = 1;
origin = (0,0);
target = (1,9);
type = Stem;
},
{
horizontal = 1;
origin = (1,3);
target = (0,6);
type = Stem;
},
{
origin = (0,9);
target = (0,22);
type = Stem;
},
{
origin = (1,6);
target = (0,3);
type = Stem;
}
);
layerId = "294D04AE-F7F3-48C8-8CA3-B1C092BC12BA";
shapes = (
{
closed = 1;
nodes = (
(514,238,l),
(527,285,o),
(530,339,o),
(530,368,cs),
(530,464,o),
(447,539,o),
(339,539,cs),
(152,539,o),
(35,361,o),
(35,177,cs),
(35,73,o),
(112,-15,o),
(234,-15,cs),
(354,-15,o),
(455,51,o),
(486,159,c),
(402,159,l),
(368,98,o),
(315,62,o),
(248,62,cs),
(168,62,o),
(123,109,o),
(123,192,c),
(122,209,o),
(123,219,o),
(128,238,c)
);
},
{
closed = 1;
nodes = (
(146,310,l),
(171,398,o),
(245,462,o),
(326,462,cs),
(397,462,o),
(442,414,o),
(442,339,cs),
(442,329,o),
(441,322,o),
(440,310,c)
);
}
);
width = 556;
},
{
hints = (
{
horizontal = 1;
origin = (0,12);
target = (0,19);
type = Stem;
},
{
horizontal = 1;
origin = (0,0);
target = (1,9);
type = Stem;
},
{
horizontal = 1;
origin = (1,3);
target = (0,6);
type = Stem;
},
{
origin = (0,9);
target = (0,22);
type = Stem;
},
{
origin = (1,6);
target = (0,3);
type = Stem;
}
);
layerId = "9C58397D-E5DA-4355-9ABE-2EAD22125FE9";
shapes = (
{
closed = 1;
nodes = (
(507,240,l),
(520,289,o),
(522,351,o),
(522,375,cs),
(522,467,o),
(437,536,o),
(340,536,cs),
(157,536,o),
(39,354,o),
(39,171,cs),
(39,76,o),
(112,-17,o),
(233,-17,cs),
(352,-17,o),
(453,51,o),
(476,162,c),
(414,162,l),
(373,87,o),
(317,46,o),
(241,46,cs),
(152,46,o),
(104,97,o),
(104,191,c),
(102,211,o),
(105,225,o),
(111,240,c)
);
},
{
closed = 1;
nodes = (
(129,304,l),
(155,396,o),
(241,473,o),
(328,473,cs),
(406,473,o),
(456,416,o),
(456,339,cs),
(456,326,o),
(455,319,o),
(453,304,c)
);
}
);
width = 556;
}
);
unicode = 101;
},
{
glyphname = eight;
layers = (
{
layerId = "913D8FE6-1CE1-42B9-B98D-9294EEB74CA2";
shapes = (
{
closed = 1;
nodes = (
(539,317,o),
(518,340,o),
(456,378,c),
(538,426,o),
(582,484,o),
(582,554,cs),
(582,644,o),
(499,706,o),
(383,706,cs),
(238,706,o),
(119,604,o),
(119,485,cs),
(119,444,o),
(140,410,o),
(183,378,c),
(70,319,o),
(27,251,o),
(27,163,cs),
(27,54,o),
(111,-6,o),
(242,-6,cs),
(419,-6,o),
(539,115,o),
(539,258,cs)
);
},
{
closed = 1;
nodes = (
(436,463,o),
(384,418,o),
(325,418,cs),
(283,418,o),
(254,446,o),
(254,487,cs),
(254,538,o),
(300,581,o),
(356,581,cs),
(402,581,o),
(436,555,o),
(436,519,cs)
);
},
{
closed = 1;
nodes = (
(374,178,o),
(334,133,o),
(270,133,cs),
(228,133,o),
(191,153,o),
(191,191,cs),
(191,266,o),
(240,316,o),
(305,316,cs),
(346,316,o),
(374,299,o),
(374,256,cs)
);
}
);
width = 556;
},
{
layerId = "302A00D6-A4BF-4816-9BF8-9304575F20B5";
shapes = (
{
closed = 1;
nodes = (
(531,313,o),
(507,342,o),
(447,379,c),
(533,429,o),
(573,485,o),
(573,558,cs),
(573,648,o),
(494,709,o),
(380,709,cs),
(238,709,o),
(118,607,o),
(118,485,cs),
(118,443,o),
(137,412,o),
(183,379,c),
(72,322,o),
(26,252,o),
(26,159,cs),
(26,52,o),
(109,-9,o),
(239,-9,cs),
(406,-9,o),
(531,111,o),
(531,255,cs)
);
},
{
closed = 1;
nodes = (
(446,466,o),
(390,416,o),
(321,416,cs),
(271,416,o),
(238,446,o),
(238,490,cs),
(238,551,o),
(290,600,o),
(356,600,cs),
(409,600,o),
(446,571,o),
(446,528,cs)
);
},
{
closed = 1;
nodes = (
(390,164,o),
(337,110,o),
(260,110,cs),
(207,110,o),
(165,137,o),
(165,184,cs),
(165,265,o),
(225,323,o),
(301,323,cs),
(355,323,o),
(390,299,o),
(390,249,cs)
);
}
);
width = 556;
},
{
layerId = "294D04AE-F7F3-48C8-8CA3-B1C092BC12BA";
shapes = (
{
closed = 1;
nodes = (
(512,303,o),
(484,343,o),
(427,376,c),
(523,433,o),
(555,486,o),
(555,565,cs),
(555,652,o),
(483,714,o),
(371,714,cs),
(237,714,o),
(117,612,o),
(117,484,cs),
(117,436,o),
(130,415,o),
(182,376,c),
(76,327,o),
(23,253,o),
(23,150,cs),
(23,48,o),
(106,-14,o),
(232,-14,cs),
(378,-14,o),
(512,103,o),
(512,245,cs)
);
},
{
closed = 1;
nodes = (
(466,472,o),
(403,411,o),
(313,411,cs),
(246,411,o),
(206,442,o),
(206,494,cs),
(206,577,o),
(269,636,o),
(357,636,cs),
(425,636,o),
(466,603,o),
(466,548,cs)
);
},
{
closed = 1;
nodes = (
(423,135,o),
(343,64,o),
(238,64,cs),
(163,64,o),
(111,102,o),
(111,165,cs),
(111,264,o),
(192,337,o),
(293,337,cs),
(372,337,o),
(423,298,o),
(423,232,cs)
);
}
);
width = 556;
},
{
layerId = "9C58397D-E5DA-4355-9ABE-2EAD22125FE9";
shapes = (
{
closed = 1;
nodes = (
(504,299,o),
(474,345,o),
(419,376,c),
(519,436,o),
(547,487,o),
(547,569,cs),
(547,655,o),
(478,717,o),
(368,717,cs),
(236,717,o),
(117,615,o),
(117,484,cs),
(117,434,o),
(128,417,o),
(183,376,c),
(79,330,o),
(22,254,o),
(22,148,cs),
(22,47,o),
(105,-16,o),
(230,-16,cs),
(366,-16,o),
(504,100,o),
(504,242,cs)
);
},
{
closed = 1;
nodes = (
(475,476,o),
(409,410,o),
(311,410,cs),
(236,410,o),
(192,442,o),
(192,498,cs),
(192,589,o),
(262,652,o),
(358,652,cs),
(432,652,o),
(475,617,o),
(475,558,cs)
);
},
{
closed = 1;
nodes = (
(437,122,o),
(347,44,o),
(230,44,cs),
(146,44,o),
(88,89,o),
(88,159,cs),
(88,263,o),
(179,343,o),
(290,343,cs),
(380,343,o),
(437,298,o),
(437,225,cs)
);
}
);
width = 556;
}
);
unicode = 56;
},
{
glyphname = equal;
layers = (
{
layerId = "913D8FE6-1CE1-42B9-B98D-9294EEB74CA2";
shapes = (
{
closed = 1;
nodes = (
(549,283,l),
(549,399,l),
(77,399,l),
(77,283,l)
);
},
{
closed = 1;
nodes = (
(549,101,l),
(549,217,l),
(77,217,l),
(77,101,l)
);
}
);
width = 584;
},
{
layerId = "302A00D6-A4BF-4816-9BF8-9304575F20B5";
shapes = (
{
closed = 1;
nodes = (
(538,291,l),
(538,391,l),
(74,391,l),
(74,291,l)
);
},
{
closed = 1;
nodes = (
(538,109,l),
(538,209,l),
(74,209,l),
(74,109,l)
);
}
);
width = 584;
},
{
layerId = "294D04AE-F7F3-48C8-8CA3-B1C092BC12BA";
shapes = (
{
closed = 1;
nodes = (
(516,307,l),
(516,375,l),
(68,375,l),
(68,307,l)
);
},
{
closed = 1;
nodes = (
(516,125,l),
(516,193,l),
(68,193,l),
(68,125,l)
);
}
);
width = 584;
},
{
layerId = "9C58397D-E5DA-4355-9ABE-2EAD22125FE9";
shapes = (
{
closed = 1;
nodes = (
(507,314,l),
(507,369,l),
(66,369,l),
(66,314,l)
);
},
{
closed = 1;
nodes = (
(507,132,l),
(507,187,l),
(66,187,l),
(66,132,l)
);
}
);
width = 584;
}
);
unicode = 61;
},
{
glyphname = exclam;
layers = (
{
layerId = "913D8FE6-1CE1-42B9-B98D-9294EEB74CA2";
shapes = (
{
closed = 1;
nodes = (
(209,725,l),
(173,556,l),
(167,431,l),
(154,227,l),
(235,227,l),
(281,352,l),
(349,526,l),
(364,592,o),
(379,659,o),
(392,725,c)
);
},
{
closed = 1;
nodes = (
(237,0,l),
(272,168,l),
(90,168,l),
(54,0,l)
);
}
);
width = 361;
},
{
layerId = "302A00D6-A4BF-4816-9BF8-9304575F20B5";
shapes = (
{
closed = 1;
nodes = (
(207,726,l),
(162,516,l),
(154,413,l),
(138,207,l),
(205,207,l),
(258,361,l),
(312,516,l),
(327,586,o),
(342,656,o),
(357,726,c)
);
},
{
closed = 1;
nodes = (
(202,0,l),
(233,146,l),
(83,146,l),
(52,0,l)
);
}
);
width = 333;
},
{
layerId = "294D04AE-F7F3-48C8-8CA3-B1C092BC12BA";
shapes = (
{
closed = 1;
nodes = (
(202,729,l),
(140,437,l),
(128,379,l),
(105,168,l),
(145,168,l),
(212,379,l),
(237,496,l),
(253,574,o),
(269,651,o),
(286,729,c)
);
},
{
closed = 1;
nodes = (
(131,0,l),
(153,103,l),
(69,103,l),
(47,0,l)
);
}
);
width = 278;
},
{
layerId = "9C58397D-E5DA-4355-9ABE-2EAD22125FE9";
shapes = (
{
closed = 1;
nodes = (
(200,731,l),
(131,405,l),
(117,366,l),
(92,153,l),
(120,153,l),
(193,388,l),
(206,489,l),
(222,570,o),
(239,650,o),
(257,731,c)
);
},
{
closed = 1;
nodes = (
(102,0,l),
(120,86,l),
(63,86,l),
(45,0,l)
);
}
);
width = 256;
}
);
unicode = 33;
},
{
glyphname = F;
layers = (
{
layerId = "913D8FE6-1CE1-42B9-B98D-9294EEB74CA2";
shapes = (
{
closed = 1;
nodes = (
(693,700,l),
(191,700,l),
(42,0,l),
(212,0,l),
(275,293,l),
(568,293,l),
(598,434,l),
(304,434,l),
(331,559,l),
(663,559,l)
);
}
);
width = 611;
},
{
layerId = "302A00D6-A4BF-4816-9BF8-9304575F20B5";
shapes = (
{
closed = 1;
nodes = (
(685,700,l),
(193,700,l),
(45,0,l),
(189,0,l),
(253,301,l),
(559,301,l),
(585,421,l),
(278,421,l),
(312,580,l),
(659,580,l)
);
}
);
width = 611;
},
{
layerId = "294D04AE-F7F3-48C8-8CA3-B1C092BC12BA";
shapes = (
{
closed = 1;
nodes = (
(669,700,l),
(199,700,l),
(50,0,l),
(141,0,l),
(209,319,l),
(542,319,l),
(558,397,l),
(225,397,l),
(273,621,l),
(652,621,l)
);
}
);
width = 611;
},
{
layerId = "9C58397D-E5DA-4355-9ABE-2EAD22125FE9";
shapes = (
{
closed = 1;
nodes = (
(662,700,l),
(201,700,l),
(52,0,l),
(121,0,l),
(191,326,l),
(535,326,l),
(547,388,l),
(203,388,l),
(257,638,l),
(650,638,l)
);
}
);
width = 611;
}
);
unicode = 70;
},
{
glyphname = f;
layers = (
{
hints = (
{
horizontal = 1;
origin = (0,20);
target = up;
type = BottomGhost;
},
{
horizontal = 1;
origin = (0,18);
target = (0,17);
type = Stem;
},
{
horizontal = 1;
origin = (0,5);
target = (0,12);
type = Stem;
}
);
layerId = "913D8FE6-1CE1-42B9-B98D-9294EEB74CA2";
shapes = (
{
closed = 1;
nodes = (
(417,532,l),
(336,532,l),
(346,577,ls),
(350,596,o),
(361,608,o),
(379,608,cs),
(391,608,o),
(395,606,o),
(429,603,c),
(455,726,l),
(424,725,o),
(392,728,o),
(361,728,cs),
(262,728,o),
(203,692,o),
(183,600,cs),
(168,532,l),
(89,532,l),
(66,426,l),
(147,426,l),
(55,0,l),
(224,0,l),
(314,426,l),
(394,426,l)
);
}
);
width = 361;
},
{
hints = (
{
horizontal = 1;
origin = (0,20);
target = up;
type = BottomGhost;
},
{
horizontal = 1;
origin = (0,18);
target = (0,17);
type = Stem;
},
{
horizontal = 1;
origin = (0,5);
target = (0,12);
type = Stem;
}
);
layerId = "302A00D6-A4BF-4816-9BF8-9304575F20B5";
shapes = (
{
closed = 1;
nodes = (
(385,529,l),
(302,529,l),
(314,582,ls),
(320,611,o),
(333,625,o),
(360,625,cs),
(370,625,o),
(375,624,o),
(402,621,c),
(424,726,l),
(398,727,o),
(373,729,o),
(347,729,cs),
(249,729,o),
(196,686,o),
(176,594,cs),
(162,529,l),
(86,529,l),
(66,436,l),
(143,436,l),
(50,0,l),
(190,0,l),
(283,436,l),
(365,436,l)
);
}
);
width = 333;
},
{
hints = (
{
horizontal = 1;
origin = (0,20);
target = up;
type = BottomGhost;
},
{
horizontal = 1;
origin = (0,18);
target = (0,17);
type = Stem;
},
{
horizontal = 1;
origin = (0,5);
target = (0,12);
type = Stem;
}
);
layerId = "294D04AE-F7F3-48C8-8CA3-B1C092BC12BA";
shapes = (
{
closed = 1;
nodes = (
(320,524,l),
(234,524,l),
(249,593,ls),
(260,643,o),
(278,660,o),
(321,660,cs),
(328,660,o),
(334,660,o),
(348,658,c),
(363,727,l),
(345,731,o),
(334,732,o),
(318,732,cs),
(224,732,o),
(181,674,o),
(163,583,cs),
(150,524,l),
(80,524,l),
(66,457,l),
(136,457,l),
(39,0,l),
(123,0,l),
(220,457,l),
(306,457,l)
);
}
);
width = 278;
},
{
hints = (
{
horizontal = 1;
origin = (0,20);
target = up;
type = BottomGhost;
},
{
horizontal = 1;
origin = (0,18);
target = (0,17);
type = Stem;
},
{
horizontal = 1;
origin = (0,5);
target = (0,12);
type = Stem;
}
);
layerId = "9C58397D-E5DA-4355-9ABE-2EAD22125FE9";
shapes = (
{
closed = 1;
nodes = (
(294,522,l),
(206,522,l),
(223,598,ls),
(235,657,o),
(256,675,o),
(305,675,cs),
(311,675,o),
(317,676,o),
(326,674,c),
(338,728,l),
(323,734,o),
(318,734,o),
(306,734,cs),
(214,734,o),
(175,670,o),
(158,579,c),
(145,522,l),
(78,522,l),
(66,466,l),
(134,466,l),
(35,0,l),
(96,0,l),
(194,466,l),
(282,466,l)
);
}
);
width = 256;
}
);
unicode = 102;
},
{
glyphname = five;
layers = (
{
layerId = "913D8FE6-1CE1-42B9-B98D-9294EEB74CA2";
shapes = (
{
closed = 1;
nodes = (
(533,406,o),
(471,485,o),
(368,485,cs),
(322,485,o),
(288,473,o),
(242,442,c),
(288,559,l),
(573,559,l),
(605,700,l),
(224,700,l),
(77,313,l),
(222,313,l),
(225,336,o),
(265,358,o),
(298,358,cs),
(343,358,o),
(366,321,o),
(366,274,cs),
(366,185,o),
(323,134,o),
(258,134,cs),
(208,134,o),
(182,154,o),
(193,203,c),
(34,203,l),
(29,177,o),
(27,164,o),
(27,149,cs),
(27,64,o),
(102,-7,o),
(222,-7,cs),
(401,-7,o),
(533,123,o),
(533,295,cs)
);
}
);
width = 556;
},
{
layerId = "302A00D6-A4BF-4816-9BF8-9304575F20B5";
shapes = (
{
closed = 1;
nodes = (
(528,405,o),
(462,480,o),
(355,480,cs),
(309,480,o),
(271,468,o),
(225,437,c),
(277,577,l),
(569,577,l),
(596,700,l),
(218,700,l),
(75,317,l),
(199,317,l),
(221,351,o),
(258,369,o),
(299,369,cs),
(356,369,o),
(386,330,o),
(386,273,cs),
(386,173,o),
(331,111,o),
(250,111,cs),
(189,111,o),
(159,138,o),
(165,197,c),
(29,197,l),
(25,177,o),
(24,166,o),
(24,153,cs),
(24,56,o),
(103,-9,o),
(222,-9,cs),
(394,-9,o),
(528,121,o),
(528,296,cs)
);
}
);
width = 556;
},
{
layerId = "294D04AE-F7F3-48C8-8CA3-B1C092BC12BA";
shapes = (
{
closed = 1;
nodes = (
(517,403,o),
(444,471,o),
(331,471,cs),
(282,471,o),
(238,459,o),
(189,428,c),
(257,613,l),
(559,613,l),
(577,700,l),
(205,700,l),
(71,326,l),
(152,326,l),
(213,381,o),
(243,393,o),
(302,393,cs),
(383,393,o),
(429,349,o),
(429,272,cs),
(429,147,o),
(347,64,o),
(234,64,cs),
(149,64,o),
(111,105,o),
(108,184,c),
(19,184,l),
(19,177,o),
(19,169,o),
(19,162,cs),
(19,39,o),
(107,-14,o),
(221,-14,cs),
(379,-14,o),
(517,118,o),
(517,298,cs)
);
}
);
width = 556;
},
{
layerId = "9C58397D-E5DA-4355-9ABE-2EAD22125FE9";
shapes = (
{
closed = 1;
nodes = (
(513,402,o),
(436,468,o),
(319,468,cs),
(271,468,o),
(225,454,o),
(174,424,c),
(249,627,l),
(555,627,l),
(568,700,l),
(199,700,l),
(71,330,l),
(133,330,l),
(211,393,o),
(238,404,o),
(304,404,cs),
(394,404,o),
(447,358,o),
(447,272,cs),
(447,136,o),
(355,44,o),
(226,44,cs),
(131,44,o),
(88,88,o),
(84,180,c),
(15,180,l),
(17,178,o),
(17,170,o),
(17,166,cs),
(17,32,o),
(108,-16,o),
(222,-16,cs),
(371,-16,o),
(513,117,o),
(513,299,cs)
);
}
);
width = 556;
}
);
unicode = 53;
},
{
glyphname = four;
layers = (
{
layerId = "913D8FE6-1CE1-42B9-B98D-9294EEB74CA2";
shapes = (
{
closed = 1;
nodes = (
(544,281,l),
(487,281,l),
(576,700,l),
(364,700,l),
(48,278,l),
(21,148,l),
(296,148,l),
(263,0,l),
(428,0,l),
(459,148,l),
(515,148,l)
);
},
{
closed = 1;
nodes = (
(387,579,l),
(324,281,l),
(159,281,l)
);
}
);
width = 556;
},
{
layerId = "302A00D6-A4BF-4816-9BF8-9304575F20B5";
shapes = (
{
closed = 1;
nodes = (
(536,269,l),
(463,269,l),
(555,700,l),
(392,700,l),
(44,271,l),
(20,155,l),
(301,155,l),
(267,0,l),
(406,0,l),
(439,155,l),
(511,155,l)
);
},
{
closed = 1;
nodes = (
(389,569,l),
(325,269,l),
(143,269,l)
);
}
);
width = 556;
},
{
layerId = "294D04AE-F7F3-48C8-8CA3-B1C092BC12BA";
shapes = (
{
closed = 1;
nodes = (
(520,245,l),
(415,245,l),
(512,700,l),
(447,700,l),
(37,259,l),
(16,168,l),
(312,168,l),
(276,0,l),
(363,0,l),
(399,168,l),
(503,168,l)
);
},
{
closed = 1;
nodes = (
(392,549,l),
(329,245,l),
(111,245,l)
);
}
);
width = 556;
},
{
layerId = "9C58397D-E5DA-4355-9ABE-2EAD22125FE9";
shapes = (
{
closed = 1;
nodes = (
(513,235,l),
(395,235,l),
(494,700,l),
(445,700,l),
(27,229,l),
(15,174,l),
(315,174,l),
(279,0,l),
(345,0,l),
(382,174,l),
(500,174,l)
);
},
{
closed = 1;
nodes = (
(402,566,l),
(331,235,l),
(104,235,l)
);
}
);
width = 556;
}
);
unicode = 52;
},
{
glyphname = G;
layers = (
{
hints = (
{
horizontal = 1;
origin = (0,28);
target = (0,6);
type = Stem;
},
{
horizontal = 1;
origin = (0,2);
target = (0,1);
type = Stem;
},
{
horizontal = 1;
origin = (0,12);
target = (0,22);
type = Stem;
},
{
origin = (0,25);
target = (0,9);
type = Stem;
}
);
layerId = "913D8FE6-1CE1-42B9-B98D-9294EEB74CA2";
shapes = (
{
closed = 1;
nodes = (
(746,380,l),
(471,380,l),
(441,239,l),
(574,239,l),
(541,157,o),
(457,136,o),
(401,136,cs),
(326,136,o),
(253,200,o),
(253,282,cs),
(253,447,o),
(341,563,o),
(471,563,cs),
(559,563,o),
(605,529,o),
(615,470,c),
(769,470,l),
(769,485,o),
(773,498,o),
(773,510,cs),
(773,627,o),
(662,708,o),
(503,708,cs),
(271,708,o),
(85,500,o),
(85,258,cs),
(85,94,o),
(195,-9,o),
(372,-9,cs),
(456,-9,o),
(515,18,o),
(577,93,c),
(563,0,l),
(664,0,l)
);
}
);
width = 778;
},
{
hints = (
{
horizontal = 1;
origin = (0,28);
target = (0,6);
type = Stem;
},
{
horizontal = 1;
origin = (0,2);
target = (0,1);
type = Stem;
},
{
horizontal = 1;
origin = (0,12);
target = (0,22);
type = Stem;
},
{
origin = (0,25);
target = (0,9);
type = Stem;
}
);
layerId = "302A00D6-A4BF-4816-9BF8-9304575F20B5";
shapes = (
{
closed = 1;
nodes = (
(741,376,l),
(460,376,l),
(435,256,l),
(594,256,l),
(562,156,o),
(473,111,o),
(388,111,cs),
(294,111,o),
(224,180,o),
(224,278,cs),
(224,452,o),
(328,588,o),
(476,588,cs),
(567,588,o),
(622,548,o),
(629,476,c),
(762,476,l),
(762,488,o),
(764,498,o),
(764,508,cs),
(764,629,o),
(659,711,o),
(503,711,cs),
(264,711,o),
(81,493,o),
(81,257,cs),
(81,90,o),
(190,-12,o),
(359,-12,cs),
(448,-12,o),
(510,14,o),
(581,90,c),
(574,0,l),
(660,0,l)
);
}
);
width = 778;
},
{
hints = (
{
horizontal = 1;
origin = (0,28);
target = (0,6);
type = Stem;
},
{
horizontal = 1;
origin = (0,2);
target = (0,1);
type = Stem;
},
{
horizontal = 1;
origin = (0,12);
target = (0,22);
type = Stem;
},
{
origin = (0,25);
target = (0,9);
type = Stem;
}
);
layerId = "294D04AE-F7F3-48C8-8CA3-B1C092BC12BA";
shapes = (
{
closed = 1;
nodes = (
(729,370,l),
(437,370,l),
(420,291,l),
(633,291,l),
(603,153,o),
(504,60,o),
(364,60,cs),
(230,60,o),
(166,138,o),
(166,271,cs),
(166,463,o),
(301,639,o),
(484,639,cs),
(582,639,o),
(655,586,o),
(657,488,c),
(745,488,l),
(745,493,o),
(745,498,o),
(745,504,cs),
(745,632,o),
(652,717,o),
(502,717,cs),
(246,717,o),
(74,480,o),
(74,255,cs),
(74,81,o),
(180,-17,o),
(332,-17,cs),
(431,-17,o),
(499,7,o),
(589,83,c),
(594,0,l),
(651,0,l)
);
}
);
width = 778;
},
{
hints = (
{
horizontal = 1;
origin = (0,28);
target = (0,6);
type = Stem;
},
{
horizontal = 1;
origin = (0,2);
target = (0,1);
type = Stem;
},
{
horizontal = 1;
origin = (0,12);
target = (0,22);
type = Stem;
},
{
origin = (0,25);
target = (0,9);
type = Stem;
}
);
layerId = "9C58397D-E5DA-4355-9ABE-2EAD22125FE9";
shapes = (
{
closed = 1;
nodes = (
(725,367,l),
(429,367,l),
(414,305,l),
(650,305,l),
(620,152,o),
(517,41,o),
(354,41,cs),
(204,41,o),
(142,122,o),
(142,268,cs),
(142,467,o),
(291,661,o),
(488,661,cs),
(589,661,o),
(670,602,o),
(669,493,c),
(738,493,l),
(738,496,o),
(738,499,o),
(738,503,cs),
(738,634,o),
(650,721,o),
(502,721,cs),
(240,721,o),
(71,475,o),
(71,254,cs),
(71,78,o),
(177,-19,o),
(321,-19,cs),
(424,-19,o),
(495,4,o),
(593,80,c),
(602,1,l),
(648,1,l)
);
}
);
width = 778;
}
);
unicode = 71;
},
{
glyphname = g;
layers = (
{
hints = (
{
horizontal = 1;
origin = (0,31);
target = (0,18);
type = Stem;
},
{
horizontal = 1;
origin = (0,11);
target = (1,2);
type = Stem;
},
{
horizontal = 1;
origin = (1,8);
target = (0,5);
type = Stem;
},
{
origin = (0,28);
target = (0,21);
type = Stem;
},
{
origin = (0,8);
target = (0,24);
type = Stem;
}
);
layerId = "913D8FE6-1CE1-42B9-B98D-9294EEB74CA2";
shapes = (
{
closed = 1;
nodes = (
(649,547,l),
(488,547,l),
(469,462,l),
(443,522,o),
(407,553,o),
(348,553,cs),
(181,553,o),
(48,373,o),
(48,177,cs),
(48,66,o),
(126,-6,o),
(228,-6,cs),
(289,-6,o),
(320,9,o),
(388,61,c),
(376,11,l),
(354,-62,o),
(341,-119,o),
(240,-119,cs),
(200,-119,o),
(164,-99,o),
(164,-78,cs),
(164,-75,o),
(166,-71,o),
(166,-67,c),
(-8,-67,l),
(-12,-81,o),
(-12,-89,o),
(-12,-98,cs),
(-12,-174,o),
(70,-218,o),
(214,-218,cs),
(411,-218,o),
(501,-144,o),
(543,51,cs)
);
},
{
closed = 1;
nodes = (
(438,194,o),
(368,126,o),
(294,126,cs),
(249,126,o),
(219,155,o),
(219,219,cs),
(219,334,o),
(289,424,o),
(353,424,cs),
(405,424,o),
(438,376,o),
(438,303,cs)
);
}
);
width = 639;
},
{
hints = (
{
horizontal = 1;
origin = (0,31);
target = (0,18);
type = Stem;
},
{
horizontal = 1;
origin = (0,11);
target = (1,2);
type = Stem;
},
{
horizontal = 1;
origin = (1,8);
target = (0,5);
type = Stem;
},
{
origin = (0,28);
target = (0,21);
type = Stem;
},
{
origin = (0,8);
target = (0,24);
type = Stem;
}
);
layerId = "302A00D6-A4BF-4816-9BF8-9304575F20B5";
shapes = (
{
closed = 1;
nodes = (
(616,540,l),
(483,540,l),
(465,457,l),
(438,519,o),
(397,549,o),
(338,549,cs),
(168,549,o),
(40,369,o),
(40,174,cs),
(40,64,o),
(116,-9,o),
(217,-9,cs),
(279,-9,o),
(319,10,o),
(381,62,c),
(372,22,ls),
(352,-64,o),
(324,-128,o),
(218,-128,cs),
(169,-128,o),
(132,-106,o),
(132,-77,cs),
(132,-73,o),
(133,-69,o),
(133,-65,c),
(-11,-65,l),
(-13,-77,o),
(-14,-88,o),
(-14,-96,cs),
(-14,-172,o),
(64,-218,o),
(195,-218,cs),
(384,-218,o),
(470,-145,o),
(514,62,cs)
);
},
{
closed = 1;
nodes = (
(431,193,o),
(358,103,o),
(269,103,cs),
(217,103,o),
(183,139,o),
(183,208,cs),
(183,331,o),
(257,437,o),
(339,437,cs),
(395,437,o),
(431,389,o),
(431,315,cs)
);
}
);
width = 611;
},
{
hints = (
{
horizontal = 1;
origin = (0,31);
target = (0,18);
type = Stem;
},
{
horizontal = 1;
origin = (0,11);
target = (1,2);
type = Stem;
},
{
horizontal = 1;
origin = (1,8);
target = (0,5);
type = Stem;
},
{
origin = (0,28);
target = (0,21);
type = Stem;
},
{
origin = (0,8);
target = (0,24);
type = Stem;
}
);
layerId = "294D04AE-F7F3-48C8-8CA3-B1C092BC12BA";
shapes = (
{
closed = 1;
nodes = (
(551,524,l),
(475,524,l),
(458,446,l),
(428,511,o),
(379,539,o),
(319,539,cs),
(144,539,o),
(24,360,o),
(24,169,cs),
(24,60,o),
(95,-15,o),
(197,-15,cs),
(260,-15,o),
(319,12,o),
(369,64,c),
(365,44,ls),
(341,-62,o),
(303,-146,o),
(176,-146,cs),
(108,-146,o),
(68,-119,o),
(68,-74,cs),
(68,-69,o),
(68,-65,o),
(68,-60,c),
(-16,-60,l),
(-16,-70,o),
(-18,-85,o),
(-18,-91,cs),
(-18,-168,o),
(52,-218,o),
(159,-218,cs),
(367,-218,o),
(420,-88,o),
(458,85,cs)
);
},
{
closed = 1;
nodes = (
(419,191,o),
(340,57,o),
(221,57,cs),
(154,57,o),
(112,106,o),
(112,185,cs),
(112,325,o),
(195,462,o),
(313,462,cs),
(377,462,o),
(419,414,o),
(419,339,cs)
);
}
);
width = 556;
},
{
hints = (
{
horizontal = 1;
origin = (0,31);
target = (0,18);
type = Stem;
},
{
horizontal = 1;
origin = (0,11);
target = (1,2);
type = Stem;
},
{
horizontal = 1;
origin = (1,8);
target = (0,5);
type = Stem;
},
{
origin = (0,28);
target = (0,21);
type = Stem;
},
{
origin = (0,8);
target = (0,24);
type = Stem;
}
);
layerId = "9C58397D-E5DA-4355-9ABE-2EAD22125FE9";
shapes = (
{
closed = 1;
nodes = (
(524,518,l),
(471,518,l),
(455,442,l),
(423,509,o),
(371,536,o),
(311,536,cs),
(134,536,o),
(17,357,o),
(17,167,cs),
(17,58,o),
(86,-17,o),
(188,-17,cs),
(252,-17,o),
(318,13,o),
(364,65,c),
(362,53,l),
(336,-61,o),
(295,-153,o),
(158,-153,cs),
(83,-153,o),
(41,-124,o),
(41,-73,cs),
(41,-67,o),
(41,-63,o),
(41,-58,c),
(-19,-58,l),
(-18,-67,o),
(-20,-84,o),
(-20,-89,cs),
(-20,-166,o),
(47,-218,o),
(144,-218,cs),
(341,-218,o),
(400,-69,o),
(434,95,cs)
);
},
{
closed = 1;
nodes = (
(414,190,o),
(332,38,o),
(201,38,cs),
(128,38,o),
(83,93,o),
(83,176,cs),
(83,323,o),
(169,473,o),
(302,473,cs),
(369,473,o),
(414,425,o),
(414,349,cs)
);
}
);
width = 534;
}
);
unicode = 103;
},
{
glyphname = grave;
layers = (
{
layerId = "913D8FE6-1CE1-42B9-B98D-9294EEB74CA2";
shapes = (
{
closed = 1;
nodes = (
(321,606,l),
(298,763,l),
(120,763,l),
(201,606,l)
);
}
);
width = 333;
},
{
layerId = "302A00D6-A4BF-4816-9BF8-9304575F20B5";
shapes = (
{
closed = 1;
nodes = (
(304,598,l),
(267,752,l),
(111,752,l),
(204,598,l)
);
}
);
width = 333;
},
{
layerId = "294D04AE-F7F3-48C8-8CA3-B1C092BC12BA";
shapes = (
{
closed = 1;
nodes = (
(270,581,l),
(205,729,l),
(93,729,l),
(210,581,l)
);
}
);
width = 333;
},
{
layerId = "9C58397D-E5DA-4355-9ABE-2EAD22125FE9";
shapes = (
{
closed = 1;
nodes = (
(256,574,l),
(179,720,l),
(86,720,l),
(212,574,l)
);
}
);
width = 333;
}
);
unicode = 96;
},
{
glyphname = greater;
layers = (
{
layerId = "913D8FE6-1CE1-42B9-B98D-9294EEB74CA2";
shapes = (
{
closed = 1;
nodes = (
(493,206,l),
(493,294,l),
(96,623,l),
(96,473,l),
(365,250,l),
(96,27,l),
(96,-123,l)
);
}
);
width = 584;
},
{
layerId = "302A00D6-A4BF-4816-9BF8-9304575F20B5";
shapes = (
{
closed = 1;
nodes = (
(478,212,l),
(478,288,l),
(102,605,l),
(102,475,l),
(368,250,l),
(102,25,l),
(102,-105,l)
);
}
);
width = 584;
},
{
layerId = "294D04AE-F7F3-48C8-8CA3-B1C092BC12BA";
shapes = (
{
closed = 1;
nodes = (
(448,224,l),
(448,276,l),
(114,569,l),
(114,479,l),
(374,250,l),
(114,21,l),
(114,-69,l)
);
}
);
width = 584;
},
{
layerId = "9C58397D-E5DA-4355-9ABE-2EAD22125FE9";
shapes = (
{
closed = 1;
nodes = (
(436,229,l),
(436,271,l),
(119,554,l),
(119,481,l),
(376,250,l),
(119,19,l),
(119,-54,l)
);
}
);
width = 584;
}
);
unicode = 62;
},
{
glyphname = H;
layers = (
{
hints = (
{
horizontal = 1;
origin = (0,6);
target = up;
type = BottomGhost;
},
{
horizontal = 1;
origin = (0,8);
target = (0,3);
type = Stem;
},
{
horizontal = 1;
origin = (0,0);
target = down;
type = TopGhost;
}
);
layerId = "913D8FE6-1CE1-42B9-B98D-9294EEB74CA2";
shapes = (
{
closed = 1;
nodes = (
(766,700,l),
(594,700,l),
(542,458,l),
(306,458,l),
(358,700,l),
(188,700,l),
(39,0,l),
(210,0,l),
(276,317,l),
(513,317,l),
(446,0,l),
(617,0,l)
);
}
);
width = 722;
},
{
hints = (
{
horizontal = 1;
origin = (0,6);
target = up;
type = BottomGhost;
},
{
horizontal = 1;
origin = (0,8);
target = (0,3);
type = Stem;
},
{
horizontal = 1;
origin = (0,0);
target = down;
type = TopGhost;
}
);
layerId = "302A00D6-A4BF-4816-9BF8-9304575F20B5";
shapes = (
{
closed = 1;
nodes = (
(755,700,l),
(610,700,l),
(554,438,l),
(278,438,l),
(334,700,l),
(190,700,l),
(41,0,l),
(185,0,l),
(252,318,l),
(530,318,l),
(462,0,l),
(606,0,l)
);
}
);
width = 722;
},
{
hints = (
{
horizontal = 1;
origin = (0,6);
target = up;
type = BottomGhost;
},
{
horizontal = 1;
origin = (0,8);
target = (0,3);
type = Stem;
},
{
horizontal = 1;
origin = (0,0);
target = down;
type = TopGhost;
}
);
layerId = "294D04AE-F7F3-48C8-8CA3-B1C092BC12BA";
shapes = (
{
closed = 1;
nodes = (
(733,700,l),
(643,700,l),
(578,397,l),
(220,397,l),
(285,700,l),
(194,700,l),
(46,0,l),
(136,0,l),
(204,319,l),
(562,319,l),
(494,0,l),
(584,0,l)
);
}
);
width = 722;
},
{
hints = (
{
horizontal = 1;
origin = (0,6);
target = up;
type = BottomGhost;
},
{
horizontal = 1;
origin = (0,8);
target = (0,3);
type = Stem;
},
{
horizontal = 1;
origin = (0,0);
target = down;
type = TopGhost;
}
);
layerId = "9C58397D-E5DA-4355-9ABE-2EAD22125FE9";
shapes = (
{
closed = 1;
nodes = (
(724,700,l),
(656,700,l),
(589,381,l),
(197,381,l),
(265,700,l),
(196,700,l),
(48,0,l),
(116,0,l),
(184,320,l),
(575,320,l),
(507,0,l),
(576,0,l)
);
}
);
width = 722;
}
);
unicode = 72;
},
{
glyphname = h;
layers = (
{
layerId = "F97F9DF8-9E32-45CE-8729-563A538E2615";
name = "#instance";
shapes = (
{
closed = 1;
nodes = (
(615,355,l),
(619,377,o),
(622,398,o),
(622,419,cs),
(622,498,o),
(560,554,o),
(471,554,cs),
(403,554,o),
(343,522,o),
(295,457,c),
(353,729,l),
(185,729,l),
(30,0,l),
(198,0,l),
(265,311,ls),
(279,378,o),
(323,422,o),
(374,422,cs),
(419,422,o),
(441,399,o),
(441,350,c),
(439,337,o),
(438,316,o),
(435,298,c),
(371,0,l),
(540,0,l)
);
}
);
width = 639;
},
{
layerId = "913D8FE6-1CE1-42B9-B98D-9294EEB74CA2";
shapes = (
{
closed = 1;
nodes = (
(615,355,l),
(619,377,o),
(622,398,o),
(622,419,cs),
(622,498,o),
(560,554,o),
(471,554,cs),
(403,554,o),
(343,522,o),
(295,457,c),
(353,729,l),
(185,729,l),
(30,0,l),
(198,0,l),
(265,311,ls),
(279,378,o),
(323,422,o),
(374,422,cs),
(419,422,o),
(441,399,o),
(441,350,c),
(439,337,o),
(438,316,o),
(435,298,c),
(371,0,l),
(540,0,l)
);
}
);
width = 639;
},
{
layerId = "302A00D6-A4BF-4816-9BF8-9304575F20B5";
shapes = (
{
closed = 1;
nodes = (
(583,362,ls),
(587,381,o),
(589,399,o),
(589,417,cs),
(589,496,o),
(531,549,o),
(444,549,cs),
(373,549,o),
(317,521,o),
(264,458,c),
(322,729,l),
(182,729,l),
(27,0,l),
(167,0,l),
(232,304,ls),
(249,385,o),
(302,437,o),
(366,437,cs),
(413,437,o),
(439,410,o),
(439,361,c),
(438,348,o),
(437,334,o),
(433,313,cs),
(366,0,l),
(506,0,l)
);
}
);
width = 611;
},
{
layerId = "294D04AE-F7F3-48C8-8CA3-B1C092BC12BA";
shapes = (
{
closed = 1;
nodes = (
(520,376,ls),
(523,389,o),
(524,401,o),
(524,413,cs),
(524,492,o),
(473,539,o),
(389,539,cs),
(314,539,o),
(265,518,o),
(202,459,c),
(259,729,l),
(175,729,l),
(20,0,l),
(104,0,l),
(165,289,ls),
(188,399,o),
(259,467,o),
(350,467,cs),
(401,467,o),
(435,433,o),
(435,382,cs),
(435,370,o),
(435,370,o),
(429,343,cs),
(356,0,l),
(440,0,l)
);
}
);
width = 556;
},
{
layerId = "9C58397D-E5DA-4355-9ABE-2EAD22125FE9";
shapes = (
{
closed = 1;
nodes = (
(494,381,ls),
(496,392,o),
(497,401,o),
(497,411,cs),
(497,490,o),
(449,534,o),
(366,534,cs),
(290,534,o),
(243,516,o),
(176,459,c),
(233,729,l),
(172,729,l),
(17,0,l),
(78,0,l),
(137,283,ls),
(163,404,o),
(241,479,o),
(343,479,cs),
(396,479,o),
(433,443,o),
(433,391,c),
(434,379,o),
(434,385,o),
(427,355,cs),
(352,0,l),
(412,0,l)
);
}
);
width = 534;
}
);
unicode = 104;
},
{
glyphname = hyphen;
layers = (
{
layerId = "913D8FE6-1CE1-42B9-B98D-9294EEB74CA2";
shapes = (
{
closed = 1;
nodes = (
(346,357,l),
(58,357,l),
(22,191,l),
(310,191,l)
);
}
);
width = 333;
},
{
layerId = "302A00D6-A4BF-4816-9BF8-9304575F20B5";
shapes = (
{
closed = 1;
nodes = (
(331,342,l),
(59,342,l),
(30,207,l),
(302,207,l)
);
}
);
width = 333;
},
{
layerId = "294D04AE-F7F3-48C8-8CA3-B1C092BC12BA";
shapes = (
{
closed = 1;
nodes = (
(301,312,l),
(62,312,l),
(47,240,l),
(286,240,l)
);
}
);
width = 333;
},
{
layerId = "9C58397D-E5DA-4355-9ABE-2EAD22125FE9";
shapes = (
{
closed = 1;
nodes = (
(289,300,l),
(64,300,l),
(54,254,l),
(279,254,l)
);
}
);
width = 333;
}
);
unicode = 45;
},
{
glyphname = I;
layers = (
{
hints = (
{
horizontal = 1;
origin = (0,2);
target = up;
type = BottomGhost;
},
{
horizontal = 1;
origin = (0,0);
target = down;
type = TopGhost;
}
);
layerId = "913D8FE6-1CE1-42B9-B98D-9294EEB74CA2";
shapes = (
{
closed = 1;
nodes = (
(334,700,l),
(164,700,l),
(15,0,l),
(185,0,l)
);
}
);
width = 278;
},
{
hints = (
{
horizontal = 1;
origin = (0,2);
target = up;
type = BottomGhost;
},
{
horizontal = 1;
origin = (0,0);
target = down;
type = TopGhost;
}
);
layerId = "302A00D6-A4BF-4816-9BF8-9304575F20B5";
shapes = (
{
closed = 1;
nodes = (
(321,700,l),
(177,700,l),
(28,0,l),
(172,0,l)
);
}
);
width = 278;
},
{
hints = (
{
horizontal = 1;
origin = (0,2);
target = up;
type = BottomGhost;
},
{
horizontal = 1;
origin = (0,0);
target = down;
type = TopGhost;
}
);
layerId = "294D04AE-F7F3-48C8-8CA3-B1C092BC12BA";
shapes = (
{
closed = 1;
nodes = (
(293,700,l),
(203,700,l),
(54,0,l),
(144,0,l)
);
}
);
width = 278;
},
{
hints = (
{
horizontal = 1;
origin = (0,2);
target = up;
type = BottomGhost;
},
{
horizontal = 1;
origin = (0,0);
target = down;
type = TopGhost;
}
);
layerId = "9C58397D-E5DA-4355-9ABE-2EAD22125FE9";
shapes = (
{
closed = 1;
nodes = (
(282,700,l),
(214,700,l),
(65,0,l),
(133,0,l)
);
}
);
width = 278;
}
);
unicode = 73;
},
{
glyphname = i;
layers = (
{
hints = (
{
horizontal = 1;
origin = (0,2);
target = up;
type = BottomGhost;
},
{
horizontal = 1;
origin = (0,0);
target = down;
type = TopGhost;
},
{
horizontal = 1;
origin = (1,0);
target = (1,1);
type = Stem;
}
);
layerId = "913D8FE6-1CE1-42B9-B98D-9294EEB74CA2";
shapes = (
{
closed = 1;
nodes = (
(316,548,l),
(148,548,l),
(31,0,l),
(199,0,l)
);
},
{
closed = 1;
nodes = (
(325,613,l),
(355,758,l),
(197,758,l),
(167,613,l)
);
}
);
width = 306;
},
{
hints = (
{
horizontal = 1;
origin = (0,2);
target = up;
type = BottomGhost;
},
{
horizontal = 1;
origin = (0,0);
target = down;
type = TopGhost;
},
{
horizontal = 1;
origin = (1,0);
target = (1,1);
type = Stem;
}
);
layerId = "302A00D6-A4BF-4816-9BF8-9304575F20B5";
shapes = (
{
closed = 1;
nodes = (
(282,540,l),
(142,540,l),
(27,0,l),
(167,0,l)
);
},
{
closed = 1;
nodes = (
(297,610,l),
(324,741,l),
(184,741,l),
(157,610,l)
);
}
);
width = 278;
},
{
hints = (
{
horizontal = 1;
origin = (0,2);
target = up;
type = BottomGhost;
},
{
horizontal = 1;
origin = (0,0);
target = down;
type = TopGhost;
},
{
horizontal = 1;
origin = (1,0);
target = (1,1);
type = Stem;
}
);
layerId = "294D04AE-F7F3-48C8-8CA3-B1C092BC12BA";
shapes = (
{
closed = 1;
nodes = (
(214,524,l),
(130,524,l),
(19,0,l),
(103,0,l)
);
},
{
closed = 1;
nodes = (
(240,604,l),
(262,707,l),
(158,707,l),
(136,604,l)
);
}
);
width = 222;
},
{
hints = (
{
horizontal = 1;
origin = (0,2);
target = up;
type = BottomGhost;
},
{
horizontal = 1;
origin = (0,0);
target = down;
type = TopGhost;
},
{
horizontal = 1;
origin = (1,0);
target = (1,1);
type = Stem;
}
);
layerId = "9C58397D-E5DA-4355-9ABE-2EAD22125FE9";
shapes = (
{
closed = 1;
nodes = (
(186,517,l),
(125,517,l),
(16,0,l),
(77,0,l)
);
},
{
closed = 1;
nodes = (
(217,602,l),
(236,693,l),
(147,693,l),
(128,602,l)
);
}
);
width = 199;
}
);
unicode = 105;
},
{
glyphname = J;
layers = (
{
layerId = "913D8FE6-1CE1-42B9-B98D-9294EEB74CA2";
shapes = (
{
closed = 1;
nodes = (
(622,700,l),
(451,700,l),
(339,183,ls),
(334,158,o),
(308,136,o),
(267,136,cs),
(237,136,o),
(215,153,o),
(215,177,cs),
(215,187,o),
(216,198,o),
(219,210,cs),
(233,276,l),
(63,276,l),
(50,216,l),
(44,193,o),
(43,170,o),
(43,146,cs),
(43,44,o),
(117,-9,o),
(233,-9,cs),
(385,-9,o),
(480,43,o),
(514,199,cs)
);
}
);
width = 584;
},
{
layerId = "302A00D6-A4BF-4816-9BF8-9304575F20B5";
shapes = (
{
closed = 1;
nodes = (
(588,700,l),
(444,700,l),
(335,193,ls),
(324,140,o),
(291,111,o),
(240,111,cs),
(203,111,o),
(177,132,o),
(177,163,cs),
(177,173,o),
(178,183,o),
(181,196,cs),
(194,259,l),
(50,259,l),
(38,201,ls),
(33,180,o),
(31,158,o),
(31,138,cs),
(31,45,o),
(99,-12,o),
(212,-12,cs),
(355,-12,o),
(448,47,o),
(479,193,cs)
);
}
);
width = 556;
},
{
layerId = "294D04AE-F7F3-48C8-8CA3-B1C092BC12BA";
shapes = (
{
closed = 1;
nodes = (
(520,700,l),
(430,700,l),
(326,212,ls),
(302,102,o),
(257,60,o),
(187,60,cs),
(135,60,o),
(100,90,o),
(100,133,cs),
(100,144,o),
(101,155,o),
(104,166,cs),
(117,225,l),
(26,225,l),
(14,168,ls),
(10,152,o),
(8,135,o),
(8,122,cs),
(8,47,o),
(63,-17,o),
(167,-17,cs),
(294,-17,o),
(382,54,o),
(409,180,cs)
);
}
);
width = 500;
},
{
layerId = "9C58397D-E5DA-4355-9ABE-2EAD22125FE9";
shapes = (
{
closed = 1;
nodes = (
(491,700,l),
(424,700,l),
(321,221,ls),
(292,87,o),
(242,41,o),
(164,41,cs),
(106,41,o),
(68,73,o),
(68,122,cs),
(68,133,o),
(69,143,o),
(72,155,cs),
(84,211,l),
(16,211,l),
(2,155,ls),
(-1,141,o),
(-2,127,o),
(-2,116,cs),
(-2,49,o),
(47,-19,o),
(148,-19,cs),
(269,-19,o),
(355,58,o),
(380,175,cs)
);
}
);
width = 477;
}
);
unicode = 74;
},
{
glyphname = j;
layers = (
{
hints = (
{
horizontal = 1;
origin = (0,12);
target = (0,5);
type = Stem;
},
{
horizontal = 1;
origin = (0,0);
target = down;
type = TopGhost;
},
{
horizontal = 1;
origin = (1,0);
target = (1,1);
type = Stem;
}
);
layerId = "913D8FE6-1CE1-42B9-B98D-9294EEB74CA2";
shapes = (
{
closed = 1;
nodes = (
(320,548,l),
(152,548,l),
(24,-55,ls),
(20,-75,o),
(6,-86,o),
(-14,-86,cs),
(-32,-86,o),
(-42,-84,o),
(-39,-81,c),
(-67,-211,l),
(-60,-213,o),
(-51,-214,o),
(-45,-216,c),
(-49,-218,o),
(-50,-218,o),
(-45,-220,c),
(95,-225,o),
(164,-185,o),
(185,-87,cs)
);
},
{
closed = 1;
nodes = (
(330,613,l),
(359,758,l),
(201,758,l),
(172,613,l)
);
}
);
width = 306;
},
{
hints = (
{
horizontal = 1;
origin = (0,12);
target = (0,5);
type = Stem;
},
{
horizontal = 1;
origin = (0,0);
target = down;
type = TopGhost;
},
{
horizontal = 1;
origin = (1,0);
target = (1,1);
type = Stem;
}
);
layerId = "302A00D6-A4BF-4816-9BF8-9304575F20B5";
shapes = (
{
closed = 1;
nodes = (
(285,540,l),
(145,540,l),
(17,-62,ls),
(10,-94,o),
(-4,-106,o),
(-34,-106,cs),
(-48,-106,o),
(-55,-105,o),
(-59,-102,c),
(-83,-213,l),
(-76,-215,o),
(-69,-216,o),
(-62,-217,cs),
(-55,-218,o),
(-48,-218,o),
(-38,-218,cs),
(76,-218,o),
(131,-181,o),
(150,-94,cs)
);
},
{
closed = 1;
nodes = (
(300,610,l),
(327,741,l),
(187,741,l),
(160,610,l)
);
}
);
width = 278;
},
{
hints = (
{
horizontal = 1;
origin = (0,12);
target = (0,5);
type = Stem;
},
{
horizontal = 1;
origin = (0,0);
target = down;
type = TopGhost;
},
{
horizontal = 1;
origin = (1,0);
target = (1,1);
type = Stem;
}
);
layerId = "294D04AE-F7F3-48C8-8CA3-B1C092BC12BA";
shapes = (
{
closed = 1;
nodes = (
(214,524,l),
(130,524,l),
(3,-76,ls),
(-9,-132,o),
(-24,-146,o),
(-75,-146,cs),
(-80,-146,o),
(-82,-146,o),
(-100,-144,c),
(-115,-215,l),
(-108,-217,o),
(-105,-218,o),
(-96,-218,cs),
(-67,-218,o),
(-43,-217,o),
(-23,-213,cs),
(38,-202,o),
(67,-171,o),
(80,-109,cs)
);
},
{
closed = 1;
nodes = (
(240,604,l),
(262,707,l),
(158,707,l),
(136,604,l)
);
}
);
width = 222;
},
{
hints = (
{
horizontal = 1;
origin = (0,12);
target = (0,5);
type = Stem;
},
{
horizontal = 1;
origin = (0,0);
target = down;
type = TopGhost;
},
{
horizontal = 1;
origin = (1,0);
target = (1,1);
type = Stem;
}
);
layerId = "9C58397D-E5DA-4355-9ABE-2EAD22125FE9";
shapes = (
{
closed = 1;
nodes = (
(185,517,l),
(124,517,l),
(-3,-82,ls),
(-17,-148,o),
(-32,-163,o),
(-92,-163,cs),
(-93,-163,o),
(-94,-164,o),
(-117,-162,c),
(-128,-216,l),
(-121,-218,o),
(-120,-220,o),
(-110,-219,c),
(-72,-218,o),
(-41,-217,o),
(-17,-212,c),
(22,-196,o),
(40,-167,o),
(51,-116,cs)
);
},
{
closed = 1;
nodes = (
(215,602,l),
(236,693,l),
(146,693,l),
(126,602,l)
);
}
);
width = 199;
}
);
unicode = 106;
},
{
glyphname = K;
layers = (
{
hints = (
{
horizontal = 1;
origin = (0,0);
target = up;
type = BottomGhost;
},
{
horizontal = 1;
origin = (0,2);
target = down;
type = TopGhost;
}
);
layerId = "913D8FE6-1CE1-42B9-B98D-9294EEB74CA2";
shapes = (
{
closed = 1;
nodes = (
(698,0,l),
(458,384,l),
(805,700,l),
(606,700,l),
(309,418,l),
(370,700,l),
(198,700,l),
(50,0,l),
(221,0,l),
(267,218,l),
(325,272,l),
(493,0,l)
);
}
);
width = 750;
},
{
hints = (
{
horizontal = 1;
origin = (0,0);
target = up;
type = BottomGhost;
},
{
horizontal = 1;
origin = (0,2);
target = down;
type = TopGhost;
}
);
layerId = "302A00D6-A4BF-4816-9BF8-9304575F20B5";
shapes = (
{
closed = 1;
nodes = (
(664,0,l),
(438,394,l),
(785,700,l),
(614,700,l),
(274,393,l),
(339,700,l),
(195,700,l),
(47,0,l),
(191,0,l),
(239,225,l),
(326,301,l),
(492,0,l)
);
}
);
width = 722;
},
{
hints = (
{
horizontal = 1;
origin = (0,0);
target = up;
type = BottomGhost;
},
{
horizontal = 1;
origin = (0,2);
target = down;
type = TopGhost;
}
);
layerId = "294D04AE-F7F3-48C8-8CA3-B1C092BC12BA";
shapes = (
{
closed = 1;
nodes = (
(597,0,l),
(399,414,l),
(745,700,l),
(630,700,l),
(204,342,l),
(280,700,l),
(190,700,l),
(41,0,l),
(131,0,l),
(182,239,l),
(330,361,l),
(491,0,l)
);
}
);
width = 667;
},
{
hints = (
{
horizontal = 1;
origin = (0,0);
target = up;
type = BottomGhost;
},
{
horizontal = 1;
origin = (0,2);
target = down;
type = TopGhost;
}
);
layerId = "9C58397D-E5DA-4355-9ABE-2EAD22125FE9";
shapes = (
{
closed = 1;
nodes = (
(570,0,l),
(383,422,l),
(729,700,l),
(637,700,l),
(175,321,l),
(256,700,l),
(188,700,l),
(39,0,l),
(107,0,l),
(159,246,l),
(332,386,l),
(491,0,l)
);
}
);
width = 645;
}
);
unicode = 75;
},
{
glyphname = k;
layers = (
{
hints = (
{
horizontal = 1;
origin = (0,0);
target = up;
type = BottomGhost;
},
{
horizontal = 1;
origin = (0,2);
target = down;
type = TopGhost;
},
{
horizontal = 1;
origin = (0,5);
target = down;
type = TopGhost;
}
);
layerId = "913D8FE6-1CE1-42B9-B98D-9294EEB74CA2";
shapes = (
{
closed = 1;
nodes = (
(536,0,l),
(413,329,l),
(649,548,l),
(465,548,l),
(265,342,l),
(348,729,l),
(179,729,l),
(24,0,l),
(193,0,l),
(228,164,l),
(276,213,l),
(338,0,l)
);
}
);
width = 584;
},
{
hints = (
{
horizontal = 1;
origin = (0,0);
target = up;
type = BottomGhost;
},
{
horizontal = 1;
origin = (0,2);
target = down;
type = TopGhost;
},
{
horizontal = 1;
origin = (0,5);
target = down;
type = TopGhost;
}
);
layerId = "302A00D6-A4BF-4816-9BF8-9304575F20B5";
shapes = (
{
closed = 1;
nodes = (
(508,0,l),
(379,334,l),
(611,540,l),
(452,540,l),
(229,330,l),
(314,729,l),
(174,729,l),
(19,0,l),
(159,0,l),
(197,177,l),
(265,239,l),
(344,0,l)
);
}
);
width = 556;
},
{
hints = (
{
horizontal = 1;
origin = (0,0);
target = up;
type = BottomGhost;
},
{
horizontal = 1;
origin = (0,2);
target = down;
type = TopGhost;
},
{
horizontal = 1;
origin = (0,5);
target = down;
type = TopGhost;
}
);
layerId = "294D04AE-F7F3-48C8-8CA3-B1C092BC12BA";
shapes = (
{
closed = 1;
nodes = (
(452,0,l),
(312,343,l),
(534,524,l),
(426,524,l),
(157,306,l),
(247,729,l),
(163,729,l),
(8,0,l),
(92,0,l),
(135,203,l),
(242,291,l),
(356,0,l)
);
}
);
width = 500;
},
{
hints = (
{
horizontal = 1;
origin = (0,0);
target = up;
type = BottomGhost;
},
{
horizontal = 1;
origin = (0,2);
target = down;
type = TopGhost;
},
{
horizontal = 1;
origin = (0,5);
target = down;
type = TopGhost;
}
);
layerId = "9C58397D-E5DA-4355-9ABE-2EAD22125FE9";
shapes = (
{
closed = 1;
nodes = (
(429,0,l),
(285,347,l),
(503,517,l),
(415,517,l),
(127,296,l),
(220,729,l),
(159,729,l),
(4,0,l),
(65,0,l),
(109,214,l),
(233,312,l),
(361,0,l)
);
}
);
width = 477;
}
);
unicode = 107;
},
{
glyphname = L;
layers = (
{
hints = (
{
horizontal = 1;
origin = (0,4);
target = (0,1);
type = Stem;
},
{
horizontal = 1;
origin = (0,2);
target = down;
type = TopGhost;
}
);
layerId = "913D8FE6-1CE1-42B9-B98D-9294EEB74CA2";
shapes = (
{
closed = 1;
nodes = (
(587,141,l),
(257,141,l),
(375,700,l),
(205,700,l),
(56,0,l),
(557,0,l)
);
}
);
width = 639;
},
{
hints = (
{
horizontal = 1;
origin = (0,4);
target = (0,1);
type = Stem;
},
{
horizontal = 1;
origin = (0,2);
target = down;
type = TopGhost;
}
);
layerId = "302A00D6-A4BF-4816-9BF8-9304575F20B5";
shapes = (
{
closed = 1;
nodes = (
(555,120,l),
(220,120,l),
(343,700,l),
(199,700,l),
(50,0,l),
(529,0,l)
);
}
);
width = 611;
},
{
hints = (
{
horizontal = 1;
origin = (0,4);
target = (0,1);
type = Stem;
},
{
horizontal = 1;
origin = (0,2);
target = down;
type = TopGhost;
}
);
layerId = "294D04AE-F7F3-48C8-8CA3-B1C092BC12BA";
shapes = (
{
closed = 1;
nodes = (
(492,79,l),
(146,79,l),
(279,700,l),
(189,700,l),
(40,0,l),
(476,0,l)
);
}
);
width = 556;
},
{
hints = (
{
horizontal = 1;
origin = (0,4);
target = (0,1);
type = Stem;
},
{
horizontal = 1;
origin = (0,2);
target = down;
type = TopGhost;
}
);
layerId = "9C58397D-E5DA-4355-9ABE-2EAD22125FE9";
shapes = (
{
closed = 1;
nodes = (
(466,62,l),
(116,62,l),
(253,700,l),
(185,700,l),
(36,0,l),
(454,0,l)
);
}
);
width = 534;
}
);
unicode = 76;
},
{
glyphname = l;
layers = (
{
hints = (
{
horizontal = 1;
origin = (0,2);
target = up;
type = BottomGhost;
},
{
horizontal = 1;
origin = (0,0);
target = down;
type = TopGhost;
}
);
layerId = "913D8FE6-1CE1-42B9-B98D-9294EEB74CA2";
shapes = (
{
closed = 1;
nodes = (
(354,729,l),
(186,729,l),
(31,0,l),
(199,0,l)
);
}
);
width = 306;
},
{
hints = (
{
horizontal = 1;
origin = (0,2);
target = up;
type = BottomGhost;
},
{
horizontal = 1;
origin = (0,0);
target = down;
type = TopGhost;
}
);
layerId = "302A00D6-A4BF-4816-9BF8-9304575F20B5";
shapes = (
{
closed = 1;
nodes = (
(322,729,l),
(182,729,l),
(27,0,l),
(167,0,l)
);
}
);
width = 278;
},
{
hints = (
{
horizontal = 1;
origin = (0,2);
target = up;
type = BottomGhost;
},
{
horizontal = 1;
origin = (0,0);
target = down;
type = TopGhost;
}
);
layerId = "294D04AE-F7F3-48C8-8CA3-B1C092BC12BA";
shapes = (
{
closed = 1;
nodes = (
(257,729,l),
(173,729,l),
(18,0,l),
(102,0,l)
);
}
);
width = 222;
},
{
hints = (
{
horizontal = 1;
origin = (0,2);
target = up;
type = BottomGhost;
},
{
horizontal = 1;
origin = (0,0);
target = down;
type = TopGhost;
}
);
layerId = "9C58397D-E5DA-4355-9ABE-2EAD22125FE9";
shapes = (
{
closed = 1;
nodes = (
(231,729,l),
(170,729,l),
(15,0,l),
(76,0,l)
);
}
);
width = 199;
}
);
unicode = 108;
},
{
glyphname = less;
layers = (
{
layerId = "913D8FE6-1CE1-42B9-B98D-9294EEB74CA2";
shapes = (
{
closed = 1;
nodes = (
(493,-123,l),
(493,27,l),
(224,250,l),
(493,473,l),
(493,623,l),
(96,294,l),
(96,206,l)
);
}
);
width = 584;
},
{
layerId = "302A00D6-A4BF-4816-9BF8-9304575F20B5";
shapes = (
{
closed = 1;
nodes = (
(478,-105,l),
(478,25,l),
(212,250,l),
(478,475,l),
(478,605,l),
(102,288,l),
(102,212,l)
);
}
);
width = 584;
},
{
layerId = "294D04AE-F7F3-48C8-8CA3-B1C092BC12BA";
shapes = (
{
closed = 1;
nodes = (
(448,-69,l),
(448,21,l),
(188,250,l),
(448,479,l),
(448,569,l),
(114,276,l),
(114,224,l)
);
}
);
width = 584;
},
{
layerId = "9C58397D-E5DA-4355-9ABE-2EAD22125FE9";
shapes = (
{
closed = 1;
nodes = (
(436,-54,l),
(436,19,l),
(178,250,l),
(436,481,l),
(436,554,l),
(119,271,l),
(119,229,l)
);
}
);
width = 584;
}
);
unicode = 60;
},
{
glyphname = M;
layers = (
{
layerId = "913D8FE6-1CE1-42B9-B98D-9294EEB74CA2";
shapes = (
{
closed = 1;
nodes = (
(885,700,l),
(632,700,l),
(432,194,l),
(470,700,l),
(192,700,l),
(43,0,l),
(204,0,l),
(332,601,l),
(296,0,l),
(475,0,l),
(702,601,l),
(574,0,l),
(736,0,l)
);
}
);
width = 833;
},
{
layerId = "302A00D6-A4BF-4816-9BF8-9304575F20B5";
shapes = (
{
closed = 1;
nodes = (
(872,700,l),
(662,700,l),
(418,162,l),
(418,700,l),
(191,700,l),
(42,0,l),
(178,0,l),
(305,594,l),
(305,0,l),
(456,0,l),
(714,594,l),
(587,0,l),
(724,0,l)
);
}
);
width = 833;
},
{
layerId = "294D04AE-F7F3-48C8-8CA3-B1C092BC12BA";
shapes = (
{
closed = 1;
nodes = (
(848,700,l),
(723,700,l),
(390,98,l),
(314,700,l),
(190,700,l),
(41,0,l),
(126,0,l),
(250,581,l),
(324,0,l),
(417,0,l),
(738,581,l),
(614,0,l),
(700,0,l)
);
}
);
width = 833;
},
{
layerId = "9C58397D-E5DA-4355-9ABE-2EAD22125FE9";
shapes = (
{
closed = 1;
nodes = (
(839,700,l),
(748,700,l),
(379,72,l),
(271,700,l),
(190,700,l),
(41,0,l),
(105,0,l),
(228,575,l),
(332,0,l),
(401,0,l),
(748,575,l),
(626,0,l),
(690,0,l)
);
}
);
width = 833;
}
);
unicode = 77;
},
{
glyphname = m;
layers = (
{
layerId = "F97F9DF8-9E32-45CE-8729-563A538E2615";
name = "#instance";
shapes = (
{
closed = 1;
nodes = (
(896,357,ls),
(904,395,o),
(905,399,o),
(905,421,cs),
(905,513,o),
(846,554,o),
(755,554,cs),
(686,554,o),
(633,530,o),
(581,472,c),
(567,520,o),
(515,554,o),
(455,554,cs),
(392,554,o),
(344,527,o),
(287,459,c),
(306,548,l),
(136,548,l),
(19,0,l),
(187,0,l),
(255,322,ls),
(270,389,o),
(303,422,o),
(357,422,cs),
(390,422,o),
(410,401,o),
(410,369,cs),
(410,357,o),
(409,349,o),
(408,338,c),
(336,0,l),
(503,0,l),
(572,322,ls),
(586,391,o),
(620,422,o),
(678,422,cs),
(710,422,o),
(727,406,o),
(727,376,cs),
(727,366,o),
(724,343,o),
(724,339,c),
(652,0,l),
(820,0,l)
);
}
);
width = 917;
},
{
layerId = "913D8FE6-1CE1-42B9-B98D-9294EEB74CA2";
shapes = (
{
closed = 1;
nodes = (
(896,357,ls),
(904,395,o),
(905,399,o),
(905,421,cs),
(905,513,o),
(846,554,o),
(755,554,cs),
(686,554,o),
(633,530,o),
(581,472,c),
(567,520,o),
(515,554,o),
(455,554,cs),
(392,554,o),
(344,527,o),
(287,459,c),
(306,548,l),
(136,548,l),
(19,0,l),
(187,0,l),
(255,322,ls),
(270,389,o),
(303,422,o),
(357,422,cs),
(390,422,o),
(410,401,o),
(410,369,cs),
(410,357,o),
(409,349,o),
(408,338,c),
(336,0,l),
(503,0,l),
(572,322,ls),
(586,391,o),
(620,422,o),
(678,422,cs),
(710,422,o),
(727,406,o),
(727,376,cs),
(727,366,o),
(724,343,o),
(724,339,c),
(652,0,l),
(820,0,l)
);
}
);
width = 917;
},
{
layerId = "302A00D6-A4BF-4816-9BF8-9304575F20B5";
shapes = (
{
closed = 1;
nodes = (
(863,362,ls),
(869,391,o),
(871,405,o),
(871,423,cs),
(871,502,o),
(819,549,o),
(729,549,cs),
(661,549,o),
(607,524,o),
(552,467,c),
(538,517,o),
(490,549,o),
(428,549,cs),
(363,549,o),
(316,524,o),
(257,459,c),
(274,540,l),
(135,540,l),
(20,0,l),
(160,0,l),
(229,324,ls),
(244,394,o),
(289,437,o),
(347,437,cs),
(385,437,o),
(410,414,o),
(410,379,cs),
(410,367,o),
(409,357,o),
(407,346,cs),
(333,0,l),
(473,0,l),
(542,324,ls),
(557,396,o),
(602,437,o),
(665,437,cs),
(702,437,o),
(723,417,o),
(723,381,cs),
(723,369,o),
(721,354,o),
(718,340,cs),
(646,0,l),
(786,0,l)
);
}
);
width = 889;
},
{
layerId = "294D04AE-F7F3-48C8-8CA3-B1C092BC12BA";
shapes = (
{
closed = 1;
nodes = (
(796,373,l),
(799,384,o),
(802,417,o),
(802,428,cs),
(802,480,o),
(763,539,o),
(675,539,cs),
(610,539,o),
(553,513,o),
(494,456,c),
(478,512,o),
(439,539,o),
(373,539,cs),
(305,539,o),
(259,519,o),
(195,459,c),
(208,524,l),
(132,524,l),
(21,0,l),
(105,0,l),
(175,329,ls),
(191,405,o),
(259,467,o),
(326,467,cs),
(375,467,o),
(408,439,o),
(408,398,cs),
(408,387,o),
(407,374,o),
(404,361,cs),
(327,0,l),
(411,0,l),
(481,329,ls),
(497,405,o),
(564,467,o),
(638,467,cs),
(685,467,o),
(714,438,o),
(714,390,cs),
(714,375,o),
(714,375,o),
(705,341,c),
(633,0,l),
(717,0,l)
);
}
);
width = 833;
},
{
layerId = "9C58397D-E5DA-4355-9ABE-2EAD22125FE9";
shapes = (
{
closed = 1;
nodes = (
(769,378,l),
(771,381,o),
(774,422,o),
(774,430,cs),
(774,470,o),
(741,534,o),
(654,534,cs),
(590,534,o),
(532,508,o),
(471,451,c),
(454,510,o),
(419,534,o),
(351,534,cs),
(282,534,o),
(236,517,o),
(170,459,c),
(182,517,l),
(131,517,l),
(22,0,l),
(83,0,l),
(154,331,ls),
(170,410,o),
(248,479,o),
(318,479,cs),
(372,479,o),
(408,449,o),
(408,406,cs),
(408,395,o),
(407,381,o),
(403,367,c),
(326,0,l),
(386,0,l),
(456,331,ls),
(473,409,o),
(549,479,o),
(628,479,cs),
(679,479,o),
(711,447,o),
(711,394,cs),
(711,377,o),
(712,384,o),
(700,342,c),
(628,0,l),
(689,0,l)
);
}
);
width = 810;
}
);
unicode = 109;
},
{
glyphname = N;
layers = (
{
layerId = "913D8FE6-1CE1-42B9-B98D-9294EEB74CA2";
shapes = (
{
closed = 1;
nodes = (
(771.44,699.84,l),
(609.2,699.84,l),
(513.2,244.8,l),
(356.72,699.84,l),
(190.64,699.84,l),
(41.84,0,l),
(204.08,0,l),
(302.96,470.4,l),
(460.4,0,l),
(622.64,0,l)
);
}
);
width = 722;
},
{
layerId = "302A00D6-A4BF-4816-9BF8-9304575F20B5";
shapes = (
{
closed = 1;
nodes = (
(758.96,699.84,l),
(622.64,699.84,l),
(518.,205.44,l),
(333.68,699.84,l),
(189.68,699.84,l),
(40.88,0,l),
(177.2,0,l),
(283.76,502.08,l),
(468.08,0,l),
(610.16,0,l)
);
}
);
width = 722;
},
{
layerId = "294D04AE-F7F3-48C8-8CA3-B1C092BC12BA";
shapes = (
{
closed = 1;
nodes = (
(735,700,l),
(650,700,l),
(528,126,l),
(288,700,l),
(188,700,l),
(39,0,l),
(124,0,l),
(245,567,l),
(484,0,l),
(586,0,l)
);
}
);
width = 722;
},
{
layerId = "9C58397D-E5DA-4355-9ABE-2EAD22125FE9";
shapes = (
{
closed = 1;
nodes = (
(725.563,700.026,l),
(661.748,700.026,l),
(532.185,92.821,l),
(260.49,700.026,l),
(187.007,700.026,l),
(38.106,0,l),
(102.887,0,l),
(229.55,594.636,l),
(500.278,0,l),
(576.662,0,l)
);
}
);
width = 722;
}
);
unicode = 78;
},
{
glyphname = n;
layers = (
{
hints = (
{
horizontal = 1;
origin = (0,12);
target = up;
type = BottomGhost;
},
{
horizontal = 1;
origin = (0,17);
target = (0,10);
type = Stem;
},
{
horizontal = 1;
origin = (0,17);
target = (0,6);
type = Stem;
},
{
origin = (0,20);
target = (0,3);
type = Stem;
}
);
layerId = "913D8FE6-1CE1-42B9-B98D-9294EEB74CA2";
shapes = (
{
closed = 1;
nodes = (
(614,355,l),
(618,377,o),
(621,398,o),
(621,418,cs),
(621,501,o),
(561,554,o),
(468,554,cs),
(395,554,o),
(347,527,o),
(292,457,c),
(313,548,l),
(141,548,l),
(24,0,l),
(192,0,l),
(259,311,ls),
(273,379,o),
(315,422,o),
(373,422,cs),
(419,422,o),
(440,399,o),
(440,350,c),
(438,333,o),
(440,320,o),
(434,295,cs),
(371,0,l),
(539,0,l)
);
}
);
width = 639;
},
{
hints = (
{
horizontal = 1;
origin = (0,12);
target = up;
type = BottomGhost;
},
{
horizontal = 1;
origin = (0,17);
target = (0,10);
type = Stem;
},
{
horizontal = 1;
origin = (0,17);
target = (0,6);
type = Stem;
},
{
origin = (0,20);
target = (0,3);
type = Stem;
}
);
layerId = "302A00D6-A4BF-4816-9BF8-9304575F20B5";
shapes = (
{
closed = 1;
nodes = (
(583,362,ls),
(587,381,o),
(589,399,o),
(589,417,cs),
(589,497,o),
(531,549,o),
(442,549,cs),
(368,549,o),
(314,522,o),
(260,458,c),
(278,540,l),
(138,540,l),
(23,0,l),
(163,0,l),
(228,304,ls),
(245,386,o),
(297,437,o),
(365,437,cs),
(413,437,o),
(439,410,o),
(439,362,c),
(438,349,o),
(438,335,o),
(433,313,cs),
(366,0,l),
(506,0,l)
);
}
);
width = 611;
},
{
hints = (
{
horizontal = 1;
origin = (0,12);
target = up;
type = BottomGhost;
},
{
horizontal = 1;
origin = (0,17);
target = (0,10);
type = Stem;
},
{
horizontal = 1;
origin = (0,17);
target = (0,6);
type = Stem;
},
{
origin = (0,20);
target = (0,3);
type = Stem;
}
);
layerId = "294D04AE-F7F3-48C8-8CA3-B1C092BC12BA";
shapes = (
{
closed = 1;
nodes = (
(520,376,ls),
(523,389,o),
(524,401,o),
(524,414,cs),
(524,490,o),
(471,539,o),
(388,539,cs),
(312,539,o),
(246,512,o),
(194,459,c),
(207,524,l),
(131,524,l),
(20,0,l),
(104,0,l),
(165,289,ls),
(188,399,o),
(259,467,o),
(349,467,cs),
(399,467,o),
(436,432,o),
(436,386,cs),
(436,380,o),
(433,365,o),
(430,349,cs),
(356,0,l),
(440,0,l)
);
}
);
width = 556;
},
{
hints = (
{
horizontal = 1;
origin = (0,12);
target = up;
type = BottomGhost;
},
{
horizontal = 1;
origin = (0,17);
target = (0,10);
type = Stem;
},
{
horizontal = 1;
origin = (0,17);
target = (0,6);
type = Stem;
},
{
origin = (0,20);
target = (0,3);
type = Stem;
}
);
layerId = "9C58397D-E5DA-4355-9ABE-2EAD22125FE9";
shapes = (
{
closed = 1;
nodes = (
(494,381,l),
(497,392,o),
(497,401,o),
(497,413,cs),
(497,487,o),
(447,534,o),
(366,534,cs),
(289,534,o),
(219,507,o),
(167,459,c),
(178,517,l),
(128,517,l),
(19,0,l),
(80,0,l),
(139,283,ls),
(165,404,o),
(244,479,o),
(343,479,cs),
(394,479,o),
(435,441,o),
(435,396,c),
(436,393,o),
(431,377,o),
(429,364,c),
(353,0,l),
(413,0,l)
);
}
);
width = 534;
}
);
unicode = 110;
},
{
glyphname = nine;
layers = (
{
layerId = "913D8FE6-1CE1-42B9-B98D-9294EEB74CA2";
shapes = (
{
closed = 1;
nodes = (
(571,628,o),
(493,707,o),
(378,707,cs),
(222,707,o),
(91,594,o),
(91,398,cs),
(91,295,o),
(152,229,o),
(251,229,cs),
(297,229,o),
(331,242,o),
(378,282,c),
(354,184,o),
(332,132,o),
(261,132,cs),
(237,132,o),
(189,140,o),
(195,178,c),
(42,178,l),
(38,158,o),
(37,154,o),
(37,142,cs),
(37,55,o),
(109,-7,o),
(214,-7,cs),
(364,-7,o),
(450,79,o),
(521,252,cs),
(552,327,o),
(571,410,o),
(571,498,cs)
);
},
{
closed = 1;
nodes = (
(425,422,o),
(376,360,o),
(308,360,cs),
(271,360,o),
(244,381,o),
(244,422,cs),
(244,516,o),
(289,583,o),
(349,583,cs),
(398,583,o),
(425,563,o),
(425,512,cs)
);
}
);
width = 556;
},
{
layerId = "302A00D6-A4BF-4816-9BF8-9304575F20B5";
shapes = (
{
closed = 1;
nodes = (
(564,629,o),
(488,709,o),
(370,709,cs),
(210,709,o),
(87,584,o),
(87,408,cs),
(87,303,o),
(150,237,o),
(252,237,cs),
(307,237,o),
(341,252,o),
(396,299,c),
(367,174,o),
(330,110,o),
(248,110,cs),
(209,110,o),
(162,130,o),
(171,176,c),
(40,176,l),
(37,159,o),
(36,153,o),
(36,143,cs),
(36,53,o),
(107,-9,o),
(212,-9,cs),
(359,-9,o),
(454,85,o),
(517,259,cs),
(547,341,o),
(564,429,o),
(564,508,cs)
);
},
{
closed = 1;
nodes = (
(438,420,o),
(378,351,o),
(299,351,cs),
(251,351,o),
(218,378,o),
(218,429,cs),
(218,527,o),
(275,600,o),
(347,600,cs),
(402,600,o),
(438,571,o),
(438,515,cs)
);
}
);
width = 556;
},
{
layerId = "294D04AE-F7F3-48C8-8CA3-B1C092BC12BA";
shapes = (
{
closed = 1;
nodes = (
(550,634,o),
(476,714,o),
(354,714,cs),
(184,714,o),
(76,563,o),
(76,428,cs),
(76,321,o),
(145,254,o),
(254,254,cs),
(329,254,o),
(361,274,o),
(433,335,c),
(393,154,o),
(323,64,o),
(221,64,cs),
(151,64,o),
(121,108,o),
(121,171,c),
(34,171,l),
(33,161,o),
(33,150,o),
(33,144,cs),
(33,48,o),
(102,-14,o),
(209,-14,cs),
(348,-14,o),
(461,96,o),
(510,276,cs),
(535,369,o),
(550,467,o),
(550,529,cs)
);
},
{
closed = 1;
nodes = (
(463,415,o),
(380,332,o),
(278,332,cs),
(207,332,o),
(163,370,o),
(163,443,cs),
(163,551,o),
(244,636,o),
(341,636,cs),
(410,636,o),
(463,589,o),
(463,521,cs)
);
}
);
width = 556;
},
{
layerId = "9C58397D-E5DA-4355-9ABE-2EAD22125FE9";
shapes = (
{
closed = 1;
nodes = (
(544,637,o),
(472,717,o),
(346,717,cs),
(173,717,o),
(72,554,o),
(72,437,cs),
(72,329,o),
(144,261,o),
(255,261,cs),
(338,261,o),
(370,284,o),
(450,350,c),
(404,145,o),
(321,44,o),
(210,44,cs),
(126,44,o),
(102,98,o),
(100,170,c),
(32,170,l),
(32,161,o),
(32,150,o),
(32,146,cs),
(32,47,o),
(101,-16,o),
(208,-16,cs),
(343,-16,o),
(465,102,o),
(507,284,cs),
(531,383,o),
(544,484,o),
(544,538,cs)
);
},
{
closed = 1;
nodes = (
(473,413,o),
(382,323,o),
(269,323,cs),
(188,323,o),
(140,369,o),
(140,448,cs),
(140,561,o),
(232,652,o),
(339,652,cs),
(413,652,o),
(473,597,o),
(473,524,cs)
);
}
);
width = 556;
}
);
unicode = 57;
},
{
glyphname = numbersign;
layers = (
{
layerId = "913D8FE6-1CE1-42B9-B98D-9294EEB74CA2";
shapes = (
{
closed = 1;
nodes = (
(606,417,l),
(630,535,l),
(547,535,l),
(616,697,l),
(495,697,l),
(427,535,l),
(335,535,l),
(405,697,l),
(284,697,l),
(216,535,l),
(100,535,l),
(73,417,l),
(167,417,l),
(110,280,l),
(21,280,l),
(-3,162,l),
(62,162,l),
(-21,-38,l),
(98,-38,l),
(183,162,l),
(273,162,l),
(190,-38,l),
(310,-38,l),
(394,162,l),
(513,162,l),
(538,280,l),
(443,280,l),
(500,417,l)
);
},
{
closed = 1;
nodes = (
(379,417,l),
(322,280,l),
(230,280,l),
(287,417,l)
);
}
);
width = 556;
},
{
layerId = "302A00D6-A4BF-4816-9BF8-9304575F20B5";
shapes = (
{
closed = 1;
nodes = (
(599,424,l),
(620,524,l),
(533,524,l),
(605,697,l),
(499,697,l),
(428,524,l),
(325,524,l),
(397,697,l),
(291,697,l),
(220,524,l),
(102,524,l),
(80,424,l),
(179,424,l),
(117,272,l),
(20,272,l),
(-1,172,l),
(76,172,l),
(-7,-32,l),
(98,-32,l),
(182,172,l),
(284,172,l),
(201,-32,l),
(306,-32,l),
(390,172,l),
(509,172,l),
(530,272,l),
(431,272,l),
(493,424,l)
);
},
{
closed = 1;
nodes = (
(387,424,l),
(325,272,l),
(222,272,l),
(285,424,l)
);
}
);
width = 556;
},
{
layerId = "294D04AE-F7F3-48C8-8CA3-B1C092BC12BA";
shapes = (
{
closed = 1;
nodes = (
(585,439,l),
(599,503,l),
(505,503,l),
(582,697,l),
(506,697,l),
(429,503,l),
(305,503,l),
(381,697,l),
(305,697,l),
(228,503,l),
(107,503,l),
(94,439,l),
(203,439,l),
(130,255,l),
(18,255,l),
(4,191,l),
(105,191,l),
(22,-20,l),
(98,-20,l),
(181,191,l),
(306,191,l),
(223,-20,l),
(299,-20,l),
(382,191,l),
(500,191,l),
(514,255,l),
(407,255,l),
(480,439,l)
);
},
{
closed = 1;
nodes = (
(404,439,l),
(331,255,l),
(206,255,l),
(280,439,l)
);
}
);
width = 556;
},
{
layerId = "9C58397D-E5DA-4355-9ABE-2EAD22125FE9";
shapes = (
{
closed = 1;
nodes = (
(579,446,l),
(591,495,l),
(493,495,l),
(573,697,l),
(509,697,l),
(430,495,l),
(297,495,l),
(374,697,l),
(311,697,l),
(231,495,l),
(109,495,l),
(100,446,l),
(213,446,l),
(136,248,l),
(17,248,l),
(6,199,l),
(117,199,l),
(34,-15,l),
(98,-15,l),
(181,199,l),
(315,199,l),
(232,-15,l),
(297,-15,l),
(379,199,l),
(497,199,l),
(507,248,l),
(397,248,l),
(475,446,l)
);
},
{
closed = 1;
nodes = (
(411,446,l),
(333,248,l),
(199,248,l),
(278,446,l)
);
}
);
width = 556;
}
);
unicode = 35;
},
{
glyphname = O;
layers = (
{
hints = (
{
horizontal = 1;
origin = (0,11);
target = (1,2);
type = Stem;
},
{
horizontal = 1;
origin = (1,8);
target = (0,2);
type = Stem;
},
{
origin = (0,8);
target = (1,5);
type = Stem;
},
{
origin = (1,11);
target = (0,17);
type = Stem;
}
);
layerId = "913D8FE6-1CE1-42B9-B98D-9294EEB74CA2";
shapes = (
{
closed = 1;
nodes = (
(777,605,o),
(675,708,o),
(499,708,cs),
(369,708,o),
(271,660,o),
(187,549,cs),
(122,460,o),
(86,353,o),
(86,255,cs),
(86,92,o),
(194,-9,o),
(366,-9,cs),
(495,-9,o),
(585,28,o),
(675,141,c),
(739,227,o),
(777,328,o),
(777,429,cs)
);
},
{
closed = 1;
nodes = (
(609,250,o),
(511,136,o),
(394,136,cs),
(306,136,o),
(254,190,o),
(254,282,cs),
(254,435,o),
(354,563,o),
(477,563,cs),
(560,563,o),
(609,505,o),
(609,412,cs)
);
}
);
width = 778;
},
{
hints = (
{
horizontal = 1;
origin = (0,11);
target = (1,2);
type = Stem;
},
{
horizontal = 1;
origin = (1,8);
target = (0,2);
type = Stem;
},
{
origin = (0,8);
target = (1,5);
type = Stem;
},
{
origin = (1,11);
target = (0,17);
type = Stem;
}
);
layerId = "302A00D6-A4BF-4816-9BF8-9304575F20B5";
shapes = (
{
closed = 1;
nodes = (
(772,610,o),
(670,711,o),
(494,711,cs),
(374,711,o),
(279,665,o),
(199,570,cs),
(124,481,o),
(80,367,o),
(80,256,cs),
(80,88,o),
(188,-12,o),
(359,-12,cs),
(482,-12,o),
(572,27,o),
(655,125,cs),
(729,212,o),
(772,324,o),
(772,437,cs)
);
},
{
closed = 1;
nodes = (
(629,248,o),
(521,111,o),
(382,111,cs),
(285,111,o),
(223,172,o),
(223,276,cs),
(223,443,o),
(333,588,o),
(476,588,cs),
(572,588,o),
(629,525,o),
(629,420,cs)
);
}
);
width = 778;
},
{
hints = (
{
horizontal = 1;
origin = (0,11);
target = (1,2);
type = Stem;
},
{
horizontal = 1;
origin = (1,8);
target = (0,2);
type = Stem;
},
{
origin = (0,8);
target = (1,5);
type = Stem;
},
{
origin = (1,11);
target = (0,17);
type = Stem;
}
);
layerId = "294D04AE-F7F3-48C8-8CA3-B1C092BC12BA";
shapes = (
{
closed = 1;
nodes = (
(764,619,o),
(658,717,o),
(484,717,cs),
(385,717,o),
(294,676,o),
(223,611,cs),
(128,523,o),
(69,393,o),
(69,257,cs),
(69,80,o),
(175,-17,o),
(344,-17,cs),
(454,-17,o),
(546,25,o),
(616,91,cs),
(710,180,o),
(764,313,o),
(764,451,cs)
);
},
{
closed = 1;
nodes = (
(672,243,o),
(541,60,o),
(357,60,cs),
(241,60,o),
(161,133,o),
(161,265,cs),
(161,457,o),
(291,639,o),
(473,639,cs),
(595,639,o),
(672,564,o),
(672,434,cs)
);
}
);
width = 778;
},
{
hints = (
{
horizontal = 1;
origin = (0,11);
target = (1,2);
type = Stem;
},
{
horizontal = 1;
origin = (1,8);
target = (0,2);
type = Stem;
},
{
origin = (0,8);
target = (1,5);
type = Stem;
},
{
origin = (1,11);
target = (0,17);
type = Stem;
}
);
layerId = "9C58397D-E5DA-4355-9ABE-2EAD22125FE9";
shapes = (
{
closed = 1;
nodes = (
(760,624,o),
(653,721,o),
(480,721,cs),
(389,721,o),
(300,682,o),
(233,629,c),
(130,542,o),
(64,404,o),
(64,259,cs),
(64,78,o),
(171,-19,o),
(339,-19,cs),
(442,-19,o),
(535,25,o),
(600,79,c),
(701,168,o),
(760,310,o),
(760,458,cs)
);
},
{
closed = 1;
nodes = (
(689,242,o),
(550,41,o),
(346,41,cs),
(222,41,o),
(135,119,o),
(135,262,cs),
(135,464,o),
(272,661,o),
(472,661,cs),
(604,661,o),
(689,582,o),
(689,441,cs)
);
}
);
width = 778;
}
);
unicode = 79;
},
{
glyphname = o;
layers = (
{
hints = (
{
horizontal = 1;
origin = (0,8);
target = (1,2);
type = Stem;
},
{
horizontal = 1;
origin = (1,8);
target = (0,2);
type = Stem;
},
{
origin = (0,5);
target = (1,5);
type = Stem;
},
{
origin = (1,11);
target = (0,11);
type = Stem;
}
);
layerId = "913D8FE6-1CE1-42B9-B98D-9294EEB74CA2";
shapes = (
{
closed = 1;
nodes = (
(629,480,o),
(539,553,o),
(393,553,cs),
(195,553,o),
(49,404,o),
(49,191,cs),
(49,64,o),
(141,-6,o),
(283,-6,cs),
(489,-6,o),
(629,135,o),
(629,347,cs)
);
},
{
closed = 1;
nodes = (
(458,207,o),
(394,123,o),
(313,123,cs),
(259,123,o),
(220,157,o),
(220,224,cs),
(220,342,o),
(290,424,o),
(366,424,cs),
(421,424,o),
(458,379,o),
(458,313,cs)
);
}
);
width = 639;
},
{
hints = (
{
horizontal = 1;
origin = (0,8);
target = (1,2);
type = Stem;
},
{
horizontal = 1;
origin = (1,8);
target = (0,2);
type = Stem;
},
{
origin = (0,5);
target = (1,5);
type = Stem;
},
{
origin = (1,11);
target = (0,11);
type = Stem;
}
);
layerId = "302A00D6-A4BF-4816-9BF8-9304575F20B5";
shapes = (
{
closed = 1;
nodes = (
(594,473,o),
(510,549,o),
(373,549,cs),
(178,549,o),
(43,392,o),
(43,184,cs),
(43,62,o),
(130,-9,o),
(262,-9,cs),
(460,-9,o),
(594,138,o),
(594,349,cs)
);
},
{
closed = 1;
nodes = (
(451,200,o),
(380,103,o),
(287,103,cs),
(227,103,o),
(186,141,o),
(186,212,cs),
(186,339,o),
(261,437,o),
(351,437,cs),
(412,437,o),
(451,391,o),
(451,320,cs)
);
}
);
width = 611;
},
{
hints = (
{
horizontal = 1;
origin = (0,8);
target = (1,2);
type = Stem;
},
{
horizontal = 1;
origin = (1,8);
target = (0,2);
type = Stem;
},
{
origin = (0,5);
target = (1,5);
type = Stem;
},
{
origin = (1,11);
target = (0,11);
type = Stem;
}
);
layerId = "294D04AE-F7F3-48C8-8CA3-B1C092BC12BA";
shapes = (
{
closed = 1;
nodes = (
(526,458,o),
(454,539,o),
(334,539,cs),
(146,539,o),
(31,366,o),
(31,168,cs),
(31,57,o),
(109,-15,o),
(221,-15,cs),
(403,-15,o),
(526,144,o),
(526,352,cs)
);
},
{
closed = 1;
nodes = (
(438,184,o),
(354,62,o),
(235,62,cs),
(164,62,o),
(119,108,o),
(119,188,cs),
(119,333,o),
(203,462,o),
(321,462,cs),
(395,462,o),
(438,414,o),
(438,333,cs)
);
}
);
width = 556;
},
{
hints = (
{
horizontal = 1;
origin = (0,8);
target = (1,2);
type = Stem;
},
{
horizontal = 1;
origin = (1,8);
target = (0,2);
type = Stem;
},
{
origin = (0,5);
target = (1,5);
type = Stem;
},
{
origin = (1,11);
target = (0,11);
type = Stem;
}
);
layerId = "9C58397D-E5DA-4355-9ABE-2EAD22125FE9";
shapes = (
{
closed = 1;
nodes = (
(499,452,o),
(432,536,o),
(318,536,cs),
(134,536,o),
(26,356,o),
(26,163,cs),
(26,56,o),
(101,-17,o),
(205,-17,cs),
(380,-17,o),
(499,148,o),
(499,354,cs)
);
},
{
closed = 1;
nodes = (
(433,179,o),
(344,46,o),
(214,46,cs),
(139,46,o),
(92,95,o),
(92,179,cs),
(92,332,o),
(180,473,o),
(310,473,cs),
(388,473,o),
(433,424,o),
(433,339,cs)
);
}
);
width = 534;
}
);
unicode = 111;
},
{
glyphname = one;
layers = (
{
hints = (
{
horizontal = 1;
origin = (0,7);
target = up;
type = BottomGhost;
},
{
horizontal = 1;
origin = (0,0);
target = down;
type = TopGhost;
}
);
layerId = "913D8FE6-1CE1-42B9-B98D-9294EEB74CA2";
shapes = (
{
closed = 1;
nodes = (
(504,700,l),
(396,700,l),
(363,628,o),
(253,571,o),
(143,581,c),
(120,475,l),
(293,475,l),
(193,0,l),
(355,0,l)
);
}
);
width = 556;
},
{
hints = (
{
horizontal = 1;
origin = (0,7);
target = up;
type = BottomGhost;
},
{
horizontal = 1;
origin = (0,0);
target = down;
type = TopGhost;
}
);
layerId = "302A00D6-A4BF-4816-9BF8-9304575F20B5";
shapes = (
{
closed = 1;
nodes = (
(485,700,l),
(393,700,l),
(354,617,o),
(273,575,o),
(153,575,c),
(133,482,l),
(301,482,l),
(198,0,l),
(336,0,l)
);
}
);
width = 556;
},
{
hints = (
{
horizontal = 1;
origin = (0,7);
target = up;
type = BottomGhost;
},
{
horizontal = 1;
origin = (0,0);
target = down;
type = TopGhost;
}
);
layerId = "294D04AE-F7F3-48C8-8CA3-B1C092BC12BA";
shapes = (
{
closed = 1;
nodes = (
(445,700,l),
(387,700,l),
(335,593,o),
(313,580,o),
(171,560,c),
(159,499,l),
(315,499,l),
(209,0,l),
(296,0,l)
);
}
);
width = 556;
},
{
hints = (
{
horizontal = 1;
origin = (0,7);
target = up;
type = BottomGhost;
},
{
horizontal = 1;
origin = (0,0);
target = down;
type = TopGhost;
}
);
layerId = "9C58397D-E5DA-4355-9ABE-2EAD22125FE9";
shapes = (
{
closed = 1;
nodes = (
(428,700,l),
(385,700,l),
(327,583,o),
(331,582,o),
(180,555,c),
(170,505,l),
(322,505,l),
(214,0,l),
(279,0,l)
);
}
);
width = 556;
}
);
unicode = 49;
},
{
glyphname = P;
layers = (
{
hints = (
{
horizontal = 1;
origin = (0,4);
target = up;
type = BottomGhost;
},
{
horizontal = 1;
origin = (0,6);
target = (1,3);
type = Stem;
},
{
horizontal = 1;
origin = (1,4);
target = (0,3);
type = Stem;
},
{
origin = (1,8);
target = (0,10);
type = Stem;
}
);
layerId = "913D8FE6-1CE1-42B9-B98D-9294EEB74CA2";
shapes = (
{
closed = 1;
nodes = (
(703,621,o),
(634,700,o),
(493,700,cs),
(194,700,l),
(46,0,l),
(216,0,l),
(264,226,l),
(424,226,ls),
(580,226,o),
(703,375,o),
(703,533,cs)
);
},
{
closed = 1;
nodes = (
(535,413,o),
(497,367,o),
(422,367,cs),
(295,367,l),
(334,559,l),
(463,559,ls),
(504,559,o),
(535,529,o),
(535,492,cs)
);
}
);
width = 667;
},
{
hints = (
{
horizontal = 1;
origin = (0,4);
target = up;
type = BottomGhost;
},
{
horizontal = 1;
origin = (0,6);
target = (1,3);
type = Stem;
},
{
horizontal = 1;
origin = (1,4);
target = (0,3);
type = Stem;
},
{
origin = (1,8);
target = (0,10);
type = Stem;
}
);
layerId = "302A00D6-A4BF-4816-9BF8-9304575F20B5";
shapes = (
{
closed = 1;
nodes = (
(692,630,o),
(625,700,o),
(492,700,cs),
(196,700,l),
(48,0,l),
(192,0,l),
(244,250,l),
(424,250,ls),
(577,250,o),
(692,388,o),
(692,538,cs)
);
},
{
closed = 1;
nodes = (
(549,423,o),
(501,370,o),
(417,370,cs),
(270,370,l),
(314,580,l),
(462,580,ls),
(514,580,o),
(549,549,o),
(549,504,cs)
);
}
);
width = 667;
},
{
hints = (
{
horizontal = 1;
origin = (0,4);
target = up;
type = BottomGhost;
},
{
horizontal = 1;
origin = (0,6);
target = (1,3);
type = Stem;
},
{
horizontal = 1;
origin = (1,4);
target = (0,3);
type = Stem;
},
{
origin = (1,8);
target = (0,10);
type = Stem;
}
);
layerId = "294D04AE-F7F3-48C8-8CA3-B1C092BC12BA";
shapes = (
{
closed = 1;
nodes = (
(669,647,o),
(608,700,o),
(491,700,cs),
(201,700,l),
(52,0,l),
(143,0,l),
(206,297,l),
(425,297,ls),
(570,297,o),
(669,416,o),
(669,545,cs)
);
},
{
closed = 1;
nodes = (
(577,444,o),
(508,375,o),
(409,375,cs),
(222,375,l),
(275,621,l),
(461,621,ls),
(536,621,o),
(577,588,o),
(577,528,cs)
);
}
);
width = 667;
},
{
hints = (
{
horizontal = 1;
origin = (0,4);
target = up;
type = BottomGhost;
},
{
horizontal = 1;
origin = (0,6);
target = (1,3);
type = Stem;
},
{
horizontal = 1;
origin = (1,4);
target = (0,3);
type = Stem;
},
{
origin = (1,8);
target = (0,10);
type = Stem;
}
);
layerId = "9C58397D-E5DA-4355-9ABE-2EAD22125FE9";
shapes = (
{
closed = 1;
nodes = (
(660,655,o),
(603,700,o),
(491,700,cs),
(204,700,l),
(55,0,l),
(124,0,l),
(192,317,l),
(426,317,ls),
(568,317,o),
(660,427,o),
(660,549,cs)
);
},
{
closed = 1;
nodes = (
(589,452,o),
(513,378,o),
(406,378,cs),
(203,378,l),
(260,638,l),
(461,638,ls),
(546,638,o),
(589,605,o),
(589,538,cs)
);
}
);
width = 667;
}
);
unicode = 80;
},
{
glyphname = p;
layers = (
{
hints = (
{
horizontal = 1;
origin = (0,8);
target = up;
type = BottomGhost;
},
{
horizontal = 1;
origin = (0,13);
target = (1,2);
type = Stem;
},
{
horizontal = 1;
origin = (1,8);
target = (0,6);
type = Stem;
},
{
horizontal = 1;
origin = (1,8);
target = (0,2);
type = Stem;
},
{
origin = (1,11);
target = (0,16);
type = Stem;
}
);
layerId = "913D8FE6-1CE1-42B9-B98D-9294EEB74CA2";
shapes = (
{
closed = 1;
nodes = (
(628,471,o),
(561,553,o),
(455,553,cs),
(390,553,o),
(349,529,o),
(294,469,c),
(310,547,l),
(141,547,l),
(-22,-220,l),
(146,-220,l),
(208,72,l),
(226,23,o),
(268,-6,o),
(338,-6,cs),
(493,-6,o),
(628,139,o),
(628,340,cs)
);
},
{
closed = 1;
nodes = (
(457,200,o),
(391,123,o),
(319,123,cs),
(275,123,o),
(245,157,o),
(245,219,cs),
(245,337,o),
(311,424,o),
(385,424,cs),
(428,424,o),
(457,383,o),
(457,322,cs)
);
}
);
width = 639;
},
{
hints = (
{
horizontal = 1;
origin = (0,8);
target = up;
type = BottomGhost;
},
{
horizontal = 1;
origin = (0,13);
target = (1,2);
type = Stem;
},
{
horizontal = 1;
origin = (1,8);
target = (0,6);
type = Stem;
},
{
horizontal = 1;
origin = (1,8);
target = (0,2);
type = Stem;
},
{
origin = (1,11);
target = (0,16);
type = Stem;
}
);
layerId = "302A00D6-A4BF-4816-9BF8-9304575F20B5";
shapes = (
{
closed = 1;
nodes = (
(597,469,o),
(530,549,o),
(424,549,cs),
(357,549,o),
(301,519,o),
(255,460,c),
(272,540,l),
(132,540,l),
(-29,-218,l),
(111,-218,l),
(173,72,l),
(195,19,o),
(237,-9,o),
(307,-9,cs),
(468,-9,o),
(597,141,o),
(597,342,cs)
);
},
{
closed = 1;
nodes = (
(454,196,o),
(383,103,o),
(297,103,cs),
(244,103,o),
(208,141,o),
(208,209,cs),
(208,335,o),
(280,437,o),
(366,437,cs),
(420,437,o),
(454,392,o),
(454,323,cs)
);
}
);
width = 611;
},
{
hints = (
{
horizontal = 1;
origin = (0,8);
target = up;
type = BottomGhost;
},
{
horizontal = 1;
origin = (0,13);
target = (1,2);
type = Stem;
},
{
horizontal = 1;
origin = (1,8);
target = (0,6);
type = Stem;
},
{
horizontal = 1;
origin = (1,8);
target = (0,2);
type = Stem;
},
{
origin = (1,11);
target = (0,16);
type = Stem;
}
);
layerId = "294D04AE-F7F3-48C8-8CA3-B1C092BC12BA";
shapes = (
{
closed = 1;
nodes = (
(536,464,o),
(469,539,o),
(362,539,cs),
(291,539,o),
(204,497,o),
(177,440,c),
(195,524,l),
(114,524,l),
(-43,-213,l),
(41,-213,l),
(102,72,l),
(134,11,o),
(175,-15,o),
(246,-15,cs),
(417,-15,o),
(536,144,o),
(536,344,cs)
);
},
{
closed = 1;
nodes = (
(448,186,o),
(367,62,o),
(254,62,cs),
(181,62,o),
(134,108,o),
(134,188,cs),
(134,330,o),
(219,462,o),
(329,462,cs),
(404,462,o),
(448,410,o),
(448,324,cs)
);
}
);
width = 556;
},
{
hints = (
{
horizontal = 1;
origin = (0,8);
target = up;
type = BottomGhost;
},
{
horizontal = 1;
origin = (0,13);
target = (1,2);
type = Stem;
},
{
horizontal = 1;
origin = (1,8);
target = (0,6);
type = Stem;
},
{
horizontal = 1;
origin = (1,8);
target = (0,2);
type = Stem;
},
{
origin = (1,11);
target = (0,16);
type = Stem;
}
);
layerId = "9C58397D-E5DA-4355-9ABE-2EAD22125FE9";
shapes = (
{
closed = 1;
nodes = (
(512,463,o),
(445,536,o),
(337,536,cs),
(264,536,o),
(165,489,o),
(145,433,c),
(164,518,l),
(107,518,l),
(-48,-211,l),
(13,-211,l),
(74,73,l),
(110,8,o),
(150,-17,o),
(222,-17,cs),
(397,-17,o),
(512,146,o),
(512,346,cs)
);
},
{
closed = 1;
nodes = (
(446,183,o),
(361,46,o),
(237,46,cs),
(156,46,o),
(104,95,o),
(104,180,cs),
(104,329,o),
(195,473,o),
(315,473,cs),
(398,473,o),
(446,419,o),
(446,325,cs)
);
}
);
width = 534;
}
);
unicode = 112;
},
{
glyphname = parenleft;
layers = (
{
layerId = "913D8FE6-1CE1-42B9-B98D-9294EEB74CA2";
shapes = (
{
closed = 1;
nodes = (
(232,-193,l),
(185,-25,o),
(173,42,o),
(173,129,cs),
(173,325,o),
(231,449,o),
(428,729,c),
(306,729,l),
(108,491,o),
(34,326,o),
(34,125,cs),
(34,39,o),
(58,-60,o),
(110,-193,c)
);
}
);
width = 333;
},
{
layerId = "302A00D6-A4BF-4816-9BF8-9304575F20B5";
shapes = (
{
closed = 1;
nodes = (
(221,-200,l),
(177,-56,o),
(163,20,o),
(163,112,cs),
(163,317,o),
(231,473,o),
(418,729,c),
(318,729,l),
(128,510,o),
(44,324,o),
(44,122,cs),
(44,25,o),
(70,-83,o),
(121,-200,c)
);
}
);
width = 333;
},
{
layerId = "294D04AE-F7F3-48C8-8CA3-B1C092BC12BA";
shapes = (
{
closed = 1;
nodes = (
(196,-213,l),
(159,-117,o),
(141,-23,o),
(141,79,cs),
(141,301,o),
(228,523,o),
(396,729,c),
(341,729,l),
(167,547,o),
(63,319,o),
(63,116,cs),
(63,-3,o),
(92,-127,o),
(141,-213,c)
);
}
);
width = 333;
},
{
layerId = "9C58397D-E5DA-4355-9ABE-2EAD22125FE9";
shapes = (
{
closed = 1;
nodes = (
(186,-219,l),
(152,-143,o),
(132,-41,o),
(132,65,cs),
(132,294,o),
(227,544,o),
(387,729,c),
(351,729,l),
(184,562,o),
(71,316,o),
(71,113,cs),
(71,-15,o),
(101,-145,o),
(149,-219,c)
);
}
);
width = 333;
}
);
unicode = 40;
},
{
glyphname = parenright;
layers = (
{
layerId = "913D8FE6-1CE1-42B9-B98D-9294EEB74CA2";
shapes = (
{
closed = 1;
nodes = (
(336,496,o),
(313,589,o),
(254,729,c),
(132,729,l),
(183,557,o),
(196,495,o),
(196,409,cs),
(196,211,o),
(145,98,o),
(-63,-193,c),
(59,-193,l),
(250,33,o),
(336,194,o),
(336,405,cs)
);
}
);
width = 333;
},
{
layerId = "302A00D6-A4BF-4816-9BF8-9304575F20B5";
shapes = (
{
closed = 1;
nodes = (
(316,504,o),
(291,608,o),
(236,729,c),
(136,729,l),
(183,582,o),
(197,509,o),
(197,416,cs),
(197,212,o),
(133,62,o),
(-61,-200,c),
(39,-200,l),
(224,11,o),
(316,195,o),
(316,406,cs)
);
}
);
width = 333;
},
{
layerId = "294D04AE-F7F3-48C8-8CA3-B1C092BC12BA";
shapes = (
{
closed = 1;
nodes = (
(275,520,o),
(245,646,o),
(198,729,c),
(143,729,l),
(181,632,o),
(198,538,o),
(198,431,cs),
(198,215,o),
(109,-10,o),
(-57,-213,c),
(-2,-213,l),
(171,-32,o),
(275,199,o),
(275,407,cs)
);
}
);
width = 333;
},
{
layerId = "9C58397D-E5DA-4355-9ABE-2EAD22125FE9";
shapes = (
{
closed = 1;
nodes = (
(259,527,o),
(227,662,o),
(183,729,c),
(146,729,l),
(181,653,o),
(199,550,o),
(199,437,cs),
(199,216,o),
(100,-40,o),
(-55,-219,c),
(-18,-219,l),
(150,-50,o),
(259,201,o),
(259,407,cs)
);
}
);
width = 333;
}
);
unicode = 41;
},
{
glyphname = percent;
layers = (
{
layerId = "913D8FE6-1CE1-42B9-B98D-9294EEB74CA2";
shapes = (
{
closed = 1;
nodes = (
(788,681,l),
(709,681,l),
(180,-19,l),
(258,-19,l)
);
},
{
closed = 1;
nodes = (
(480,621,o),
(416,681,o),
(326,681,cs),
(211,681,o),
(105,577,o),
(105,465,cs),
(105,382,o),
(172,320,o),
(258,320,cs),
(374,320,o),
(480,423,o),
(480,537,cs)
);
},
{
closed = 1;
nodes = (
(369,469,o),
(329,429,o),
(282,429,cs),
(245,429,o),
(216,454,o),
(216,484,cs),
(216,530,o),
(257,572,o),
(303,572,cs),
(340,572,o),
(369,546,o),
(369,516,cs)
);
},
{
closed = 1;
nodes = (
(855,281,o),
(792,342,o),
(702,342,cs),
(587,342,o),
(482,237,o),
(482,125,cs),
(482,41,o),
(548,-21,o),
(633,-21,cs),
(749,-21,o),
(855,83,o),
(855,197,cs)
);
},
{
closed = 1;
nodes = (
(745,129,o),
(704,88,o),
(657,88,cs),
(621,88,o),
(592,113,o),
(592,144,cs),
(592,190,o),
(633,232,o),
(679,232,cs),
(715,232,o),
(745,206,o),
(745,176,cs)
);
}
);
width = 889;
},
{
layerId = "302A00D6-A4BF-4816-9BF8-9304575F20B5";
shapes = (
{
closed = 1;
nodes = (
(779,681,l),
(705,681,l),
(177,-19,l),
(250,-19,l)
);
},
{
closed = 1;
nodes = (
(464,614,o),
(403,673,o),
(318,673,cs),
(207,673,o),
(103,571,o),
(103,463,cs),
(103,383,o),
(166,324,o),
(248,324,cs),
(362,324,o),
(464,424,o),
(464,535,cs)
);
},
{
closed = 1;
nodes = (
(368,464,o),
(321,418,o),
(270,418,cs),
(230,418,o),
(199,445,o),
(199,481,cs),
(199,532,o),
(246,579,o),
(297,579,cs),
(338,579,o),
(368,551,o),
(368,515,cs)
);
},
{
closed = 1;
nodes = (
(846,272,o),
(785,330,o),
(700,330,cs),
(589,330,o),
(486,228,o),
(486,120,cs),
(486,40,o),
(548,-19,o),
(630,-19,cs),
(744,-19,o),
(846,82,o),
(846,192,cs)
);
},
{
closed = 1;
nodes = (
(750,121,o),
(703,75,o),
(652,75,cs),
(612,75,o),
(582,103,o),
(582,138,cs),
(582,189,o),
(629,236,o),
(679,236,cs),
(720,236,o),
(750,208,o),
(750,172,cs)
);
}
);
width = 889;
},
{
layerId = "294D04AE-F7F3-48C8-8CA3-B1C092BC12BA";
shapes = (
{
closed = 1;
nodes = (
(762,681,l),
(699,681,l),
(171,-19,l),
(234,-19,l)
);
},
{
closed = 1;
nodes = (
(434,600,o),
(376,655,o),
(301,655,cs),
(198,655,o),
(99,560,o),
(99,459,cs),
(99,386,o),
(154,332,o),
(229,332,cs),
(337,332,o),
(434,426,o),
(434,530,cs)
);
},
{
closed = 1;
nodes = (
(366,453,o),
(307,396,o),
(245,396,cs),
(199,396,o),
(166,429,o),
(166,474,cs),
(166,535,o),
(224,591,o),
(286,591,cs),
(334,591,o),
(366,560,o),
(366,513,cs)
);
},
{
closed = 1;
nodes = (
(829,252,o),
(772,307,o),
(697,307,cs),
(593,307,o),
(494,212,o),
(494,111,cs),
(494,38,o),
(550,-15,o),
(625,-15,cs),
(732,-15,o),
(829,79,o),
(829,182,cs)
);
},
{
closed = 1;
nodes = (
(762,106,o),
(702,48,o),
(640,48,cs),
(595,48,o),
(561,82,o),
(561,127,cs),
(561,187,o),
(620,244,o),
(681,244,cs),
(729,244,o),
(762,212,o),
(762,165,cs)
);
}
);
width = 889;
},
{
layerId = "9C58397D-E5DA-4355-9ABE-2EAD22125FE9";
shapes = (
{
closed = 1;
nodes = (
(755,681,l),
(696,681,l),
(168,-19,l),
(227,-19,l)
);
},
{
closed = 1;
nodes = (
(421,594,o),
(365,648,o),
(295,648,cs),
(193,648,o),
(97,556,o),
(97,458,cs),
(97,388,o),
(150,336,o),
(221,336,cs),
(326,336,o),
(421,428,o),
(421,529,cs)
);
},
{
closed = 1;
nodes = (
(366,449,o),
(301,387,o),
(234,387,cs),
(186,387,o),
(152,423,o),
(152,472,cs),
(152,537,o),
(215,597,o),
(281,597,cs),
(332,597,o),
(366,564,o),
(366,513,cs)
);
},
{
closed = 1;
nodes = (
(822,244,o),
(766,298,o),
(696,298,cs),
(594,298,o),
(498,205,o),
(498,109,cs),
(498,38,o),
(551,-13,o),
(622,-13,cs),
(727,-13,o),
(822,79,o),
(822,179,cs)
);
},
{
closed = 1;
nodes = (
(767,100,o),
(702,38,o),
(635,38,cs),
(587,38,o),
(553,73,o),
(553,122,cs),
(553,186,o),
(616,247,o),
(682,247,cs),
(733,247,o),
(767,214,o),
(767,163,cs)
);
}
);
width = 889;
}
);
unicode = 37;
},
{
glyphname = period;
layers = (
{
layerId = "913D8FE6-1CE1-42B9-B98D-9294EEB74CA2";
shapes = (
{
closed = 1;
nodes = (
(190,0,l),
(226,168,l),
(53,168,l),
(17,0,l)
);
}
);
width = 278;
},
{
layerId = "302A00D6-A4BF-4816-9BF8-9304575F20B5";
shapes = (
{
closed = 1;
nodes = (
(174,0,l),
(205,146,l),
(55,146,l),
(24,0,l)
);
}
);
width = 278;
},
{
layerId = "294D04AE-F7F3-48C8-8CA3-B1C092BC12BA";
shapes = (
{
closed = 1;
nodes = (
(141,0,l),
(163,103,l),
(59,103,l),
(37,0,l)
);
}
);
width = 278;
},
{
layerId = "9C58397D-E5DA-4355-9ABE-2EAD22125FE9";
shapes = (
{
closed = 1;
nodes = (
(128,0,l),
(146,86,l),
(61,86,l),
(43,0,l)
);
}
);
width = 278;
}
);
unicode = 46;
},
{
glyphname = plus;
layers = (
{
layerId = "913D8FE6-1CE1-42B9-B98D-9294EEB74CA2";
shapes = (
{
closed = 1;
nodes = (
(549,192,l),
(549,308,l),
(371,308,l),
(371,486,l),
(255,486,l),
(255,308,l),
(77,308,l),
(77,192,l),
(255,192,l),
(255,14,l),
(371,14,l),
(371,192,l)
);
}
);
width = 584;
},
{
layerId = "302A00D6-A4BF-4816-9BF8-9304575F20B5";
shapes = (
{
closed = 1;
nodes = (
(538,200,l),
(538,300,l),
(356,300,l),
(356,482,l),
(256,482,l),
(256,300,l),
(74,300,l),
(74,200,l),
(256,200,l),
(256,18,l),
(356,18,l),
(356,200,l)
);
}
);
width = 584;
},
{
layerId = "294D04AE-F7F3-48C8-8CA3-B1C092BC12BA";
shapes = (
{
closed = 1;
nodes = (
(516,216,l),
(516,284,l),
(326,284,l),
(326,474,l),
(258,474,l),
(258,284,l),
(68,284,l),
(68,216,l),
(258,216,l),
(258,26,l),
(326,26,l),
(326,216,l)
);
}
);
width = 584;
},
{
layerId = "9C58397D-E5DA-4355-9ABE-2EAD22125FE9";
shapes = (
{
closed = 1;
nodes = (
(507,223,l),
(507,278,l),
(314,278,l),
(314,471,l),
(259,471,l),
(259,278,l),
(66,278,l),
(66,223,l),
(259,223,l),
(259,29,l),
(314,29,l),
(314,223,l)
);
}
);
width = 584;
}
);
unicode = 43;
},
{
glyphname = Q;
layers = (
{
hints = (
{
horizontal = 1;
origin = (0,20);
target = up;
type = BottomGhost;
},
{
horizontal = 1;
origin = (0,16);
target = (1,8);
type = Stem;
},
{
horizontal = 1;
origin = (1,14);
target = (0,7);
type = Stem;
},
{
origin = (0,13);
target = (1,11);
type = Stem;
},
{
origin = (1,17);
target = (0,4);
type = Stem;
}
);
layerId = "913D8FE6-1CE1-42B9-B98D-9294EEB74CA2";
shapes = (
{
closed = 1;
nodes = (
(714,53,l),
(658,125,l),
(728,195,o),
(781,322,o),
(781,430,cs),
(781,602,o),
(675,708,o),
(499,708,cs),
(379,708,o),
(289,668,o),
(207,567,cs),
(134,480,o),
(90,366,o),
(90,256,cs),
(90,90,o),
(201,-9,o),
(369,-9,cs),
(434,-9,o),
(498,9,o),
(551,38,c),
(608,-37,l)
);
},
{
closed = 1;
nodes = (
(613,349,o),
(592,281,o),
(568,238,c),
(509,315,l),
(402,225,l),
(462,149,l),
(449,143,o),
(417,136,o),
(390,136,cs),
(310,136,o),
(258,189,o),
(258,281,cs),
(258,438,o),
(358,563,o),
(476,563,cs),
(565,563,o),
(613,504,o),
(613,410,cs)
);
}
);
width = 778;
},
{
hints = (
{
horizontal = 1;
origin = (0,20);
target = up;
type = BottomGhost;
},
{
horizontal = 1;
origin = (0,16);
target = (1,8);
type = Stem;
},
{
horizontal = 1;
origin = (1,14);
target = (0,7);
type = Stem;
},
{
origin = (0,13);
target = (1,11);
type = Stem;
},
{
origin = (1,17);
target = (0,4);
type = Stem;
}
);
layerId = "302A00D6-A4BF-4816-9BF8-9304575F20B5";
shapes = (
{
closed = 1;
nodes = (
(700,36,l),
(638,109,l),
(720,188,o),
(775,317,o),
(775,435,cs),
(775,607,o),
(670,711,o),
(494,711,cs),
(374,711,o),
(280,666,o),
(200,570,cs),
(127,483,o),
(83,369,o),
(83,257,cs),
(83,89,o),
(191,-12,o),
(361,-12,cs),
(429,-12,o),
(485,4,o),
(544,36,c),
(610,-41,l)
);
},
{
closed = 1;
nodes = (
(632,340,o),
(604,258,o),
(559,203,c),
(497,277,l),
(407,200,l),
(466,130,l),
(442,118,o),
(412,111,o),
(381,111,cs),
(286,111,o),
(226,172,o),
(226,276,cs),
(226,444,o),
(336,588,o),
(475,588,cs),
(574,588,o),
(632,525,o),
(632,419,cs)
);
}
);
width = 778;
},
{
hints = (
{
horizontal = 1;
origin = (0,20);
target = up;
type = BottomGhost;
},
{
horizontal = 1;
origin = (0,16);
target = (1,8);
type = Stem;
},
{
horizontal = 1;
origin = (1,14);
target = (0,7);
type = Stem;
},
{
origin = (0,13);
target = (1,11);
type = Stem;
},
{
origin = (1,17);
target = (0,4);
type = Stem;
}
);
layerId = "294D04AE-F7F3-48C8-8CA3-B1C092BC12BA";
shapes = (
{
closed = 1;
nodes = (
(673,4,l),
(598,78,l),
(703,173,o),
(764,305,o),
(764,444,cs),
(764,615,o),
(661,717,o),
(484,717,cs),
(364,717,o),
(261,660,o),
(187,575,cs),
(113,490,o),
(69,374,o),
(69,258,cs),
(69,85,o),
(171,-17,o),
(343,-17,cs),
(417,-17,o),
(461,-6,o),
(532,32,c),
(615,-52,l)
);
},
{
closed = 1;
nodes = (
(672,320,o),
(627,212,o),
(543,132,c),
(472,202,l),
(416,148,l),
(476,88,l),
(429,67,o),
(401,60,o),
(362,60,cs),
(236,60,o),
(161,137,o),
(161,266,cs),
(161,456,o),
(292,639,o),
(473,639,cs),
(593,639,o),
(672,566,o),
(672,434,cs)
);
}
);
width = 778;
},
{
hints = (
{
horizontal = 1;
origin = (0,20);
target = up;
type = BottomGhost;
},
{
horizontal = 1;
origin = (0,16);
target = (1,8);
type = Stem;
},
{
horizontal = 1;
origin = (1,14);
target = (0,7);
type = Stem;
},
{
origin = (0,13);
target = (1,11);
type = Stem;
},
{
origin = (1,17);
target = (0,4);
type = Stem;
}
);
layerId = "9C58397D-E5DA-4355-9ABE-2EAD22125FE9";
shapes = (
{
closed = 1;
nodes = (
(663,-9,l),
(583,66,l),
(698,168,o),
(760,302,o),
(760,448,cs),
(760,620,o),
(658,721,o),
(482,721,cs),
(361,721,o),
(253,660,o),
(182,578,cs),
(107,493,o),
(63,378,o),
(63,260,cs),
(63,85,o),
(162,-19,o),
(337,-19,cs),
(413,-19,o),
(452,-10,o),
(527,31,c),
(618,-57,l)
);
},
{
closed = 1;
nodes = (
(689,312,o),
(637,195,o),
(537,104,c),
(462,171,l),
(421,128,l),
(481,72,l),
(424,47,o),
(397,41,o),
(354,41,cs),
(216,41,o),
(134,125,o),
(134,263,cs),
(134,462,o),
(274,661,o),
(473,661,cs),
(602,661,o),
(689,585,o),
(689,442,cs)
);
}
);
width = 778;
}
);
unicode = 81;
},
{
glyphname = q;
layers = (
{
hints = (
{
horizontal = 1;
origin = (0,0);
target = up;
type = BottomGhost;
},
{
horizontal = 1;
origin = (0,12);
target = (1,2);
type = Stem;
},
{
horizontal = 1;
origin = (1,8);
target = (0,6);
type = Stem;
},
{
origin = (0,9);
target = (1,5);
type = Stem;
}
);
layerId = "913D8FE6-1CE1-42B9-B98D-9294EEB74CA2";
shapes = (
{
closed = 1;
nodes = (
(488,-220,l),
(651,547,l),
(478,547,l),
(462,470,l),
(444,528,o),
(403,553,o),
(336,553,cs),
(170,553,o),
(40,380,o),
(40,193,cs),
(40,65,o),
(108,-6,o),
(217,-6,cs),
(282,-6,o),
(351,30,o),
(383,75,c),
(320,-220,l)
);
},
{
closed = 1;
nodes = (
(428,207,o),
(366,123,o),
(287,123,cs),
(242,123,o),
(211,156,o),
(211,219,cs),
(211,329,o),
(275,424,o),
(349,424,cs),
(397,424,o),
(428,383,o),
(428,319,cs)
);
}
);
width = 639;
},
{
hints = (
{
horizontal = 1;
origin = (0,0);
target = up;
type = BottomGhost;
},
{
horizontal = 1;
origin = (0,12);
target = (1,2);
type = Stem;
},
{
horizontal = 1;
origin = (1,8);
target = (0,6);
type = Stem;
},
{
origin = (0,9);
target = (1,5);
type = Stem;
}
);
layerId = "302A00D6-A4BF-4816-9BF8-9304575F20B5";
shapes = (
{
closed = 1;
nodes = (
(458,-218,l),
(619,540,l),
(479,540,l),
(462,460,l),
(442,520,o),
(398,549,o),
(329,549,cs),
(158,549,o),
(34,372,o),
(34,188,cs),
(34,65,o),
(105,-9,o),
(211,-9,cs),
(279,-9,o),
(336,20,o),
(380,72,c),
(318,-218,l)
);
},
{
closed = 1;
nodes = (
(426,197,o),
(354,103,o),
(267,103,cs),
(213,103,o),
(177,141,o),
(177,210,cs),
(177,335,o),
(251,437,o),
(337,437,cs),
(391,437,o),
(426,393,o),
(426,324,cs)
);
}
);
width = 611;
},
{
hints = (
{
horizontal = 1;
origin = (0,0);
target = up;
type = BottomGhost;
},
{
horizontal = 1;
origin = (0,12);
target = (1,2);
type = Stem;
},
{
horizontal = 1;
origin = (1,8);
target = (0,6);
type = Stem;
},
{
origin = (0,9);
target = (1,5);
type = Stem;
}
);
layerId = "294D04AE-F7F3-48C8-8CA3-B1C092BC12BA";
shapes = (
{
closed = 1;
nodes = (
(400,-213,l),
(557,524,l),
(482,524,l),
(463,438,l),
(440,503,o),
(389,539,o),
(316,539,cs),
(135,539,o),
(22,355,o),
(22,177,cs),
(22,65,o),
(99,-15,o),
(200,-15,cs),
(273,-15,o),
(306,-1,o),
(376,66,c),
(316,-213,l)
);
},
{
closed = 1;
nodes = (
(424,175,o),
(331,62,o),
(228,62,cs),
(157,62,o),
(110,110,o),
(110,190,cs),
(110,346,o),
(203,462,o),
(314,462,cs),
(381,462,o),
(424,412,o),
(424,333,cs)
);
}
);
width = 556;
},
{
hints = (
{
horizontal = 1;
origin = (0,0);
target = up;
type = BottomGhost;
},
{
horizontal = 1;
origin = (0,12);
target = (1,2);
type = Stem;
},
{
horizontal = 1;
origin = (1,8);
target = (0,6);
type = Stem;
},
{
origin = (0,9);
target = (1,5);
type = Stem;
}
);
layerId = "9C58397D-E5DA-4355-9ABE-2EAD22125FE9";
shapes = (
{
closed = 1;
nodes = (
(377,-211,l),
(532,518,l),
(484,518,l),
(464,430,l),
(440,497,o),
(386,536,o),
(311,536,cs),
(126,536,o),
(17,349,o),
(17,173,cs),
(17,66,o),
(98,-17,o),
(196,-17,cs),
(272,-17,o),
(295,-9,o),
(375,65,c),
(316,-211,l)
);
},
{
closed = 1;
nodes = (
(424,167,o),
(322,46,o),
(213,46,cs),
(135,46,o),
(83,98,o),
(83,183,cs),
(83,351,o),
(184,473,o),
(305,473,cs),
(378,473,o),
(424,421,o),
(424,337,cs)
);
}
);
width = 534;
}
);
unicode = 113;
},
